<?xml version="1.0" encoding="UTF-8"?>
<svg width="146px" height="26px" viewBox="0 0 146 26" version="1.1" xmlns="http://www.w3.org/2000/svg" xmlns:xlink="http://www.w3.org/1999/xlink">
    <!-- Generator: Sketch 54.1 (76490) - https://sketchapp.com -->
    <title>common_logo</title>
    <desc>Created with Sketch.</desc>
    <g id="common_logo" stroke="none" stroke-width="1" fill="none" fill-rule="evenodd">
        <g id="图标/通用/logo">
            <g id="编组-5复制">
                <path d="M33.7932584,3.575 L38.501861,3.575 L38.501861,10.6970703 L46.9886236,3.575 L50.6258076,3.575 L41.0535288,11.5908203 L53.1774754,22.5113281 L47.4961376,22.5113281 L38.501861,14.3977539 L38.501861,22.5113281 L33.7932584,22.5113281 L33.7932584,3.575 Z M70.2996664,3.575 L70.2996664,5.19492188 L60.71329,5.19492188 L60.71329,11.437207 L68.678441,11.437207 L68.678441,13.0571289 L60.71329,13.0571289 L60.71329,20.5702148 L70.2996664,20.5702148 L70.2996664,22.5113281 L56.0187851,22.5113281 L56.0187851,3.575 L70.2996664,3.575 Z M73.94454,3.575 L80.6127107,3.575 C81.6841346,3.575 82.6874046,3.68671763 83.6225509,3.91015625 C84.5576972,4.13359487 85.3706514,4.46874777 86.0614379,4.915625 C86.7522243,5.36250223 87.294977,5.91876295 87.6897121,6.58442383 C88.0844472,7.25008471 88.2818118,8.02512579 88.2818118,8.90957031 C88.2818118,9.80332478 88.0867968,10.5830208 87.6967609,11.2486816 C87.306725,11.9143425 86.7898177,12.4706032 86.1460235,12.9174805 C85.5022293,13.3643577 84.7691608,13.6971832 83.946796,13.9159668 C83.1244312,14.1347504 82.2809325,14.2441406 81.4162746,14.2441406 L78.6531426,14.2441406 L78.6531426,22.5113281 L73.94454,22.5113281 L73.94454,3.575 Z M78.6531426,12.5264648 L80.1897823,12.5264648 C80.7254943,12.5264648 81.1907108,12.4310394 81.5854459,12.2401855 C81.980181,12.0493317 82.309122,11.7886573 82.5722788,11.4581543 C82.8354355,11.1276513 83.0328001,10.7482769 83.1643785,10.3200195 C83.2959569,9.89176218 83.3617451,9.44023675 83.3617451,8.96542969 C83.3617451,8.3975232 83.2748107,7.89479385 83.1009393,7.45722656 C82.9270678,7.01965927 82.69211,6.64959461 82.3960586,6.34702148 C82.1000073,6.04444836 81.7522697,5.81403074 81.3528353,5.65576172 C80.953401,5.4974927 80.5234281,5.41835937 80.0629038,5.41835937 L78.6531426,5.41835937 L78.6531426,12.5264648 Z M92.8430302,3.575 L97.5375351,3.575 L97.5375351,20.5702148 L107.293083,20.5702148 L107.293083,22.5113281 L92.8430302,22.5113281 L92.8430302,3.575 Z M125.247033,3.575 L125.247033,5.19492188 L115.660657,5.19492188 L115.660657,11.437207 L123.625808,11.437207 L123.625808,13.0571289 L115.660657,13.0571289 L115.660657,20.5702148 L125.247033,20.5702148 L125.247033,22.5113281 L110.966152,22.5113281 L110.966152,3.575 L125.247033,3.575 Z M128.891907,3.575 L136.081689,3.575 C137.322285,3.575 138.405441,3.70300979 139.331189,3.9590332 C140.256936,4.21505662 141.027598,4.57348402 141.643197,5.03432617 C142.258796,5.49516832 142.721663,6.04211923 143.031812,6.67519531 C143.341961,7.30827139 143.497033,7.9971968 143.497033,8.74199219 C143.497033,9.28196885 143.391302,9.79168055 143.179837,10.2711426 C142.968371,10.7506046 142.672325,11.1928202 142.291687,11.5978027 C141.91105,12.0027852 141.450532,12.3612126 140.910121,12.6730957 C140.36971,12.9849788 139.775267,13.2433258 139.126773,13.4481445 L145.93592,22.5113281 L140.832584,22.5113281 L134.418171,13.9508789 L133.586412,13.9508789 L133.586412,22.5113281 L128.891907,22.5113281 L128.891907,3.575 Z M133.586412,12.2890625 L134.60144,12.2890625 C135.174745,12.2890625 135.70575,12.2099292 136.19447,12.0516602 C136.683189,11.8933911 137.106114,11.6676284 137.463255,11.3743652 C137.820396,11.081102 138.099996,10.7203472 138.302063,10.2920898 C138.50413,9.86383249 138.605162,9.37972275 138.605162,8.83974609 C138.605162,8.33700921 138.527625,7.87617397 138.372551,7.45722656 C138.217476,7.03827916 138.003665,6.6775243 137.73111,6.37495117 C137.458554,6.07237804 137.129613,5.83730553 136.744277,5.66972656 C136.35894,5.5021476 135.940715,5.41835937 135.489589,5.41835937 L133.586412,5.41835937 L133.586412,12.2890625 Z" id="KEPLER" fill="#37383C" fill-rule="nonzero"></path>
                <g id="编组" fill="#7A92CC">
                    <polygon id="Fill-1" points="0 26 8.74906367 26 8.74906367 0 0 0"></polygon>
                    <g transform="translate(13.123596, 0.000000)">
                        <path d="M13.1235955,0 C13.1235955,7.1799 7.2481618,13 0,13 L0,0" id="Fill-2"></path>
                        <path d="M0,13 C7.2481618,13 13.1235955,18.8201 13.1235955,26 L0,26" id="Fill-4"></path>
                    </g>
                </g>
            </g>
        </g>
    </g>
</svg>