<?xml version="1.0" standalone="no"?>
<!DOCTYPE svg PUBLIC "-//W3C//DTD SVG 1.1//EN" "http://www.w3.org/Graphics/SVG/1.1/DTD/svg11.dtd" >
<!--
2013-9-30: Created.
-->
<svg>
<metadata>
Created by iconfont
</metadata>
<defs>

<font id="iconfont" horiz-adv-x="1024" >
  <font-face
    font-family="iconfont"
    font-weight="500"
    font-stretch="normal"
    units-per-em="1024"
    ascent="896"
    descent="-128"
  />
    <missing-glyph />
    
    <glyph glyph-name="x" unicode="x" horiz-adv-x="1001"
d="M281 543q-27 -1 -53 -1h-83q-18 0 -36.5 -6t-32.5 -18.5t-23 -32t-9 -45.5v-76h912v41q0 16 -0.5 30t-0.5 18q0 13 -5 29t-17 29.5t-31.5 22.5t-49.5 9h-133v-97h-438v97zM955 310v-52q0 -23 0.5 -52t0.5 -58t-10.5 -47.5t-26 -30t-33 -16t-31.5 -4.5q-14 -1 -29.5 -0.5
t-29.5 0.5h-32l-45 128h-439l-44 -128h-29h-34q-20 0 -45 1q-25 0 -41 9.5t-25.5 23t-13.5 29.5t-4 30v167h911zM163 247q-12 0 -21 -8.5t-9 -21.5t9 -21.5t21 -8.5q13 0 22 8.5t9 21.5t-9 21.5t-22 8.5zM316 123q-8 -26 -14 -48q-5 -19 -10.5 -37t-7.5 -25t-3 -15t1 -14.5
t9.5 -10.5t21.5 -4h37h67h81h80h64h36q23 0 34 12t2 38q-5 13 -9.5 30.5t-9.5 34.5q-5 19 -11 39h-368zM336 498v228q0 11 2.5 23t10 21.5t20.5 15.5t34 6h188q31 0 51.5 -14.5t20.5 -52.5v-227h-327z" />
    

    
    <glyph glyph-name="shuaxin" unicode="&#58880;" d="M796.048 301.136c-28.616 0-51.81-23.193-51.81-51.808 0-134.681-109.558-244.24-244.239-244.24-134.681 0-244.238 109.56-244.238 244.24 0 126.677 96.955 231.083 220.562 243.037v-115.312l283.176 163.504L476.323 704.052v-108.072c-180.762-12.258-324.179-162.838-324.179-346.651 0-191.809 156.048-347.857 347.854-347.857 191.809 0 347.856 156.049 347.856 347.857C847.855 277.942 824.663 301.136 796.048 301.136z"  horiz-adv-x="1000" />

    
    <glyph glyph-name="konggouwuche" unicode="&#58881;" d="M328 28q19.008 0 36-7.008t29.504-19.488 20-29.504 7.488-36-7.488-36-20-29.504-29.504-20-36-7.488q-20 0-36.992 7.488t-29.504 20-20 29.504-7.488 36 7.488 36 20 29.504 29.504 19.488 36.992 7.008zM744 25.984q19.008 0 36.512-7.008t30.016-19.488 20-29.504 7.488-36-7.488-36-20-29.504-30.016-20-36.512-7.488-36 7.488-29.504 20-20 29.504-7.488 36 7.488 36 20 29.504 29.504 19.488 36 7.008zM912 593.984q28 0 43.488-7.488t22.016-18.496 6.016-23.488-3.488-21.504-12.992-36.992-21.504-61.504-23.008-66.496-18.496-52q-12.992-40-32.512-55.488t-48.512-15.488l-524.992 0 14.016-90.016 504.992 0q48 0 48-40.992 0-20-9.504-35.008t-37.504-14.016l-524 0q-20 0-33.504 8.992t-22.496 23.488-14.496 31.488-8.512 32q-0.992 6.016-5.504 28.992t-11.008 57.504-14.496 76.992-16 85.504q-19.008 100.992-43.008 224.992l-75.008 0q-15.008 0-24.992 7.488t-16.512 18.016-8.992 22.496-2.496 22.016q0 20 13.504 32.992t36.512 12l100.992 0q20 0 32-6.016t19.008-15.008 10.016-18.496 4.992-16.512q2.016-8 4-22.496t4-29.504q3.008-18.016 6.016-38.016l684 0zM875.008 504.992l-626.016 2.016 35.008-180.992 523.008-0.992z"  horiz-adv-x="1024" />

    
    <glyph glyph-name="dianhua1" unicode="&#58901;" d="M206.888 740.965h613.086c77.848 0 140.947-62.606 140.947-139.854v-615.299c0-77.193-63.099-139.8-140.947-139.8l-613.086 0c-77.848 0-140.946 62.607-140.946 139.8l-0 615.299c0 77.247 63.099 139.854 140.946 139.854v0zM359.006 544.145c-28.599 0-97.27-51.899-97.27-99.482 0-139.034 250.262-403.935 406.148-403.935 42.885 0 97.242 46.109 97.242 99.536 0 18.302-111.555 99.483-137.285 99.483-26.442 0-45.753-23.436-68.644-23.436-22.835 0-125.813 103.195-125.813 128.816 0 25.566 22.835 38.077 22.835 64.41-0.001 19.014-68.671 134.609-97.214 134.609v0z"  horiz-adv-x="1024" />

    
    <glyph glyph-name="3" unicode="&#58882;" d="M511.367818 712.070027 374.161662 432.713145 66.243683 387.263747 289.562111 170.492922 237.632844-136.318737 512.76765 9.083212 788.534639-135.234996 735.318428 171.441196 957.756317 389.115139 649.657715 432.713145Z"  horiz-adv-x="1024" />

    
    <glyph glyph-name="zhuye" unicode="&#58883;" d="M811.255172 298.446345c-19.508966 0-35.310345-15.819034-35.310345-35.310345l0-312.425931c-2.577655-47.510069-15.607172-57.661793-61.281103-59.780414l-399.730759-0.300138c-52.365241 1.465379-66.59531 10.699034-68.64331 66.59531L246.289655 263.136c0 19.49131-15.819034 35.310345-35.310345 35.310345-19.508966 0-35.310345-15.819034-35.310345-35.310345l0-372.135724c0-46.309517 34.957241-69.208276 81.284414-69.208276l41.931034 0 0-0.370759 421.835034 0.282483 0 0.088276 41.931034 0c46.309517 0 83.826759 22.898759 83.826759 69.208276l0 44.50869 0.105931 0L846.583172 263.136C846.565517 282.644966 830.746483 298.446345 811.255172 298.446345zM1003.572966 303.654621 542.614069 763.271724c-1.235862 2.312828-2.842483 4.519724-4.837517 6.532414-8.509793 8.509793-18.891034 11.158069-29.184 9.551448-7.927172-0.441379-15.730759-3.672276-22.580966-10.522483-0.229517-0.229517-0.353103-0.512-0.564966-0.759172-1.235862-1.05931-2.507034-2.01269-3.672276-3.195586L18.555586 302.983724c-16.366345-16.366345-18.025931-29.784276-1.641931-46.132966 16.366345-16.384 33.068138-18.025931 49.434483-1.659586l445.086897 437.459862L959.046621 255.862069c16.384-16.384 33.068138-14.724414 49.452138 1.659586C1024.847448 273.870345 1019.956966 287.270621 1003.572966 303.654621zM740.634483 669.204966l105.931034 0 0-105.931034c0-19.49131 15.801379-35.310345 35.310345-35.310345 19.49131 0 35.310345 15.819034 35.310345 35.310345l0 141.241379c0 19.49131-15.819034 35.310345-35.310345 35.310345l-141.241379 0c-19.508966 0-35.310345-15.819034-35.310345-35.310345S721.125517 669.204966 740.634483 669.204966z"  horiz-adv-x="1024" />

    
    <glyph glyph-name="delete" unicode="&#59026;" d="M889.746 563.826h-226.681l0.585 93.879c0 12.456-10.098 22.552-22.552 22.552h-257.031c-12.456 0-22.552-10.096-22.552-22.552l-0.583-93.879h-226.68c-12.457 0-22.552-10.097-22.552-22.552 0-12.456 10.095-22.552 22.552-22.552h62.573v-600.428c0-12.456 10.096-22.552 22.552-22.552h585.241c12.455 0 22.552 10.096 22.552 22.552l0 600.428h62.574c12.455 0 22.552 10.096 22.552 22.552 0.001 12.455-10.097 22.552-22.551 22.552zM406.62 635.154h211.926l-0.585-71.328h-211.924l0.583 71.328zM782.068-59.154h-540.138v577.876h540.137l0-577.876zM355.878 44.21c12.456 0 22.552 10.096 22.552 22.552v324.762c0 12.455-10.096 22.552-22.552 22.552-12.455 0-22.552-10.098-22.552-22.552v-324.762c0-12.456 10.098-22.552 22.552-22.552zM506.946 44.21c12.456 0 22.552 10.096 22.552 22.552v324.762c0 12.455-10.096 22.552-22.552 22.552-12.455 0-22.552-10.098-22.552-22.552v-324.762c-0.001-12.456 10.097-22.552 22.552-22.552zM658.012 44.21c12.456 0 22.552 10.096 22.552 22.552l0 324.762c0 12.455-10.096 22.552-22.552 22.552-12.456 0-22.552-10.098-22.552-22.552v-324.762c-0-12.456 10.096-22.552 22.552-22.552z"  horiz-adv-x="1024" />

    
    <glyph glyph-name="tianjia" unicode="&#58993;" d="M960 352h-384v384h-128v-384h-384v-128h384v-384h128v384h384z"  horiz-adv-x="1024" />

    
    <glyph glyph-name="dianhua" unicode="&#58884;" d="M744.426607-147.264627 744.408187-147.264627l-4.619204 0.103354c-107.472733 5.497201-252.610298 106.652042-388.285351 270.595928l-50.115398 60.531632C165.713182 347.922453 94.631264 508.051453 111.25385 612.319192c11.732206 73.561389 121.098056 135.641283 183.590342 135.641283 30.780027 0 41.930995-15.31787 45.829791-24.464181 35.375695-62.86784 79.147618-172.198897 79.349209-211.411991l0.013303-2.790556-1.000793-2.605338c-7.801686-20.612457-25.25929-30.487362-40.661072-39.197744-20.290115-11.466146-31.82073-18.99461-33.228799-40.670282-0.418532-6.577812 5.254677-36.501332 94.765317-146.84137l38.268582-46.209438c89.75828-105.928564 117.998461-117.331265 124.610042-118.27373 21.644973-3.010567 31.837102 6.479575 47.40466 23.544229 11.850909 12.993942 25.295106 27.740808 47.478338 30.988782l2.808976 0.400113 2.761903-0.586354c39.08825-8.242731 139.142014-72.724325 195.942671-120.596635 8.200776-5.442966 22.512736-21.601994 11.17962-57.299007C892.588041-64.115881 815.084876-147.264627 744.426607-147.264627L744.426607-147.264627z"  horiz-adv-x="1024" />

    
    <glyph glyph-name="erweima" unicode="&#58921;" d="M814.656-175.456m-36.544 0a0.571 0.571 0 1 0 73.088 0 0.571 0.571 0 1 0-73.088 0ZM985.536-175.456m-36.544 0a0.571 0.571 0 1 0 73.088 0 0.571 0.571 0 1 0-73.088 0ZM951.296 334.88 72.768 334.88c-19.2 0-34.816-15.552-34.816-34.816s15.616-34.944 34.816-34.944l878.464 0c19.264 0 34.88 15.68 34.88 34.944S970.432 334.88 951.296 334.88zM512-42.208c-19.264 0-34.88-15.552-34.88-34.816l0-100.096C477.12-196.384 492.736-212 512-212s34.88 15.616 34.88 34.88l0 100.096C546.88-57.76 531.264-42.208 512-42.208zM512 185.248c-19.264 0-34.88-15.552-34.88-34.816l0-100.096c0-19.264 15.616-34.88 34.88-34.88s34.88 15.616 34.88 34.88l0 100.096C546.88 169.696 531.264 185.248 512 185.248zM666.176 101.024c-19.264 0-34.88-15.616-34.88-34.752l0-100.16c0-19.328 15.616-34.816 34.88-34.816 19.328 0 34.88 15.488 34.88 34.816l0 100.16C701.056 85.344 685.504 101.024 666.176 101.024zM512 798.88c-19.264 0-34.88-15.616-34.88-34.816l0-302.208c0-19.264 15.616-34.816 34.88-34.816s34.88 15.552 34.88 34.816L546.88 764.064C546.88 783.264 531.264 798.88 512 798.88zM261.888 812 130.88 812C58.688 812 0 753.312 0 681.056l0-130.944c0-72.256 58.688-130.944 130.88-130.944l130.944 0c72.256 0 130.88 58.688 130.88 130.944L392.704 681.056C392.768 753.312 334.144 812 261.888 812zM324.608 551.456c0-35.392-28.672-64.064-64.128-64.064L132.16 487.392c-35.392 0-64.064 28.736-64.064 64.064L68.096 679.712c0 35.456 28.736 64.128 64.064 64.128l128.256 0c35.456 0 64.128-28.736 64.128-64.128L324.544 551.456zM266.88 180.832 135.872 180.832c-72.192 0-130.88-58.624-130.88-130.944l0-130.944C4.992-153.312 63.68-212 135.872-212l130.944 0c72.256 0 130.88 58.688 130.88 130.944l0 130.944C397.76 122.208 339.136 180.832 266.88 180.832zM329.6-79.776c0-35.392-28.672-64.064-64.128-64.064L137.152-143.84c-35.392 0-64.064 28.672-64.064 64.064l0 128.32c0 35.392 28.736 64.128 64.064 64.128l128.256 0c35.456 0 64.128-28.736 64.128-64.128L329.536-79.776zM893.184 812l-131.008 0C689.92 812 631.296 753.312 631.296 681.056l0-130.944c0-72.256 58.624-130.944 130.88-130.944l130.944 0c72.32 0 130.88 58.688 130.88 130.944L1024 681.056C1024.064 753.312 965.44 812 893.184 812zM955.968 551.456c0-35.392-28.672-64.064-64.192-64.064l-128.32 0c-35.392 0-64.064 28.736-64.064 64.064L699.392 679.712c0 35.456 28.672 64.128 64.064 64.128l128.32 0c35.456 0 64.192-28.736 64.192-64.128L955.968 551.456zM842.112 180.832c-35.2 0-64-28.8-64-64l0-107.008c0-35.2 28.8-64 64-64l116.032 0c35.2 0 64 28.8 64 64l0 107.008c0 35.2-28.8 64-64 64L842.112 180.832zM968.896 61.088c0-35.2-28.8-64-64-64L895.36-2.912c-35.2 0-64 28.8-64 64l0 4.416c0 35.2 28.8 64 64 64l9.472 0c35.2 0 64-28.8 64-64L968.832 61.088z"  horiz-adv-x="1025" />

    
    <glyph glyph-name="dingdan" unicode="&#58887;" d="M791.969413 636.527546 707.978487 636.527546l0 55.993269-75.410504 0c-24.249287 33.334199-68.886927 55.995315-120.569006 55.995315-51.681056 0-96.317673-22.661116-120.56696-55.995315l-75.413574 0 0-55.993269-83.991949 0c-61.84658 0-111.985514-50.139957-111.985514-111.992677l0-559.938825c0-61.851697 50.138934-111.985514 111.985514-111.985514l559.941895 0c61.84965 0 111.98756 50.133817 111.98756 111.985514L903.95595 524.534869C903.956973 586.387589 853.819063 636.527546 791.969413 636.527546zM372.015805 636.527546l62.213947 0c0 30.922267 34.819017 55.993269 77.769224 55.993269 42.951231 0 77.769224-25.069979 77.769224-55.993269l62.215994 0 0-111.992677L372.015805 524.534869 372.015805 636.527546zM847.963705-35.403956c0-30.92329-25.068955-55.995315-55.994292-55.995315L232.027517-91.399271c-30.924313 0-55.991222 25.072025-55.991222 55.995315L176.036295 524.534869c0 30.922267 25.067932 55.995315 55.991222 55.995315l83.991949 0 0-111.98756L707.978487 468.542624 707.978487 580.530185l83.990926 0c30.925337 0 55.994292-25.072025 55.994292-55.995315L847.963705-35.403956zM707.977463 76.586674 316.019467 76.586674c-15.461133 0-27.995611-12.535501-27.995611-27.999704 0-15.46011 12.533454-27.995611 27.995611-27.995611l391.957996 0c15.464203 0 27.997658 12.535501 27.997658 27.995611C735.975121 64.051173 723.441667 76.586674 707.977463 76.586674zM707.977463 356.55711 316.019467 356.55711c-15.461133 0-27.995611-12.535501-27.995611-28.001751 0-15.458063 12.533454-27.995611 27.995611-27.995611l391.957996 0c15.464203 0 27.997658 12.537548 27.997658 27.995611C735.975121 344.021609 723.441667 356.55711 707.977463 356.55711zM707.977463 216.571892 316.019467 216.571892c-15.461133 0-27.995611-12.537548-27.995611-27.999704 0-15.46011 12.533454-27.995611 27.995611-27.995611l391.957996 0c15.464203 0 27.997658 12.535501 27.997658 27.995611C735.975121 204.034345 723.441667 216.571892 707.977463 216.571892z"  horiz-adv-x="1024" />

    
    <glyph glyph-name="212102" unicode="&#58891;" d="M512 579.3472c5.2736 0 10.5728-1.0752 15.488-3.2512l409.6-180.7104c19.4048-8.5504 28.1856-31.232 19.6352-50.6368-8.5504-19.3792-31.2576-28.1856-50.6368-19.6352L512 498.9632 117.888 325.1136c-19.4048-8.5504-42.0864 0.256-50.6368 19.6352-8.5504 19.4048 0.2304 42.0864 19.6352 50.6368l409.6 180.7104C501.4272 578.2464 506.7264 579.3472 512 579.3472zM512 278.1632c5.2736 0 10.5728-1.0752 15.488-3.2512l409.6-180.7104c19.4048-8.5504 28.1856-31.232 19.6352-50.6368s-31.2576-28.1856-50.6368-19.6352L512 197.7792 117.888 23.9296c-19.4048-8.5504-42.0864 0.2304-50.6368 19.6352-8.5504 19.4048 0.2304 42.0864 19.6352 50.6368l409.6 180.7104C501.4272 277.088 506.7264 278.1632 512 278.1632z"  horiz-adv-x="1024" />

    
    <glyph glyph-name="guanli" unicode="&#58899;" d="M359.943862 747.923636 189.987029 747.923636c-68.570725 0-125.997646-56.887638-125.997646-125.459387l0-169.95581c0-68.570725 57.426921-123.117039 125.997646-123.117039l292.53459 0L482.521618 622.464249C482.521618 691.034974 428.514587 747.923636 359.943862 747.923636zM421.123246 390.789773 189.987029 390.789773c-34.285874 0-63.575967 27.432793-63.575967 61.718667L126.411061 622.464249c0 34.285874 29.290093 63.037708 63.575967 63.037708l169.95581 0c34.285874 0 61.180408-28.751834 61.180408-63.037708L421.123246 390.789773zM836.650031 747.923636 666.693198 747.923636c-68.570725 0-125.843126-56.887638-125.843126-125.459387l0-293.072849 295.79996 0c68.570725 0 122.732276 54.546314 122.732276 123.117039L959.382307 622.464249C959.382307 691.034974 905.220756 747.923636 836.650031 747.923636zM896.960629 452.508439c0-34.285874-26.025747-61.718667-60.310597-61.718667L602.248444 390.789773 602.248444 622.464249c0 34.285874 30.159904 63.037708 64.444754 63.037708l169.95581 0c34.285874 0 60.310597-28.751834 60.310597-63.037708L896.959605 452.508439zM63.989383 145.75808l0-169.95581c0-68.570725 57.426921-123.271558 125.997646-123.271558l169.95581 0c68.570725 0 122.57878 54.69981 122.57878 123.271558L482.521618 271.062947 189.987029 271.062947C121.416304 271.062947 63.989383 214.328805 63.989383 145.75808zM421.123246-24.198753c0-34.285874-26.894534-60.84988-61.180408-60.84988L189.987029-85.048633c-34.285874 0-63.575967 26.564006-63.575967 60.84988L126.411061 145.75808c0 34.285874 29.290093 63.906495 63.575967 63.906495l231.136218 0L421.123246-24.198753zM836.650031 271.062947 540.850072 271.062947l0-295.260677c0-68.570725 57.272401-123.271558 125.843126-123.271558l169.95581 0c68.570725 0 122.732276 54.69981 122.732276 123.271558L959.381283 145.75808C959.382307 214.328805 905.220756 271.062947 836.650031 271.062947zM896.960629-24.198753c0-34.285874-26.025747-60.84988-60.310597-60.84988L666.693198-85.048633c-34.285874 0-64.444754 26.564006-64.444754 60.84988L602.248444 209.664575l234.401588 0c34.285874 0 60.310597-29.620621 60.310597-63.906495L896.960629-24.198753z"  horiz-adv-x="1024" />

    
    <glyph glyph-name="dingdanguanli" unicode="&#59011;" d="M881.778 839.111l-85.333 0 0-113.772L227.556 725.339 227.556 839.111l-85.333 0c-47.127 0-85.333-38.207-85.333-85.333l0-796.444c0-47.127 38.207-85.333 85.333-85.333l739.556 0c47.127 0 85.333 38.207 85.333 85.333L967.112 753.778C967.111 800.905 928.905 839.111 881.778 839.111zM227.556 327.111l455.111 0 0-56.889L227.556 270.222 227.556 327.111zM796.444 99.556 227.556 99.556l0 56.889 568.889 0L796.445 99.556zM796.444 440.889 227.556 440.889l0 56.889 568.889 0L796.445 440.889zM312.889 782.228l398.222 0c15.707 0 28.444 12.732 28.444 28.439L739.555 867.556C739.556 883.263 726.818 896 711.111 896L312.889 896c-15.707 0-28.444-12.737-28.444-28.444l0-56.889C284.444 794.96 297.182 782.228 312.889 782.228z"  horiz-adv-x="1024" />

    
    <glyph glyph-name="geren" unicode="&#58905;" d="M511.017114 762.21513c73.727165 0 140.500964-29.901007 188.841949-78.238922 48.336892-48.337915 78.235852-115.112738 78.235852-188.840926 0-73.728188-29.898961-140.525524-78.235852-188.841949-12.112875-12.109806-25.369807-23.052019-39.61116-32.656771 56.417941-21.341051 107.073644-54.392818 148.999522-96.196922 76.444043-76.274174 123.739209-181.554986 123.739209-297.729915 0-20.068058-16.285918-36.352953-36.376489-36.352953-20.062941 0-36.348859 16.284895-36.348859 36.352953 0 96.256274-39.048341 183.349865-102.168937 246.302639-63.101153 62.933331-150.297075 101.917204-246.638283 102.041024l-0.436952 0-0.021489 0-0.416486 0c-96.384188-0.12382-183.580109-39.107693-246.659773-102.041024-63.122643-62.953797-102.167914-150.046365-102.167914-246.302639 0-20.068058-16.286941-36.352953-36.373419-36.352953-20.066011 0-36.351929 16.284895-36.351929 36.352953 0 116.174929 47.294143 221.455741 123.757628 297.729915 41.884946 41.804105 92.540649 74.854848 148.960637 96.196922-14.220886 9.603729-27.479865 20.546965-39.590694 32.656771-48.317449 48.316425-78.216409 115.113761-78.216409 188.841949 0 73.728188 29.898961 140.503011 78.216409 188.840926C370.491591 732.314123 437.26846 762.21513 511.017114 762.21513L511.017114 762.21513zM648.428717 632.547909c-35.161824 35.161824-83.751473 56.94085-137.411603 56.94085-53.662177 0-102.272291-21.779026-137.434116-56.94085s-56.941873-83.751473-56.941873-137.412626c0-53.662177 21.780049-102.250802 56.941873-137.435139 35.0554-35.057447 83.500762-56.793494 136.995117-56.919361l0.416486 0 0.021489 0 0.416486 0c53.494355 0.125867 101.935624 21.861914 136.995117 56.919361 35.161824 35.183314 56.939827 83.772962 56.939827 137.435139C705.368544 548.796436 683.590542 597.386084 648.428717 632.547909z"  horiz-adv-x="1024" />

    
    <glyph glyph-name="banxing01" unicode="&#58903;" d="M959.37105 402.967116l-300.258505 58.625212L511.482207 733.718099 363.848799 461.592328l-300.255435-58.625212 209.012338-226.813772-37.942147-308.36002 276.819676 131.971707 276.813536-131.971707-37.939077 308.36002L959.37105 402.967116zM511.940648 47.917728 511.940648 641.995071l119.495558-220.264613 243.036245-47.452755L703.243649 190.689409l32.755008-249.593592L511.940648 47.917728z"  horiz-adv-x="1024" />

    
    <glyph glyph-name="unie615" unicode="&#59081;" d="M1012.064 492l-359.552 31.008-140.512 331.04-140.512-331.552-359.552-30.496 273.024-236.544-82.016-351.552 309.056 186.528 309.056-186.528-81.504 351.552 272.544 236.544zM512 183.968l0 465.056 85.504-202.016 219.04-19.008-166.016-144.032 50.016-214.016-188.512 114.016z"  horiz-adv-x="1024" />

    
    <glyph glyph-name="xiangqing" unicode="&#58918;" d="M527.63663-65.280404c211.094766 0 382.205888 171.123402 382.205888 382.204865 0 211.080439-171.110099 382.203842-382.204865 382.203842-211.095789 0-382.204865-171.123402-382.204865-382.203842S316.541865-65.280404 527.63663-65.280404zM527.637654 651.35423c184.687326 0 334.428745-149.730163 334.428745-334.428745-0.001023-184.698582-149.742443-334.429769-334.429769-334.429769-184.686303 0.001023-334.428745 149.73221-334.428745 334.429769C193.206862 501.62202 342.949304 651.35423 527.637654 651.35423zM551.525714 388.586594l-47.777143 0 0-238.877529 47.77612 0L551.525714 388.586594zM551.525714 484.137811l-47.777143 0 0-47.77612 47.777143 0L551.525714 484.137811z"  horiz-adv-x="1024" />

    
    <glyph glyph-name="daifukuan" unicode="&#58916;" d="M934.8096 184.458667c-47.991467-200.704-228.1472-350.139733-443.562667-350.139733-252.142933 0-456.533333 204.424533-456.533333 456.567467S239.104 747.453867 491.246933 747.453867c151.8592 0 285.969067-74.410667 368.9472-188.484267l33.28 19.319467c-88.951467 125.44-234.8032 207.633067-400.2816 207.633067-271.325867 0-491.178667-219.886933-491.178667-491.178667s219.886933-491.178667 491.178667-491.178667c233.233067 0 428.1344 162.816 478.208 380.8256L934.8096 184.458667 934.8096 184.458667zM683.008 269.143467l0 38.877867-169.096533-1.9456 186.5728 213.742933-34.9184 19.456-176.878933-194.321067L306.005333 539.240533 272.964267 521.764267l192.4096-213.742933-171.008 0 0-38.877867 174.8992 0 0-77.687467L294.331733 191.456l0-38.912 174.8992 0 0-135.9872 38.877867 0L508.1088 152.544l174.8992 0 0 38.912-174.8992 0 0 77.687467L683.008 269.143467zM972.219733 213.540267c-5.2224 13.2096-13.824 7.509333-13.824 7.509333l-44.2368-30.208 0.068267 0.034133-66.833067-44.100267c-3.515733-2.184533-1.604267-10.8544 3.8912-19.3536 5.632-8.4992 12.834133-13.585067 16.2816-11.3664l82.295467 54.203733 34.065067-85.0944c1.4336-3.6864 10.3424-3.652267 19.7632 0.1024s15.872 9.864533 14.370133 13.550933L972.219733 213.540267z"  horiz-adv-x="1024" />

    
    <glyph glyph-name="guanyu" unicode="&#59032;" d="M512 746.656C265.344 746.656 65.344 546.72 65.344 300c0-246.72 200-446.656 446.656-446.656 246.72 0 446.656 199.936 446.656 446.656C958.656 546.72 758.72 746.656 512 746.656zM487.808 26.144c-66.368 4.928-98.816 52.032-93.312 109.312 5.632 58.816 84.8 138.048 70.528 188.032-7.04 24.704-112.192 6.272-117.568 23.552C340.864 368.352 419.52 431.776 512 417.504 530.944 414.624 576.64 371.104 582.592 347.04c13.376-54.912-17.472-121.6-47.04-164.608C514.944 149.344 505.92 148.192 512 111.968c19.136-18.176 30.784-26.496 93.952-23.488C582.592 34.784 507.968 24.416 487.808 26.144zM535.552 441.056c-38.976 0-70.592 31.552-70.592 70.528s31.616 70.528 70.592 70.528 70.464-31.552 70.464-70.528S574.528 441.056 535.552 441.056z"  horiz-adv-x="1024" />

    
    <glyph glyph-name="yijianfankui" unicode="&#59065;" d="M902.520251 480.43433c-10.501168 0-18.998703-8.371668-18.998703-18.696828l0-398.967644c0-38.433334-34.608216-69.64622-74.612325-69.64622l-621.297288-0.065492c-39.697117 0-71.991638 31.279401-71.991638 69.711711l0.194428 642.177851c0 38.273698 33.060977 75.211982 72.938196 75.211982L602.339518 780.159692c10.480702 0 18.964934 8.335852 18.964934 18.61394 0 10.280134-8.484232 18.611893-18.964934 18.611893L188.752922 817.385525c-60.786435 0-110.400413-53.634548-110.400413-112.438838l-0.440022-642.177851c0-59.066257 49.214888-107.10332 109.699448-107.10332l623.363344 0c60.94914 0 110.544699 48.037063 110.544699 107.10332L921.519977 461.737502C921.519977 472.062662 913.021419 480.43433 902.520251 480.43433zM952.087157 785.583215l-44.194548 44.234457c-16.559141 16.622586-37.97387 25.068955-58.560744 25.068955-17.896602 0-35.165918-6.378268-48.093345-19.314904L352.21483 367.241314l-48.370661-177.224354c-2.131547-7.695263 0.093121-15.859199 5.65172-21.60404 4.231371-4.163833 9.858532-6.459109 15.643282-6.459109 1.950422 0 3.919263 0.25992 5.854335 0.798179l176.234817 48.131207 450.599581 467.956901C985.626018 706.660724 983.123011 754.611829 952.087157 785.583215zM347.580277 206.539262l31.967062 117.127627 86.887906-84.666308L347.580277 206.539262zM931.123706 705.673234 500.745678 258.42191l-103.235223 100.599186 430.484452 449.76968c6.792707 6.797823 15.350616 8.223289 21.335934 8.223289 11.360745 0 22.939455-5.078669 31.800263-13.974269l44.23855-44.275389c8.836249-8.818853 13.910824-20.393469 13.920034-31.758308C939.291736 721.00543 937.871387 712.426031 931.123706 705.673234z"  horiz-adv-x="1024" />

    
    <glyph glyph-name="gowild" unicode="&#58889;" d="M512-128c-279.893 0-512 232.107-512 512s232.107 512 512 512c279.893 0 512-232.107 512-512 0-279.893-232.107-512-512-512zM512 827.733c-245.76 0-443.733-197.973-443.733-443.733s197.973-443.733 443.733-443.733c245.76 0 443.733 197.973 443.733 443.733s-197.973 443.733-443.733 443.733zM757.76 349.867h-491.52c-13.653 0-34.133 13.653-34.133 34.133s20.48 34.133 34.133 34.133h484.693c20.48 0 34.133-13.653 34.133-34.133 6.827-20.48-13.653-34.133-27.307-34.133z"  horiz-adv-x="1024" />

    
    <glyph glyph-name="552cd536f34e4" unicode="&#58909;" d="M916.199297 330.877105c12.113899 0 21.941732 9.851369 21.941732 21.965268L938.141028 637.512854c0 17.594727-5.502317 33.876552-14.786775 47.327912-0.384763 0.611937-0.475837 1.313925-0.905626 1.902326-0.725524 0.950651-1.722224 1.471514-2.559289 2.286066-15.285125 19.316951-38.655392 31.930223-65.194838 31.930223L163.658895 720.959382c-46.105061 0-83.446527-37.341466-83.446527-83.446527l0-505.538845c0-46.106084 37.341466-83.422991 83.446527-83.422991l691.036629 0c46.106084 0 83.446527 37.31793 83.446527 83.422991l0 69.532633c-0.067538 12.068873-9.850345 21.851681-21.941732 21.851681-12.092409 0-21.922289-9.782807-21.967314-21.851681l0-0.047072c0-0.044002 0-0.044002 0-0.091074 0 0 0-0.021489 0-0.044002l0-64.958454c0-24.27487-19.700691-43.931558-43.931558-43.931558L407.002133 92.434481c-0.022513 0-0.022513 0-0.045025 0L168.051949 92.434481c-24.230867 0-43.932582 19.656689-43.932582 43.931558L124.119367 633.119801c0 2.400676 0.340761 4.687766 0.703011 6.997368l383.92402-313.157279c0.021489 0 0.066515-0.022513 0.090051-0.047072 3.420913-2.557242 7.314593-3.645017 11.254322-4.074805 1.1328-0.203638 2.242064-0.1361 3.396353-0.157589 1.1328 0.021489 2.242064-0.046049 3.374864 0.157589 3.962242 0.430812 7.857968 1.517563 11.254322 4.074805 0.022513 0.023536 0.067538 0.047072 0.091074 0.047072L893.915781 636.312516c0.067538-1.064238 0.317225-2.105964 0.317225-3.192715l0-280.278451C894.231983 340.728474 904.061862 330.877105 916.199297 330.877105zM168.051949 677.051359l682.248476 0c5.77554 0 11.277858-1.177825 16.350386-3.216251L523.487124 373.948063 155.55124 675.012933C159.537018 676.213271 163.681408 677.051359 168.051949 677.051359z"  horiz-adv-x="1024" />

    
    <glyph glyph-name="8xingxing" unicode="&#58936;" d="M968.078363 541.304675l-293.996894 42.719964L542.601972 850.431152l-131.479497-266.405489-293.996894-42.719964 212.739219-207.367885L279.644001 41.126932l262.958994 138.246621 262.95797-138.246621-50.220798 292.809859L968.078363 541.304675zM542.601972 260.3007l-167.82324-88.230484 32.050973 186.874131-135.771243 132.344191 187.630355 27.26497 83.912132 170.023348 83.911108-170.023348 187.630355-27.26497-135.771243-132.344191 32.050973-186.874131L542.601972 260.3007z"  horiz-adv-x="1024" />

    
    <glyph glyph-name="idukou03" unicode="&#58895;" d="M443.088 323.664c0 0-4.176-19.776 5.984-69.6 10.16-49.808 24.608-70.816 24.608-70.816s-0.672 45.312-9.392 79.504C455.536 296.944 443.088 323.664 443.088 323.664zM822.544 847.888l-608 0c-88.368 0-160-71.648-160-160l0-608c0-88.352 71.632-160 160-160l608 0c88.352 0 160 71.648 160 160l0 608C982.544 776.24 910.912 847.888 822.544 847.888zM444.896 381.968c8.272 0 14.992-6.736 14.992-14.992 0-8.272-6.72-14.992-14.992-14.992-8.256 0-14.992 6.72-14.992 14.992C429.904 375.232 436.64 381.968 444.896 381.968zM330.816 223.504c-27.6 7.936-40.608 31.472-48.416 58.912-7.376 25.904-9.584 54.32 1.744 77.904l-11.632 12.32c-26.048 27.648-52.992 89.184-62.672 155.6-9.664 66.416 25.952 77.344 67.824 43.984 41.888-33.392 159.664-234.704 159.664-234.704s-19.856-47.744-52.336-82.624C361.984 230.144 353.328 218.704 330.816 223.504zM551.008 117.2c-41.68 2.384-73.344 34.944-73.344 34.944s-21.024-14.704-50.416-0.64-46.016 26.144-47.6 59.392 63.04 119.328 63.04 119.328 103.344-103.408 126.576-147.632C592.976 145.92 592.688 114.816 551.008 117.2zM828.384 564.448c-6.752-86.48-75.28-169.392-88.784-184.112-13.504-14.704-25.344-22.272-23.536-23.664 16.144-12.352 31.696-74.416 1.504-119.456-25.344-37.776-67.344-57.664-120.56-38.944-33.6 19.376-49.008 32.176-79.152 60.576-41.312 38.928-70.208 77.584-70.208 77.584s136.928 202.256 226.192 274.416C763.104 682.992 835.136 650.928 828.384 564.448z"  horiz-adv-x="1024" />

    
    <glyph glyph-name="dianhua02" unicode="&#58922;" d="M769.875124-128c-5.9031 0-11.8062 0-17.7093 0L628.200725-98.4845c-29.5155 5.9031-59.031 23.6124-76.740299 47.2248L96.921729 456.406895C79.212429 474.116195 61.503129 509.534795 55.60003 539.050294L37.89073 615.790594C31.98763 633.499894 43.79383 651.209194 67.406229 657.112294 85.115529 657.112294 102.824829 645.306094 102.824829 627.596794l17.7093-76.740299C126.437229 539.050294 138.243429 515.437895 144.146529 503.631695l454.538696-507.666596c11.8062-11.8062 29.5155-23.6124 41.3217-23.6124l123.965099-29.5155c5.9031 0 23.6124 0 29.5155 11.8062l112.158899 112.158899c0 0 0 5.9031 0 5.9031l-100.352699 112.158899c0 0-5.9031 5.9031-11.8062 0l-29.5155-17.7093c-23.6124-17.7093-59.031-29.5155-82.643399-29.5155l-17.7093 0c-29.5155-5.9031-70.837199 11.8062-88.546499 35.4186L321.239527 462.309995C297.627128 485.922395 285.820928 521.340995 291.724028 556.759594l5.9031 17.7093c5.9031 23.6124 23.6124 59.031 41.3217 82.643399l23.6124 23.6124c0 0 0 5.9031 0 11.8062L238.596128 822.399092c0 0-5.9031 0-5.9031 0L132.340329 751.561893C120.534129 739.755693 96.921729 739.755693 85.115529 757.464993 73.309329 769.271193 79.212429 792.883592 91.018629 804.689792l100.352699 76.740299c29.5155 23.6124 76.740299 17.7093 100.352699-11.8062l123.965099-135.771299c23.6124-29.5155 23.6124-70.837199 0-100.352699L386.173627 603.984394C380.270527 598.081294 368.464327 574.468894 362.561227 562.662694L362.561227 539.050294c0-11.8062 5.9031-29.5155 11.8062-35.4186l265.639498-301.058098c5.9031-5.9031 23.6124-11.8062 29.5155-11.8062l17.7093 0c17.7093 0 41.3217 11.8062 53.1279 17.7093l29.5155 17.7093c29.5155 23.6124 76.740299 17.7093 100.352699-11.8062l100.352699-112.158899c23.6124-29.5155 23.6124-70.837199-5.9031-100.352699l-112.158899-112.158899C828.906123-116.1938 799.390623-128 769.875124-128L769.875124-128zM769.875124-128M651.813125 379.666596c0 0-5.9031 0-5.9031 0C628.200725 385.569696 616.394525 403.278996 616.394525 420.988295 628.200725 474.116195 592.782125 527.244095 539.654226 539.050294 516.041826 539.050294 504.235626 556.759594 510.138726 574.468894 516.041826 598.081294 533.751126 609.887494 551.460425 603.984394c88.546499-17.7093 153.480599-106.255799 135.771299-194.802298C681.328624 391.472796 669.522424 379.666596 651.813125 379.666596L651.813125 379.666596zM651.813125 379.666596M781.681324 420.988295c0 0-5.9031 0-5.9031 0C758.068924 426.891395 746.262724 444.600695 746.262724 462.309995c17.7093 88.546499-53.1279 177.092999-147.577499 194.802298C580.975925 657.112294 569.169725 674.821593 575.072825 692.530893c5.9031 17.7093 23.6124 29.5155 41.3217 29.5155 135.771299-23.6124 224.317798-147.577499 200.705398-271.542598C811.196823 432.794495 799.390623 420.988295 781.681324 420.988295L781.681324 420.988295zM781.681324 420.988295M905.646423 462.309995c0 0-5.9031 0-5.9031 0-17.7093 5.9031-29.5155 23.6124-29.5155 41.3217 23.6124 123.965099-70.837199 247.930198-206.608498 271.542598-17.7093 5.9031-29.5155 23.6124-29.5155 41.3217 5.9031 17.7093 23.6124 29.5155 41.3217 29.5155 171.189899-29.5155 289.251898-188.899198 259.736398-348.282897C935.161922 474.116195 923.355722 462.309995 905.646423 462.309995L905.646423 462.309995zM905.646423 462.309995"  horiz-adv-x="1024" />

    
    <glyph glyph-name="shurukuangchakanmima" unicode="&#58897;" d="M998.4 381.44C998.4 381.44 998.4 381.44 998.4 381.44 998.4 381.44 998.4 381.44 998.4 381.44c0-2.56 0-2.56 0-2.56 0 0 0 0 0 0 0 0 0 0 0 0 0-7.68-5.12-15.36-10.24-20.48-10.24-12.8-20.48-23.04-33.28-35.84-61.44-61.44-130.56-115.2-207.36-156.16-48.64-25.6-99.84-46.08-153.6-56.32-58.88-10.24-117.76-10.24-176.64 2.56-102.4 23.04-194.56 76.8-276.48 143.36-38.4 30.72-74.24 64-104.96 102.4-12.8 15.36-12.8 35.84 0 51.2 10.24 12.8 20.48 23.04 33.28 35.84 61.44 61.44 130.56 115.2 207.36 156.16 48.64 25.6 99.84 46.08 153.6 56.32 58.88 10.24 117.76 10.24 176.64-2.56 102.4-23.04 194.56-76.8 276.48-143.36 38.4-30.72 74.24-64 104.96-102.4 5.12-5.12 10.24-12.8 10.24-20.48 0 0 0 0 0 0 0 0 0 0 0 0 0 0 0 0 0 0 0 0 0 0 0 0 0 0 0 0 0 0C998.4 384 998.4 384 998.4 381.44 998.4 384 998.4 384 998.4 381.44zM512 573.44c-99.84 0-181.76-81.92-181.76-181.76s81.92-181.76 181.76-181.76c99.84 0 181.76 81.92 181.76 181.76S611.84 573.44 512 573.44zM512 299.52c-51.2 0-92.16 40.96-92.16 92.16s40.96 92.16 92.16 92.16c51.2 0 92.16-40.96 92.16-92.16S563.2 299.52 512 299.52z"  horiz-adv-x="1024" />

    
    <glyph glyph-name="shangla" unicode="&#59046;" d="M512 489.1 223.8 209.4l-36.1 34.9 324 314.3 0.3-0.3 0.3 0.3 324-314.3-36.1-34.9L512 489.1z"  horiz-adv-x="1024" />

    
    <glyph glyph-name="icoadd2x" unicode="&#58910;" d="M512-128C229.1712-128 0 101.1712 0 384 0 666.760533 229.1712 896 512 896 794.8288 896 1024 666.760533 1024 384 1024 101.1712 794.8288-128 512-128L512-128ZM512 827.733333C266.922667 827.733333 68.266667 629.009067 68.266667 384 68.266667 138.922667 266.922667-59.8016 512-59.8016 757.077333-59.8016 955.665067 138.922667 955.665067 384 955.665067 629.009067 757.077333 827.733333 512 827.733333L512 827.733333ZM715.229867 350.685867 545.3824 350.685867 545.3824 180.770133C545.3824 161.1776 530.432 145.2032 512.068267 145.2032 493.704533 145.2032 478.754133 161.109333 478.754133 180.770133L478.754133 350.685867 308.8384 350.685867C289.245867 350.685867 273.271467 365.568 273.271467 384 273.271467 402.432 289.1776 417.314133 308.8384 417.314133L478.754133 417.314133 478.754133 587.1616C478.754133 606.754133 493.704533 622.728533 512.068267 622.728533 530.432 622.728533 545.3824 606.8224 545.3824 587.1616L545.3824 417.314133 715.229867 417.314133C734.890667 417.314133 750.7968 402.363733 750.7968 384 750.7968 365.499733 734.890667 350.685867 715.229867 350.685867L715.229867 350.685867Z"  horiz-adv-x="1024" />

    
    <glyph glyph-name="koubei" unicode="&#59102;" d="M910.216818 782.221483C910.216818 844.901689 859.274069 896 796.43301 896L170.667292 896C107.856839 896 56.883484 845.059641 56.883484 782.221483L56.883484-14.221483C56.883484-76.901689 107.826233-128 170.667292-128L426.792789-128C442.429582-128 455.105707-115.374507 455.105707-99.555556L455.105707-99.555556C455.105707-83.846116 442.144853-71.111111 426.792789-71.111111L170.667292-71.111111C139.311218-71.111111 113.772373-45.548971 113.772373-14.221483L113.772373 782.221483C113.772373 813.627221 139.26218 839.111111 170.667292 839.111111L796.43301 839.111111C827.789084 839.111111 853.327929 813.548971 853.327929 782.221483L853.327929 412.639118C853.327929 396.822158 865.953422 384 881.772373 384L881.772373 384C897.481813 384 910.216818 396.798521 910.216818 412.639118L910.216818 782.221483 910.216818 782.221483 910.216818 782.221483 910.216818 782.221483ZM953.310407 184.018176C971.768178 202.529195 971.656391 232.2401 953.261056 250.678044L890.812672 313.271211C872.438955 331.687509 842.524558 331.751936 824.140686 313.299172L535.485326 23.562268C521.813504 9.839218 511.994596-14.117461 511.994596-33.501952L511.994596-82.11419C511.994596-108.185031 533.064277-129.413291 559.135659-127.835733L607.407246-127.835733C626.685184-129.413291 650.719175-119.445732 664.328533-105.797148L953.310407 184.018176 953.310407 184.018176 953.310407 184.018176ZM636.880583-63.393621C632.367616-67.921237 620.987591-72.642532 614.586965-72.642532L568.938183-72.642532C568.952519-72.642532 568.883484-72.572956 568.883484-72.422229L568.883484-26.434702C568.883484-19.829106 573.535004-8.475961 578.121301-3.870834L851.092622 270.222222C851.048164 270.177593 851.063353 270.177564 851.06762 270.173298L910.122894 210.959758C910.240939 210.841401 910.24091 210.854087 910.160697 210.773618L636.880583-63.393621 636.880583-63.393621 636.880583-63.393621 636.880583-63.393621 636.880583-63.393621 636.880583-63.393621ZM247.369614 99.555556 406.841799 99.555556C417.78779 99.555556 426.661262 86.930062 426.661262 71.111111 426.661262 55.401671 417.58848 42.666667 406.841799 42.666667L247.369614 42.666667C236.423623 42.666667 227.550151 55.29216 227.550151 71.111111 227.550151 86.820551 236.622933 99.555556 247.369614 99.555556L247.369614 99.555556 247.369614 99.555556 247.369614 99.555556ZM227.550151 241.777778C227.550151 257.487218 237.765575 270.222222 250.476004 270.222222L545.957632 270.222222C558.619221 270.222222 568.883484 257.596729 568.883484 241.777778 568.883484 226.068338 558.66806 213.333333 545.957632 213.333333L250.476004 213.333333C237.814414 213.333333 227.550151 225.958827 227.550151 241.777778L227.550151 241.777778 227.550151 241.777778 227.550151 241.777778 227.550151 241.777778ZM635.494315 622.769323 543.429433 635.143481 492.182329 714.493724C482.44645 729.669348 466.751972 729.609756 457.128192 714.373547L406.058126 634.088306 318.254421 621.667783C300.397796 619.197383 293.86314 604.927801 303.66262 589.796096L360.8799 500.803726 351.650617 407.984896C349.80955 390.050674 362.122439 380.310016 379.145557 386.244352L477.570503 420.161308 576.228238 386.922553C593.297095 381.116615 605.543538 390.935012 603.583175 408.851428L593.712754 501.616327 650.306873 591.002254C660.005774 606.199723 653.365845 620.422571 635.494315 622.769323L635.494315 622.769323 635.494315 622.769323 635.494315 622.769323 635.494315 622.769323Z"  horiz-adv-x="1024" />

    
    <glyph glyph-name="jinxingzhongdedingdan" unicode="&#58902;" d="M515.584 843.776c-252.928 0-458.24-205.312-458.24-458.24s205.312-458.24 458.24-458.24 458.24 205.312 458.24 458.24C973.824 638.976 768.512 843.776 515.584 843.776M675.328 201.728l-13.312-13.312c-11.264-11.264-29.184-11.264-40.448 0L481.28 328.704c-12.288 3.072-21.504 14.336-21.504 27.648L459.776 642.56c0 15.872 12.8 28.672 28.672 28.672l18.944 0c15.872 0 28.672-12.8 28.672-28.672l0-261.12 139.264-139.264C686.08 230.912 686.08 212.992 675.328 201.728"  horiz-adv-x="1024" />

    
    <glyph glyph-name="beizhu" unicode="&#58885;" d="M157.437172 895.87403l669.899364 0c54.491028 0 62.498883-36.943192 62.498883-36.943192l0-269.240424L469.950393 137.750822l-99.36395-237.18441L155.838495-99.433588c-62.50467 0-58.866051 48.076064-58.866051 48.076064L96.972444 852.52166C108.620364 900.599171 157.437172 895.87403 157.437172 895.87403L157.437172 895.87403 157.437172 895.87403zM790.477256 768.055069c0 19.210171-21.198028 34.780276-47.342553 34.780276L243.249256 802.835345c-26.148865 0-47.34834-15.570105-47.34834-34.780276l0-8.956934c0-19.214511 21.199475-34.790403 47.34834-34.790403l499.885447 0c26.144524 0 47.342553 15.575892 47.342553 34.790403L790.477256 768.055069 790.477256 768.055069 790.477256 768.055069zM790.669676 597.377087c0 19.208724-21.193688 34.784616-47.342553 34.784616L243.441676 632.161703c-26.144524 0-47.342553-15.575892-47.342553-34.784616l0-8.962721c0-19.210171 21.198028-34.780276 47.342553-34.780276l499.885447 0c26.148865 0 47.34834 15.570105 47.34834 34.780276l0 8.962721L790.669676 597.377087 790.669676 597.377087zM591.750804 427.687246c0 19.214511-14.105977 34.784616-31.501902 34.784616L227.599579 462.471862c-17.400265 0-31.500455-15.570105-31.500455-34.784616l0-8.964168c0-19.208724 14.105977-34.784616 31.500455-34.784616l332.649322 0c17.395925 0 31.501902 15.575892 31.501902 34.784616L591.750804 427.687246 591.750804 427.687246 591.750804 427.687246zM598.164321-99.433588 841.757908-99.433588c0 0 49.687762 1.598677 48.07751 81.730755-1.600124 80.132077 0 241.99491 0 241.99491L598.164321-99.433588 598.164321-99.433588 598.164321-99.433588zM545.273418 134.54768l112.180857-96.159361 463.383518 509.635209-105.993035 89.750184L545.273418 134.54768 545.273418 134.54768zM502.00496 84.865705l106.903052-88.145719c0 0-137.351708-124.709859-196.647448-124.709859C412.260564-127.989873 385.01505-109.051694 502.00496 84.865705L502.00496 84.865705 502.00496 84.865705zM502.00496 84.865705"  horiz-adv-x="1219" />

    
    <glyph glyph-name="dingdanguanli1" unicode="&#58966;" d="M832.551596 879.566307l-91.831085 0 0-0.780736-10.084175 0c-16.657048 0-30.159963-13.252394-30.159963-29.598557 0-16.347169 13.502914-29.598557 30.159963-29.598557l10.084175 0 0-0.38735 91.831085 0c32.579641 0 59.08443-23.928158 59.08443-53.33958l0-779.625525c0-29.410416-26.504789-53.338573-59.08443-53.338573L192.253287-67.102571c-32.578635 0-59.08443 23.927152-59.08443 53.338573L133.168856 765.861527c0 29.411422 26.504789 53.33958 59.08443 53.33958l79.623026 0 0 0.38735 21.152319 0c16.657048 0 30.159963 13.252394 30.159963 29.598557 0 16.347169-13.502914 29.598557-30.159963 29.598557l-21.152319 0 0 0.780736-79.623026 0c-65.864561 0-119.450636-51.008438-119.450636-113.705785l0-779.625525c0-62.696341 53.585069-113.704779 119.450636-113.704779l640.299316 0c65.865567 0 119.450636 51.007432 119.450636 113.704779L952.003238 765.861527C952.002232 828.557869 898.417163 879.566307 832.551596 879.566307zM637.42689 848.683962c0-16.624853-13.502914-30.101609-30.159963-30.101609L416.060995 818.582353c-16.657048 0-30.159963 13.476755-30.159963 30.101609l0 0c0 16.624853 13.502914 30.101609 30.159963 30.101609l191.205933 0C623.923976 878.78557 637.42689 865.308815 637.42689 848.683962L637.42689 848.683962zM671.634407 469.641536c0-17.324095-13.502914-31.367287-30.159963-31.367287L385.877892 438.27425c-16.657048 0-30.159963 14.044198-30.159963 31.367287l0 0c0 17.324095 13.502914 31.367287 30.159963 31.367287l255.596553 0C658.131493 501.009829 671.634407 486.965631 671.634407 469.641536L671.634407 469.641536zM671.634407 219.121782c0-17.324095-13.502914-31.367287-30.159963-31.367287L385.877892 187.754495c-16.657048 0-30.159963 14.044198-30.159963 31.367287l0 0c0 17.324095 13.502914 31.367287 30.159963 31.367287l255.596553 0C658.131493 250.490075 671.634407 236.445877 671.634407 219.121782L671.634407 219.121782z"  horiz-adv-x="1024" />

    
    <glyph glyph-name="gouwuche" unicode="&#59003;" d="M346.185296 52.751515c-36.589899 0-66.19798-29.608081-66.19798-66.19798 0-36.589899 29.608081-66.19798 66.19798-66.19798 36.589899 0 66.19798 29.608081 66.19798 66.19798C412.383276 23.014141 382.775195 52.751515 346.185296 52.751515L346.185296 52.751515 346.185296 52.751515zM809.571155 52.751515c-36.589899 0-66.19798-29.608081-66.19798-66.19798 0-36.589899 29.608081-66.19798 66.19798-66.19798 36.589899 0 66.19798 29.608081 66.19798 66.19798C875.769135 23.014141 846.161054 52.751515 809.571155 52.751515L809.571155 52.751515 809.571155 52.751515zM950.500448 718.092929c-16.937374 19.135354-40.210101 29.478788-65.422222 29.478788L221.934791 747.571717l-2.327273 13.446465C213.789337 809.244444 171.381256 846.868687 123.0257 846.868687l-41.632323 0C63.033781 846.868687 48.294387 832.129293 48.294387 813.769697c0-18.359596 14.739394-33.09899 33.09899-33.09899L123.0257 780.670707c14.351515 0 29.090909-13.058586 31.030303-29.220202l31.935354-184.630303L242.233781 171.571717c5.818182-48.09697 47.709091-85.979798 95.418182-85.979798L875.769135 85.591919c18.359596 0 33.09899 14.739394 33.09899 33.09899s-14.739394 33.09899-33.09899 33.09899L337.651963 151.789899c-14.092929 0-27.927273 13.058586-29.866667 28.444444l-5.559596 38.658586 525.187879 32.452525c47.709091 0 89.6 37.753535 95.288889 84.169697l52.105051 298.278788C978.686306 665.6 969.894387 696.242424 950.500448 718.092929L950.500448 718.092929zM950.500448 718.092929"  horiz-adv-x="1024" />

    
    <glyph glyph-name="gerenkuang" unicode="&#58886;" d="M512 597.062584m-229.14691 0a223.928 223.928 0 1 0 458.293821 0 223.928 223.928 0 1 0-458.293821 0ZM285.788955 417.147958c39.482223-10.724249 68.347644-45.724391 104.106056-64.380286 38.051641-19.85214 80.602759-31.138184 123.525338-32.342616 56.624648-1.588171 117.853152 14.060227 164.478052 47.060829 41.297568 29.228695 76.314083 73.54604 131.801838 46.630017 68.417229-33.187867 97.489358-107.909685 108.034529-178.904623 10.348696-69.670779 17.534352-170.778548-15.940041-234.923474-31.80231-60.937884-104.506169-53.336766-162.131611-53.336766-62.841234 0-125.682467 0-188.523701 0-79.084173 0-158.167323-0.031722-237.251495-0.024559-63.003939 0.005117-147.157571-19.266809-182.988638 46.950312-18.504446 34.138518-24.74559 73.721025-28.996404 111.791086-11.031241 98.79305 7.272637 228.087788 93.856621 289.86069 20.139689 14.368242 44.066635 24.467251 68.806085 24.480554C272.003997 420.013215 279.047414 418.978652 285.788955 417.147958z"  horiz-adv-x="1024" />

    
    <glyph glyph-name="xiadan" unicode="&#59078;" d="M918.587077 63.684923 783.163077-88.930462C775.364923-101.435077 762.899692-108.386462 748.268308-108.386462 733.636923-108.386462 721.171692-101.435077 713.353846-88.930462L577.929846 63.684923C569.678769 76.937846 569.225846 92.416 576.689231 106.121846 584.172308 119.847385 597.366154 127.724308 612.844308 127.724308L669.774769 127.724308 669.774769 265.570462C669.774769 287.330462 687.340308 304.955077 709.021538 304.955077L787.515077 304.955077C809.196308 304.955077 826.761846 287.330462 826.761846 265.570462L826.761846 127.724308 883.692308 127.724308C899.170462 127.724308 912.364308 119.847385 919.827692 106.121846 927.310769 92.416 926.857846 76.937846 918.587077 63.684923ZM787.692308 88.615385 787.692308 265.846154 708.923077 265.846154 708.923077 88.615385 610.461538 88.615385 748.307692-68.923077 886.153846 88.615385 787.692308 88.615385ZM827.076923 777.846154 708.923077 777.846154 708.923077 817.230769 827.076923 817.230769C848.836923 817.230769 866.461538 799.606154 866.461538 777.846154L866.461538 443.076923 827.076923 443.076923 827.076923 777.846154ZM689.230769 580.923077 256 580.923077C245.129846 580.923077 236.307692 589.745231 236.307692 600.615385 236.307692 611.485538 245.129846 620.307692 256 620.307692L689.230769 620.307692C700.100923 620.307692 708.923077 611.485538 708.923077 600.615385 708.923077 589.745231 700.100923 580.923077 689.230769 580.923077ZM649.846154 718.769231C638.976 718.769231 630.153846 727.591385 630.153846 738.461538L630.153846 856.615385C630.153846 867.485538 638.976 876.307692 649.846154 876.307692 660.716308 876.307692 669.538462 867.485538 669.538462 856.615385L669.538462 738.461538C669.538462 727.591385 660.716308 718.769231 649.846154 718.769231ZM374.153846 817.230769 590.769231 817.230769 590.769231 777.846154 374.153846 777.846154 374.153846 817.230769ZM315.076923 718.769231C304.206769 718.769231 295.384615 727.591385 295.384615 738.461538L295.384615 856.615385C295.384615 867.485538 304.206769 876.307692 315.076923 876.307692 325.947077 876.307692 334.769231 867.485538 334.769231 856.615385L334.769231 738.461538C334.769231 727.591385 325.947077 718.769231 315.076923 718.769231ZM137.846154-9.846154 354.461538-9.846154 354.461538-49.230769 137.846154-49.230769C116.086154-49.230769 98.461538-31.586462 98.461538-9.846154L98.461538 777.846154C98.461538 799.606154 116.086154 817.230769 137.846154 817.230769L256 817.230769 256 777.846154 137.846154 777.846154 137.846154-9.846154ZM236.307692 443.076923C236.307692 453.947077 245.129846 462.769231 256 462.769231L590.769231 462.769231C601.639385 462.769231 610.461538 453.947077 610.461538 443.076923 610.461538 432.206769 601.639385 423.384615 590.769231 423.384615L256 423.384615C245.129846 423.384615 236.307692 432.206769 236.307692 443.076923ZM236.307692 285.538462C236.307692 296.408615 245.129846 305.230769 256 305.230769L433.230769 305.230769C444.100923 305.230769 452.923077 296.408615 452.923077 285.538462 452.923077 274.648615 444.100923 265.846154 433.230769 265.846154L256 265.846154C245.129846 265.846154 236.307692 274.648615 236.307692 285.538462Z"  horiz-adv-x="1024" />

    
    <glyph glyph-name="guanli1" unicode="&#59041;" d="M917.118017-21.169182 106.881983-21.169182c-22.409913 0-40.522035 18.112122-40.522035 40.522035L66.359948 627.081043c0 22.409913 18.112122 40.522035 40.522035 40.522035l202.610173 0 0 101.305086c0 11.153792 9.107225 20.261017 20.261017 20.261017l364.595983 0c11.153792 0 20.261017-9.107225 20.261017-20.261017l0-101.305086 202.610173 0c22.409913 0 40.522035-18.112122 40.522035-40.522035l0-607.72819C957.640052-2.954732 939.52793-21.169182 917.118017-21.169182zM674.088138 748.647147 350.01419 748.647147l0-81.044069 324.073948 0L674.088138 748.647147zM734.87119 464.992905 289.231138 464.992905c-11.153792 0-20.261017-9.107225-20.261017-20.261017s9.107225-20.261017 20.261017-20.261017l445.640052 0c11.153792 0 20.261017 9.107225 20.261017 20.261017S746.024983 464.992905 734.87119 464.992905z"  horiz-adv-x="1024" />

    
    <glyph glyph-name="kehuguanli" unicode="&#58888;" d="M406.528 748.032c-103.424 0-186.368-86.016-186.368-191.488s83.456-191.488 186.368-191.488c103.424 0 186.368 86.016 186.368 191.488s-82.944 191.488-186.368 191.488z m0-319.488c-67.584 0-122.88 56.832-122.88 128 0 70.656 55.296 128 122.88 128s122.88-56.832 122.88-128-55.296-128-122.88-128z m-355.328-374.272c-1.536-18.432 13.312-34.304 31.744-34.304h647.168c18.432 0 33.28 15.872 31.744 34.304-12.288 160.768-120.32 287.232-254.464 287.232h-201.728c-134.144 0-242.176-126.464-254.464-287.232z m456.192 223.744c97.28 0 181.248-97.792 190.976-228.352l31.744 34.304h-647.168l31.744-34.304c9.728 130.56 93.696 228.352 190.976 228.352h201.728z m433.664 326.144c17.408 0 31.744 14.336 31.744 31.744 0 17.408-14.336 31.744-31.744 31.744h-231.936c-17.408 0-31.744-14.336-31.744-31.744 0-17.408 14.336-31.744 31.744-31.744h231.936z m0-174.592c17.408 0 31.744 14.336 31.744 31.744s-14.336 31.744-31.744 31.744h-246.272c-17.408 0-31.744-14.336-31.744-31.744s14.336-31.744 31.744-31.744h246.272z m0-174.592c17.408 0 31.744 14.336 31.744 31.744s-14.336 31.744-31.744 31.744h-189.952c-17.408 0-31.744-14.336-31.744-31.744s14.336-31.744 31.744-31.744h189.952z"  horiz-adv-x="1024" />

    
    <glyph glyph-name="xiayi" unicode="&#58990;" d="M628.364 384c-62.836 58.182-125.673 114.036-186.182 169.891-32.582 27.927-62.836 58.182-95.418 86.109-13.964 13.964-16.291 25.6-6.982 37.236 9.309 11.636 23.273 11.636 39.564-2.327 95.418-86.109 188.509-172.218 283.927-258.327 4.655-4.655 11.636-9.309 16.291-13.964 11.636-9.309 11.636-27.927 0-39.564l-223.418-202.473c-25.6-23.273-53.527-48.873-79.127-72.145-13.964-11.636-30.255-11.636-37.236 2.327-6.982 11.636-4.655 23.273 9.309 34.909 67.491 62.836 134.982 123.345 202.473 186.182 25.6 25.6 51.2 46.545 76.8 72.145z"  horiz-adv-x="1024" />

    
    <glyph glyph-name="dui" unicode="&#58960;" d="M942.958 604.043L381.854 42.95 299.35 125.47 84.813 340.004l82.528 82.517 214.513-214.535L860.43 686.56l82.528-82.517z"  horiz-adv-x="1024" />

    
    <glyph glyph-name="lishirenwu" unicode="&#58919;" d="M695.91 594.31c-180.91 0-328.09-147.179-328.09-328.09S515-61.87 695.91-61.87 1024 85.31 1024 266.22 876.821 594.31 695.91 594.31z m0-577.438c-137.49 0-249.348 111.858-249.348 249.348S558.42 515.57 695.91 515.57 945.26 403.71 945.26 266.22 833.4 16.872 695.91 16.872zM39.371 121.195C17.622 121.195 0 103.56 0 81.824c0-21.737 17.622-39.372 39.371-39.372H343.75c-15.674 24.615-28.715 50.981-39.014 78.742H39.371z m0 629.932h841.064c21.75 0 39.371 17.635 39.371 39.371s-17.622 39.371-39.37 39.371H39.37C17.622 829.87 0 812.234 0 790.5c0-21.736 17.622-39.372 39.371-39.372z m0-472.45h239.594c0.798 26.965 3.99 53.294 9.668 78.742H39.371C17.622 357.419 0 339.784 0 318.048s17.622-39.37 39.371-39.37z m397.892 314.967H39.371C17.622 593.644 0 576.01 0 554.274s17.622-39.372 39.371-39.372h321.663c21.917 29.462 47.452 55.978 76.23 78.742zM811.395 304.72h-76.114V409.71c0 21.735-17.623 39.37-39.371 39.37s-39.372-17.635-39.372-39.37v-144.36c0-21.737 17.623-39.372 39.372-39.372h115.485c21.748 0 39.37 17.635 39.37 39.371s-17.62 39.371-39.37 39.371z"  horiz-adv-x="1024" />

    
    <glyph glyph-name="xiadan1" unicode="&#58924;" d="M193.024-46.592c-64 0-116.224 52.224-116.224 116.224V721.92c0 64 52.224 116.224 116.224 116.224H844.8c64 0 116.224-52.224 116.224-116.224v-67.584l-49.664 49.664c-1.536 47.104-39.936 84.992-87.04 84.992H213.504c-48.128 0-87.04-38.912-87.04-87.04v-611.328c0-48.128 38.912-87.04 87.04-87.04H824.32c48.128 0 87.04 38.912 87.04 87.04V425.472l49.664 39.424v-395.264c0-64-52.224-116.224-116.224-116.224H193.024z m30.208 244.224c-13.824 0-24.576 11.264-24.576 24.576 0 13.824 11.264 24.576 24.576 24.576h224.256c13.824 0 24.576-11.264 24.576-24.576 0-13.824-11.264-24.576-24.576-24.576H223.232z m419.84 150.016l201.216 207.872 57.344-57.344-206.848-202.752-66.56-14.848 14.848 67.072z m-419.84 33.792c-13.824 0-24.576 11.264-24.576 24.576 0 13.824 11.264 24.576 24.576 24.576h264.704c13.824 0 24.576-11.264 24.576-24.576 0-13.824-11.264-24.576-24.576-24.576H223.232z m640.512 194.048l34.304 34.304c3.072 3.072 6.656 4.608 10.752 4.608s8.192-1.536 11.264-4.608l36.352-36.352c6.144-6.144 6.144-15.872 0-22.016l-33.792-33.792-58.88 57.856zM223.232 564.736c-13.824 0-24.576 11.264-24.576 24.576s11.264 24.576 24.576 24.576h346.112c13.824 0 24.576-11.264 24.576-24.576s-11.264-24.576-24.576-24.576H223.232z"  horiz-adv-x="1024" />

    
    <glyph glyph-name="mimayincang1" unicode="&#58946;" d="M920.405333 501.077333c10.24 15.701333 6.144 36.864-9.557333 47.104-15.701333 10.24-36.864 6.144-47.104-9.557333-88.746667-133.802667-215.722667-210.944-346.794667-210.944s-258.730667 77.141333-347.477333 210.944c-10.24 15.701333-31.402667 19.797333-47.104 9.557333-15.701333-10.24-19.797333-31.402667-9.557333-47.104 38.912-58.709333 84.650667-107.861333 134.485333-146.090666l-70.314667-69.632c-13.653333-13.653333-13.653333-34.816 0-48.469334 6.826667-6.826667 15.701333-10.24 23.893334-10.24 8.192 0 17.749333 3.413333 23.893333 10.24l79.872 79.872c55.978667-31.402667 116.053333-50.517333 177.493333-55.296v-98.304c0-19.114667 15.018667-34.133333 34.133334-34.133333 19.114667 0 34.133333 15.018667 34.133333 34.133333v98.304a435.157333 435.157333 0 0 1 176.810667 55.296l79.872-79.872c6.826667-6.826667 15.701333-10.24 23.893333-10.24 8.192 0 17.749333 3.413333 23.893333 10.24 13.653333 13.653333 13.653333 34.816 0 48.469334l-69.632 69.632c50.517333 38.229333 96.256 87.381333 135.168 146.090666z"  horiz-adv-x="1024" />

    
    <glyph glyph-name="banbengengxin" unicode="&#58976;" d="M511.707-62.89c-60.402 0-119.008 11.834-174.19 35.175-53.292 22.54-101.146 54.803-142.236 95.893-41.091 41.09-73.354 88.946-95.894 142.235-23.341 55.183-35.176 113.79-35.176 174.193s11.835 119.01 35.176 174.192c22.54 53.29 54.803 101.145 95.894 142.236 41.09 41.09 88.945 73.354 142.235 95.894 55.182 23.34 113.789 35.174 174.191 35.174 60.403 0 119.01-11.835 174.193-35.175 53.29-22.54 101.145-54.804 142.235-95.893 41.091-41.091 73.355-88.946 95.894-142.236 23.34-55.183 35.175-113.79 35.175-174.192s-11.834-119.01-35.175-174.193c-22.54-53.29-54.803-101.144-95.894-142.235-41.09-41.09-88.946-73.354-142.235-95.893-55.184-23.34-113.79-35.175-174.193-35.175z m0 854.06c-54.895 0-108.136-10.747-158.246-31.942-48.411-20.476-91.893-49.794-129.237-87.138-37.345-37.345-66.662-80.826-87.139-129.237-21.195-50.11-31.941-103.352-31.941-158.247 0-54.895 10.746-108.137 31.941-158.247 20.477-48.41 49.794-91.893 87.139-129.238s80.826-66.662 129.237-87.137c50.11-21.195 103.352-31.942 158.246-31.942s108.137 10.747 158.247 31.942c48.412 20.476 91.893 49.793 129.238 87.137s66.663 80.827 87.139 129.238c21.194 50.11 31.941 103.352 31.941 158.247 0 54.895-10.747 108.137-31.941 158.247-20.477 48.41-49.795 91.892-87.14 129.236s-80.825 66.663-129.237 87.139c-50.11 21.195-103.352 31.941-158.247 31.941zM536.38 147.838V539.374l188.128-188.446 28.044 28.021L511.7 620.162 270.85 378.949l28.042-28.021L487.51 539.864v-392.026z"  horiz-adv-x="1024" />

    
    <glyph glyph-name="sousuo_sousuo" unicode="&#58892;" d="M873.244444 65.551515c6.852525-8.016162 10.214141-16.808081 10.214142-26.50505 0-10.860606-3.878788-20.169697-11.507071-27.79798-6.852525-7.111111-16.549495-11.636364-27.280808-11.636364h-0.646465c-4.525253 0-8.921212 0.775758-13.187878 2.19798-6.464646 2.19798-11.894949 5.818182-16.032324 10.731313l0.129293-0.90505-211.652525 213.20404c-50.812121-35.943434-107.70101-53.915152-170.537374-53.915151-6.335354 0-12.670707 0.258586-19.264646 0.775757-12.929293 1.163636-24.824242 3.232323-36.20202 6.335354-35.555556 2.456566-82.618182 22.49697-121.276768 52.622222-23.40202 13.834343-55.466667 47.709091-79.385859 89.987879-19.523232 32.711111-32.711111 71.369697-36.848484 112.743434 2.19798-25.341414-2.456566 3.232323-2.715152 32.969697 0.258586-10.214141 0-3.878788 0 2.456566 0 17.842424 1.551515 35.29697 4.654546 52.234343 7.49899 46.674747 26.505051 89.6 54.044444 125.672727 13.705051 25.6 57.276768 64.646465 109.381818 88.565657-27.151515-11.119192 1.034343 4.266667 32.064647 15.127273 28.444444 10.343434 61.284848 16.290909 95.547474 16.290909 13.705051 0 26.892929-0.905051 39.434344-2.585859 33.745455-4.525253 65.939394-14.868687 96.840404-30.771717 49.907071-25.987879 90.117172-64.646465 117.268687-111.838384-9.826263 22.238384 10.60202-10.860606 24.565656-49.131313s20.169697-77.058586 18.488889-116.363636c-2.327273-65.680808-24.824242-124.767677-67.749495-177.260606L874.020202 65.551515h-0.775758zM684.735354 456.791919c0.258586 3.878788 0.387879 8.274747 0.387878 12.8 0 32.452525-6.464646 63.353535-18.10101 91.539394-13.705051 36.20202-35.814141 68.137374-63.870707 93.608081 21.850505-20.945455 7.111111-5.171717-9.69697 8.791919-31.288889 26.246465-69.559596 45.252525-111.70909 53.785859 26.634343-4.525253-9.438384 4.008081-47.321213 4.008081-10.214141 0-20.29899-0.646465-30.125252-1.810101-1.680808 0.129293-4.525253-0.258586-7.111111-0.905051l-4.525253-0.775758c-46.157576-7.369697-87.014141-26.763636-120.113131-54.949495-24.824242-15.515152-57.535354-57.923232-74.60202-107.70101-2.068687 7.111111-13.705051-31.806061-15.773738-74.60202-1.939394-42.79596 5.818182-82.488889 23.531314-118.949495 21.591919-47.450505 56.630303-85.591919 100.331313-110.416161-0.129293-5.688889 44.606061-26.505051 93.995959-32.711111 1.551515-3.10303 38.4-5.171717 75.507071 1.163636 32.064646 5.818182 60.638384 16.937374 86.238384 32.452525 8.921212 1.680808 41.244444 26.505051 66.585858 57.147475-9.826263-16.420202 18.230303 18.230303 36.202021 58.440404-25.858586-46.028283-15.127273-29.608081-6.59394-12.024243 16.420202 31.547475 26.246465 68.783838 26.763637 108.218182v-7.111111z"  horiz-adv-x="1024" />

    
    <glyph glyph-name="caigoudingdanmingxi" unicode="&#58904;" d="M376.950188 764.725164c0 17.076934 11.386328 28.464285 22.770609 28.464286h227.005131c11.384281 0 22.769586-11.386328 22.769586-28.464286v-69.968561c0-17.080004-11.385305-28.466332-22.769586-28.466332H399.720797c-11.384281 0-22.77061 11.386328-22.770609 28.466332v69.968561z m-38.321794 2.445702v-74.859965c0-45.543266 22.343891-64.341401 67.884087-64.3414h218.902592c39.847543 0 63.158459 18.798135 63.158458 64.3414v74.859965c0 45.542242-19.980054 64.341401-65.522296 64.341401H406.512481c-45.541219 0-67.884087-18.799158-67.884087-64.341401zM741.843782 728.959589h60.816111c45.542242 0 56.07104-10.529821 56.071039-56.072063v-638.592186c0-45.543266-34.155914-56.07104-79.698156-56.07104H220.996277c-45.543266 0-56.072063 10.529821-56.072064 56.07104v638.594233c0 45.542242 10.529821 56.072063 56.072064 56.072063h71.233367v43.047422h-73.27998c-74.005504 0-97.072873-23.067368-97.072872-97.071849v-642.687458c0-74.005504 23.067368-97.071849 97.072872-97.07185h562.130747c74.005504 0 120.699989 23.067368 120.69999 97.07185V674.936185c0 74.005504-23.067368 97.071849-97.072873 97.07185h-62.862723l-0.001023-43.048446zM298.351062 487.371322h159.397337v43.047422H298.351062v-43.047422z m0-159.39529h159.397337v43.047422H298.351062v-43.047422z m0-153.703661h159.397337v43.049469H298.351062v-43.049469zM567.749722 487.371322h159.397336v43.047422H567.749722v-43.047422z m0-159.39529h159.397336v43.047422H567.749722v-43.047422z m0-153.703661h159.397336v43.049469H567.749722v-43.049469z"  horiz-adv-x="1024" />

    
    <glyph glyph-name="yincangmima" unicode="&#59006;" d="M662.54 353.52l52.09 52.09c0.77-7.2 2.18-14.21 2.18-21.61 0-112.93-91.87-204.8-204.8-204.8-7.4 0-14.41 1.42-21.61 2.18l52.09 52.09a153.69 153.69 0 0 1 120.05 120.05zM191.32 244.31A1018.48 1018.48 0 0 0 67.16 347.16a50.53 50.53 0 0 0 0 73.68C151.54 502.7 321.55 640 512.01 640a419 419 0 0 0 69.13-5.91l43.43 43.43A484 484 0 0 1 512.01 691.24c-206.75 0-386.81-142.76-480.51-233.65-42-40.73-42-106.43 0-147.17A1076.74 1076.74 0 0 1 154.61 207.6z m801.2 213.28a1076.41 1076.41 0 0 1-123.1 102.82L832.71 523.7a1018.19 1018.19 0 0 0 124.16-102.86 50.53 50.53 0 0 0 0-73.68C872.48 265.3 702.47 128 512.01 128a418.94 418.94 0 0 0-69.13 5.91l-43.44-43.44A484 484 0 0 1 512.01 76.76c206.75 0 386.81 142.76 480.51 233.65 41.99 40.74 41.99 106.44 0 147.18zM307.21 384c0-7.4 1.42-14.42 2.19-21.62l52.08 52.08a153.71 153.71 0 0 0 120.06 120.07l52.08 52.08c-7.2 0.77-14.21 2.19-21.62 2.19-112.91 0-204.79-91.87-204.79-204.8z m555.7 350.9a25.59 25.59 0 0 1-36.2 0L161.11 69.3a25.6 25.6 0 1 1 36.2-36.2l665.6 665.6a25.59 25.59 0 0 1 0 36.2z"  horiz-adv-x="1024" />

    
    <glyph glyph-name="weibiaoti-" unicode="&#58890;" d="M539.306667 704.853333c68.266667-34.133333 109.226667-68.266667 109.226666-109.226666L457.386667 315.733333l559.786666-218.453333v-27.306667c0-40.96-68.266667-68.266667-211.626666-81.92-54.613333 75.093333-184.32 163.84-375.466667 279.893334-20.48 0-81.92-68.266667-184.32-211.626667l-54.613333-47.786667h-27.306667l-88.746667 61.44v34.133334c184.32 204.8 279.893333 320.853333 279.893334 354.986666l143.36 232.106667 40.96 13.653333zM1699.84 738.986667c20.48 0 34.133333-34.133333 34.133333-102.4 34.133333-13.653333 61.44-47.786667 81.92-102.4-88.746667-102.4-136.533333-184.32-136.533333-232.106667 61.44 0 102.4-20.48 122.88-61.44V233.813333L1672.533333 131.413333v-54.613333l95.573334 13.653333c68.266667-6.826667 95.573333-20.48 95.573333-40.96 0-34.133333-129.706667-61.44-382.293333-88.746666h-122.88l-27.306667 40.96c0 34.133333 61.44 88.746667 191.146667 163.84 0 47.786667-40.96 102.4-116.053334 163.84l40.96 27.306666 95.573334-13.653333h20.48l20.48 102.4c-150.186667 0-273.066667-68.266667-368.64-197.973333h-61.44l-75.093334 61.44v6.826666C1249.28 445.44 1331.2 547.84 1331.2 622.933333h20.48c88.746667-20.48 136.533333-40.96 136.533333-54.613333v-54.613333l-40.96-40.96v-13.653334l13.653334 13.653334h122.88c40.96 177.493333 75.093333 266.24 116.053333 266.24zM2402.986667 513.706667l13.653333-13.653334v-20.48c-109.226667-307.2-191.146667-464.213333-245.76-477.866666H2150.4l-34.133333 34.133333v27.306667l116.053333 286.72c-102.4 0-150.186667 20.48-150.186667 61.44l34.133334 34.133333v-20.48l170.666666 54.613333h34.133334c0-40.96 13.653333-61.44 34.133333-61.44 6.826667 61.44 20.48 95.573333 47.786667 95.573334z m-245.76 170.666666h20.48c88.746667 0 157.013333-34.133333 197.973333-95.573333l-47.786667-47.786667c-75.093333 20.48-129.706667 54.613333-170.666666 109.226667v34.133333zM2614.613333 575.146667h34.133334l34.133333-27.306667-34.133333-143.36v-61.44c34.133333 0 47.786667-13.653333 47.786666-34.133333l-88.746666-109.226667V-39.253333H2560l-27.306667 136.533333-116.053333-95.573333h-13.653333c-34.133333 6.826667-47.786667 47.786667-47.786667 122.88v20.48c40.96 0 61.44 47.786667 61.44 143.36l34.133333 266.24h13.653334l47.786666-47.786667 102.4 68.266667zM2484.906667 718.506667h47.786666l47.786667-47.786667-47.786667-47.786667-116.053333 13.653334v20.48l68.266667 61.44z m47.786666-266.24v-20.48h47.786667v34.133333l-47.786667-13.653333z m395.946667 157.013333c20.48 0 40.96-47.786667 47.786667-143.36l34.133333-34.133333c-54.613333-47.786667-81.92-88.746667-81.92-122.88v-177.493334c0-75.093333-61.44-109.226667-177.493333-109.226666l-47.786667 68.266666V165.546667h34.133333l13.653334-61.44c81.92 0 122.88 13.653333 129.706666 47.786666v40.96l-143.36 27.306667v47.786667l81.92 20.48H2901.333333V370.346667l-81.92-13.653334h-95.573333V370.346667c0 27.306667 61.44 61.44 177.493333 95.573333v47.786667l-20.48 81.92 20.48 13.653333h27.306667zM3665.92 779.946667l61.44-102.4v-13.653334c0-20.48-13.653333-27.306667-47.786667-27.306666l-13.653333-13.653334v-13.653333l34.133333-27.306667V506.88L3652.266667 377.173333l81.92 13.653334V370.346667c-20.48-34.133333-54.613333-54.613333-95.573334-54.613334V302.08c13.653333-27.306667 143.36-54.613333 375.466667-75.093333v-54.613334l-47.786667-40.96h-95.573333l-13.653333 20.48-13.653334-13.653333h-13.653333L3700.053333 165.546667v-13.653334l34.133334-75.093333c-34.133333-81.92-61.44-122.88-95.573334-129.706667h-13.653333l13.653333 61.44v75.093334h-34.133333c-20.48 0-40.96-27.306667-61.44-75.093334l13.653333-54.613333v-13.653333h-47.786666c-20.48 0-34.133333 13.653333-34.133334 40.96l-61.44-40.96c-13.653333 0-34.133333 20.48-47.786666 54.613333 0 34.133333 47.786667 109.226667 143.36 232.106667l34.133333 61.44c-136.533333-157.013333-225.28-232.106667-266.24-232.106667-61.44-34.133333-109.226667-47.786667-157.013333-54.613333l-13.653334 13.653333V29.013333c143.36 68.266667 238.933333 129.706667 279.893334 177.493334v20.48h-34.133334l-122.88-61.44h-47.786666v20.48c0 13.653333 81.92 61.44 252.586666 143.36v13.653333l-13.653333 13.653333V370.346667l61.44 163.84h-13.653333l-54.613334-27.306667c-20.48 0-34.133333 13.653333-34.133333 40.96l13.653333 102.4-27.306666 61.44 13.653333 13.653333h34.133333l61.44-75.093333h13.653334L3665.92 779.946667z m-170.666667-389.12v-13.653334l95.573334 61.44v34.133334h-13.653334l-81.92-81.92z m47.786667 102.4h13.653333l81.92 27.306666v40.96h-13.653333l-81.92-68.266666zM4444.16 718.506667c81.92 0 136.533333-40.96 170.666667-116.053334l-34.133334-61.44c102.4 0 157.013333-13.653333 157.013334-47.786666 0-47.786667-109.226667-143.36-327.68-300.373334l279.893333-54.613333 163.84-20.48 81.92 6.826667 13.653333 13.653333h13.653334l61.44-47.786667-75.093334-81.92h-286.72l-252.586666 75.093334-320.853334-75.093334-13.653333 13.653334v13.653333c0 40.96 81.92 95.573333 238.933333 177.493333l170.666667 150.186667H4471.466667l-95.573334-34.133333H4334.933333c-20.48 0-47.786667 34.133333-68.266666 102.4l273.066666 88.746666-109.226666 150.186667v20.48l13.653333 13.653333V718.506667zM5891.413333 698.026667l143.36-68.266667v-27.306667c0-27.306667-34.133333-40.96-95.573333-40.96l-13.653333-68.266666v-225.28c0-191.146667-47.786667-279.893333-143.36-279.893334h-61.44c-88.746667 0-170.666667 54.613333-252.586667 170.666667v47.786667h47.786667c0-61.44 47.786667-109.226667 143.36-143.36 129.706667 0 191.146667 34.133333 191.146666 102.4l34.133334 395.946666h-13.653334c-252.586667-27.306667-382.293333-88.746667-382.293333-170.666666 0-95.573333-40.96-163.84-116.053333-211.626667H5358.933333c-34.133333 0-68.266667 13.653333-109.226666 40.96H5222.4l-61.44-40.96h-13.653333l-34.133334 27.306667v68.266666c20.48 170.666667 47.786667 252.586667 81.92 252.586667 47.786667 0 75.093333-61.44 81.92-184.32 102.4 61.44 150.186667 129.706667 150.186667 197.973333 0 20.48-20.48 34.133333-61.44 34.133334v13.653333c13.653333 27.306667 40.96 40.96 95.573333 40.96h13.653334l47.786666-40.96v-27.306667l-13.653333-40.96h13.653333c218.453333 54.613333 320.853333 95.573333 320.853334 122.88 0 34.133333 20.48 54.613333 47.786666 54.613334z m-525.653333-409.6l13.653333-40.96h13.653334l13.653333 102.4v40.96c-13.653333 0-34.133333-34.133333-40.96-102.4z m286.72 75.093333H5768.533333l61.44-61.44-47.786666-27.306667H5768.533333c-95.573333 13.653333-143.36 34.133333-143.36 54.613334l27.306667 34.133333zM6253.226667 698.026667l34.133333-27.306667v-61.44c0-34.133333-20.48-75.093333-61.44-129.706667V438.613333l34.133333-54.613333-47.786666-116.053333 47.786666-102.4c-13.653333-136.533333-34.133333-204.8-81.92-204.8-40.96 13.653333-61.44 27.306667-61.44 40.96v40.96c34.133333 34.133333 47.786667 61.44 47.786667 88.746666V254.293333c-34.133333 0-47.786667 13.653333-47.786667 40.96l47.786667 102.4v34.133334c-40.96 0-61.44 13.653333-61.44 40.96 47.786667 54.613333 88.746667 129.706667 122.88 232.106666h27.306667z m457.386666 27.306666c47.786667-20.48 75.093333-34.133333 75.093334-54.613333V643.413333l-157.013334-116.053333h13.653334l122.88 27.306667 68.266666-47.786667-47.786666-163.84 13.653333-163.84-13.653333-88.746667c177.493333-27.306667 266.24-47.786667 266.24-61.44v-13.653333l-61.44-61.44c-136.533333 0-259.413333 61.44-375.466667 177.493333l-170.666667-143.36h-81.92l-34.133333 27.306667V29.013333c47.786667 40.96 81.92 61.44 109.226667 61.44V97.28l-34.133334 40.96v13.653333c0 177.493333 47.786667 286.72 143.36 348.16l61.44 102.4h-13.653333l-122.88-27.306666-34.133333 27.306666v6.826667c6.826667 13.653333 95.573333 47.786667 273.066666 116.053333z m-204.8-525.653333h13.653334c47.786667 47.786667 81.92 88.746667 95.573333 143.36l13.653333 13.653333h34.133334l47.786666-40.96-61.44-129.706666c20.48-34.133333 54.613333-54.613333 109.226667-54.613334l13.653333 40.96-47.786666 320.853334h-13.653334c-136.533333-34.133333-204.8-102.4-204.8-204.8v-88.746667zM7495.68 636.586667h13.653333l34.133334-20.48v-13.653334c0-34.133333-47.786667-95.573333-143.36-191.146666l13.653333-13.653334v-6.826666l-95.573333-129.706667 34.133333-34.133333v-232.106667l-47.786667-34.133333-27.306666 27.306666 27.306666 245.76h-27.306666c0-20.48-34.133333-54.613333-109.226667-95.573333l-34.133333 20.48 170.666666 177.493333v6.826667c-61.44 0-88.746667 6.826667-88.746666 20.48l245.76 238.933333c0 27.306667 13.653333 34.133333 34.133333 34.133334z m375.466667 143.36c61.44-20.48 88.746667-34.133333 88.746666-47.786667v-34.133333c-27.306667-27.306667-40.96-75.093333-40.96-143.36v-54.613334l-13.653333-13.653333v-13.653333l13.653333-6.826667 13.653334 6.826667h34.133333l47.786667-34.133334c0-13.653333-13.653333-20.48-47.786667-20.48v-13.653333c61.44 0 95.573333-6.826667 95.573333-20.48l-95.573333-68.266667V302.08l81.92 13.653333 34.133333-20.48-13.653333-13.653333h-95.573333v-279.893333c0-27.306667-68.266667-40.96-197.973334-47.786667-81.92 0-163.84 27.306667-245.76 81.92v13.653333h47.786667c34.133333-20.48 81.92-34.133333 136.533333-34.133333h13.653334c116.053333 0 170.666667 34.133333 170.666666 95.573333v20.48h-13.653333l-61.44-27.306666-232.106667 13.653333v13.653333l13.653334 6.826667v20.48c-34.133333 0-47.786667 6.826667-47.786667 27.306667 0 20.48 47.786667 47.786667 150.186667 68.266666 0 20.48 61.44 47.786667 191.146666 81.92v6.826667h-13.653333c-47.786667 0-136.533333-34.133333-266.24-95.573333l-34.133333 20.48v20.48c0 20.48 61.44 47.786667 184.32 68.266666V370.346667h-61.44l-34.133334-20.48h-13.653333c-13.653333 0-34.133333 27.306667-61.44 81.92 20.48 197.973333 47.786667 293.546667 75.093333 293.546666 27.306667 34.133333 95.573333 54.613333 197.973334 54.613334z m-266.24-614.4v-13.653334l218.453333 27.306667 61.44-13.653333V233.813333c-54.613333 6.826667-150.186667-20.48-279.893333-68.266666z m75.093333 498.346666c40.96-13.653333 61.44-40.96 61.44-68.266666l95.573333 13.653333V711.68h-34.133333c-75.093333-13.653333-116.053333-27.306667-122.88-47.786667z m61.44-143.36v-47.786666l81.92 61.44v6.826666h-47.786667l-34.133333-20.48z m34.133333-81.92h13.653334l47.786666 13.653334v34.133333l-61.44-47.786667zM8280.746667 609.28c34.133333-6.826667 47.786667-40.96 47.786666-102.4v-102.4l-13.653333-75.093333 13.653333-13.653334-13.653333-61.44v-177.493333l13.653333-13.653333v-13.653334l191.146667 13.653334h34.133333l34.133334-27.306667c-47.786667-34.133333-88.746667-54.613333-122.88-54.613333h-122.88c-102.4 20.48-157.013333 34.133333-157.013334 54.613333V302.08c20.48 204.8 54.613333 307.2 95.573334 307.2z m395.946666 54.613333l47.786667-40.96-47.786667-88.746666 34.133334-27.306667c-20.48-27.306667-75.093333-61.44-157.013334-102.4v-27.306667h34.133334c0 20.48 27.306667 47.786667 81.92 61.44h13.653333l47.786667-40.96c0-75.093333-27.306667-143.36-81.92-191.146666 47.786667 0 95.573333-27.306667 143.36-75.093334v-13.653333l-34.133334-27.306667h-34.133333c-95.573333 40.96-143.36 75.093333-143.36 102.4h-34.133333c-47.786667-75.093333-109.226667-116.053333-170.666667-116.053333V97.28l95.573333 61.44-13.653333 40.96c13.653333 88.746667 34.133333 163.84 61.44 232.106667-27.306667 0-40.96 20.48-47.786667 54.613333l13.653334 129.706667h34.133333V575.146667l157.013333 88.746666z m61.44 102.4c143.36-27.306667 218.453333-88.746667 218.453334-163.84l-27.306667-300.373333v-40.96l13.653333-177.493333c-34.133333-95.573333-61.44-143.36-95.573333-143.36h-47.786667c-75.093333 0-116.053333 13.653333-122.88 40.96v27.306666l109.226667-13.653333h61.44l13.653333 61.44-13.653333 552.96-61.44 88.746667h-109.226667c-40.96 0-122.88-34.133333-252.586666-102.4h-13.653334v13.653333c54.613333 68.266667 163.84 122.88 327.68 157.013333z m-204.8-273.066666c27.306667 6.826667 54.613333 27.306667 81.92 61.44V575.146667h-13.653333c-47.786667-13.653333-68.266667-34.133333-68.266667-81.92z m81.92-116.053334l-34.133333-143.36v-13.653333h13.653333v34.133333c34.133333 0 47.786667 6.826667 47.786667 27.306667V356.693333l-27.306667 20.48zM9209.173333 377.173333h34.133334v-88.746666c34.133333-27.306667 47.786667-68.266667 47.786666-116.053334h47.786667l81.92 143.36h34.133333V302.08c-81.92-184.32-163.84-307.2-245.76-368.64h-13.653333l-68.266667 54.613333v27.306667l95.573334 129.706667V165.546667l-34.133334 157.013333 20.48 54.613333z m81.92 273.066667h13.653334c34.133333-6.826667 47.786667-34.133333 47.786666-75.093333v-13.653334l-116.053333-95.573333v13.653333c6.826667 116.053333 27.306667 170.666667 54.613333 170.666667z m539.306667 95.573333h34.133333c34.133333-6.826667 47.786667-40.96 47.786667-102.4v-68.266666l-95.573333-95.573334 81.92 13.653334h34.133333l34.133333-27.306667c0-13.653333-61.44-47.786667-177.493333-102.4l13.653333-40.96 116.053334 13.653333h13.653333c68.266667-27.306667 95.573333-68.266667 95.573333-116.053333-13.653333-191.146667-40.96-286.72-95.573333-286.72h-68.266667c-129.706667 27.306667-197.973333 47.786667-197.973333 68.266667v13.653333h13.653333l177.493334-27.306667h47.786666c34.133333 0 47.786667 75.093333 47.786667 232.106667l-13.653333 68.266667h-129.706667c-13.653333-122.88-40.96-184.32-81.92-184.32h-13.653333l34.133333 129.706666-81.92-40.96 13.653333-68.266666c0-47.786667-20.48-75.093333-68.266666-88.746667l-13.653334 61.44h-13.653333c0-40.96-27.306667-81.92-81.92-116.053333-20.48 0-34.133333 13.653333-34.133333 40.96 0 81.92 40.96 163.84 129.706666 259.413333V302.08h-13.653333l-47.786667-13.653333-34.133333 40.96 116.053333 95.573333v54.613333c0 20.48-27.306667 27.306667-81.92 27.306667v27.306667h81.92V677.546667h20.48c27.306667 0 47.786667-40.96 61.44-116.053334h20.48c75.093333 0 116.053333 54.613333 116.053334 170.666667V745.813333z m-163.84-484.693333h13.653333l68.266667 54.613333v6.826667h-13.653333c-27.306667 0-47.786667-20.48-68.266667-61.44z m177.493333-81.92c20.48-6.826667 40.96-27.306667 68.266667-68.266667-20.48-34.133333-34.133333-54.613333-47.786667-54.613333-20.48 0-34.133333 34.133333-47.786666 102.4l13.653333 13.653333h13.653333z"  horiz-adv-x="10240" />

    
    </font>
</defs>
</svg>
