<?xml version="1.0" standalone="no"?>
<!DOCTYPE svg PUBLIC "-//W3C//DTD SVG 1.1//EN" "http://www.w3.org/Graphics/SVG/1.1/DTD/svg11.dtd" >
<svg xmlns="http://www.w3.org/2000/svg">
<metadata>Generated by IcoMoon</metadata>
<defs>
<font id="iconfont" horiz-adv-x="1024">
<font-face units-per-em="1024" ascent="896" descent="-128" />
<missing-glyph horiz-adv-x="1024" />
<glyph unicode="&#x20;" horiz-adv-x="0" d="" />
<glyph unicode="&#x78;" glyph-name="x" horiz-adv-x="1001" d="M281 543q-27-1-53-1h-83q-18 0-36.5-6t-32.5-18.5-23-32-9-45.5v-76h912v41q0 16-0.5 30t-0.5 18q0 13-5 29t-17 29.5-31.5 22.5-49.5 9h-133v-97h-438v97zM955 310v-52q0-23 0.5-52t0.5-58-10.5-47.5-26-30-33-16-31.5-4.5q-14-1-29.5-0.5t-29.5 0.5h-32l-45 128h-439l-44-128h-63q-20 0-45 1-25 0-41 9.5t-25.5 23-13.5 29.5-4 30v167h911zM163 247q-12 0-21-8.5t-9-21.5 9-21.5 21-8.5q13 0 22 8.5t9 21.5-9 21.5-22 8.5zM316 123q-8-26-14-48-5-19-10.5-37t-7.5-25-3-15 1-14.5 9.5-10.5 21.5-4h365q23 0 34 12t2 38q-5 13-9.5 30.5t-9.5 34.5q-5 19-11 39h-368zM336 498v228q0 11 2.5 23t10 21.5 20.5 15.5 34 6h188q31 0 51.5-14.5t20.5-52.5v-227h-327z" />
<glyph unicode="&#x343f;" glyph-name="gouwuche02" horiz-adv-x="1000" d="M70 774h109q29-7 30-33 0-2 1-3l88-479v-3q7-18 22-35 31-35 76-35h501q9 0 14.5 6t5.5 14.5-5.5 14-14.5 5.5h-501q-18 0-32 10t-19 17.5-9 14.5l-22 122h529q18 0 34 6.5t26 14.5 19 18 11.5 14.5 4.5 7.5q1 1 1 3l60 159q11 31-2 54-14 25-44 32-2 1-5 1h-683q-4 0-7-2l-9 46q-2 31-22.5 48.5t-42.5 21.5h-114q-8 0-14-6t-6-14 6-14 14-6zM265 660h680q12-4 16.5-12t-0.5-22l-59-157q-4-6-9-13t-19.5-16.5-30.5-9.5h-536l-42 230zM406.5 150q-29.5 0-50-20.5t-20.5-49.5 20.5-49.5 50-20.5 50 20.5 20.5 49.5-20.5 49.5-50 20.5zM406.5 54q-10.5 0-18.5 7.5t-8 18.5 8 18.5 18.5 7.5 18.5-7.5 8-18.5-8-18.5-18.5-7.5zM829 150q-29 0-50-20.5t-21-49.5 21-49.5 50-20.5 49.5 20.5 20.5 49.5-20.5 49.5-49.5 20.5zM829 54q-11 0-19 7.5t-8 18.5 8 18.5 19 7.5 18.5-7.5 7.5-18.5-7.5-18.5-18.5-7.5z" />
<glyph unicode="&#xe600;" glyph-name="evaluatesmall" d="M751-36q-8 0-14 4l-227 125-226-124q-17-9-32 1.5t-12 29.5l44 267-185 189q-12 13-6.5 30.5t23.5 20.5l145 25q13 2 23-5.5t12-19.5-5-22-20-13l-89-15 155-159q11-11 8-26l-36-221 187 103q15 8 29 0l187-104-36 221q-2 15 8 26l155 158-212 32q-16 3-23 17l-93 200-93-199q-6-11-17.5-15.5t-23 1-15.5 17 1 23.5l121 256q9 17 28 17v0q19 0 27-17l113-243 253-39q19-3 24.5-20t-7.5-30l-184-189 43-267q3-19-13-29-7-6-17-6z" />
<glyph unicode="&#xe601;" glyph-name="mapsmall" d="M512 288q-79 0-135.5 56.5t-56.5 135.5 56.5 135.5 135.5 56.5 135.5-56.5 56.5-135.5-56.5-135.5-135.5-56.5zM512 608q-53 0-90.5-37.5t-37.5-90.5 37.5-90.5 90.5-37.5 90.5 37.5 37.5 90.5-37.5 90.5-90.5 37.5zM512-64q-13 0-22 9-10 9-10 22.5t9 22.5q39 41 86 97.5t100.5 129.5 89 144.5 35.5 118.5q0 119-84.5 203.5t-203.5 84.5-203.5-84.5-84.5-203.5q0-57 52.5-151.5t151.5-215.5q9-11 7.5-24t-12-21.5-23.5-7-21 11.5q-219 268-219 408 0 95 47 176.5t128.5 128.5 176.5 47q146 0 249-103t103-249q0-53-34-127.5t-76.5-136.5-98-130.5-80-95.5-40.5-44q-9-10-23-10z" />
<glyph unicode="&#xe602;" glyph-name="camera" d="M890 609h-180l-59 87q-4 7-13 7h-252q-9 0-13-7l-59-87h-180q-7 0-11.5-5t-4.5-11v-504q0-7 4.5-11.5t11.5-4.5h756q7 0 11.5 4.5t4.5 11.5v504q0 6-4.5 11t-11.5 5zM874 104h-724v473h173q8 0 13 7l58 88h236l58-88q5-7 13-7h173v-473zM717 357q0-14-2-28-1-7-6-11t-11.5-3-10.5 6.5-3 11.5q1 12 1 24 0 71-50.5 122t-122.5 51-122.5-51-50.5-122.5 50.5-122.5 122.5-51q67 0 117 46 12 10 22.5-1.5t-1.5-22.5q-58-53-138-53-85 0-145 60t-60 144.5 60 144.5 145 60 145-60 60-144z" />
<glyph unicode="&#xe603;" glyph-name="succecheck" d="M512-10q-107 0-197.5 53t-143.5 143.5-53 197.5 53 197.5 143.5 143.5 197.5 53 197.5-53 143.5-143.5 53-197.5-53-197.5-143.5-143.5-197.5-53zM512 721q-91 0-169-45t-123-123-45-169 45-169 123-123 169-45 169 45 123 123 45 169-45 169-123 123-169 45zM701 488.5q-8 8.5-20 8t-20-8.5l-205-207-91 93q-8 9-19.5 9t-20-8-8.5-20 8-20l111-114q2-2 6-4 1 0 2-1l1-1q5-2 10.5-2t10.5 2q1 0 2 0.5t1 1.5q5 2 7 4v0 0l225 228q8 8 8 19.5t-8 20z" />
<glyph unicode="&#xe604;" glyph-name="close" d="M512-64q-185 0-316.5 131.5t-131.5 316.5 131.5 316.5 316.5 131.5 316.5-131.5 131.5-316.5-131.5-316.5-316.5-131.5zM512 768q-104 0-192.5-51.5t-140-140-51.5-192.5 51.5-192.5 140-140 192.5-51.5 192.5 51.5 140 140 51.5 192.5-51.5 192.5-140 140-192.5 51.5zM557 383l138 136q10 10 10 23t-9.5 22.5-22.5 9.5-23-9l-138-137-137 137q-9 9-22 9t-22.5-9-9.5-22.5 9-22.5l136-137-137-136q-9-9-9.5-22.5t9-23 22.5-9.5q14 0 23 10l138 136 138-140q10-9 23-9t22.5 9.5 9.5 22.5-9 23z" />
<glyph unicode="&#xe605;" glyph-name="pressed" d="M512-6q-42 0-81 39l-299 302q-24 30-35.5 47t-23 50.5-11.5 71.5q0 99 70.5 169.5t169.5 70.5q76 0 138-44 10-7 12-19t-5-22.5-19-12.5-22 5q-47 33-104 33-74 0-127-53t-53-127q0-40 12-65.5t43-64.5l296-299q21-21 39-21 17 0 39 21l297 300q54 59 54 129 0 74-53 127t-127 53q-70 0-121-47l-126-126q-9-9-21.5-9t-21 9-8.5 21.5 8 21.5l127 126q70 64 163 64 99 0 169.5-70.5t70.5-169.5q0-93-71-170l-298-301q-39-39-81-39v0z" />
<glyph unicode="&#xe606;" glyph-name="add2" d="M512 11q-101 0-187.5 49.5t-136 136-49.5 187.5 49.5 187.5 136 136 187.5 49.5 187.5-49.5 136-136 49.5-187.5-49.5-187.5-136-136-187.5-49.5v0zM699 421h-150v150h-74v-150h-150v-74h150v-150h74v150h150v74z" />
<glyph unicode="&#xe607;" glyph-name="add02" d="M848 32h-96q-7 0-11.5 4.5t-4.5 11.5 4.5 11.5 11.5 4.5h80v80q0 7 4.5 11.5t11.5 4.5 11.5-4.5 4.5-11.5v-96q0-7-4.5-11.5t-11.5-4.5zM848 224q-7 0-11.5 4.5t-4.5 11.5v96q0 7 4.5 11.5t11.5 4.5 11.5-4.5 4.5-11.5v-96q0-7-4.5-11.5t-11.5-4.5zM848 416q-7 0-11.5 4.5t-4.5 11.5v96q0 7 4.5 11.5t11.5 4.5 11.5-4.5 4.5-11.5v-96q0-7-4.5-11.5t-11.5-4.5zM848 608q-7 0-11.5 4.5t-4.5 11.5v80h-80q-7 0-11.5 4.5t-4.5 11.5 4.5 11.5 11.5 4.5h96q7 0 11.5-4.5t4.5-11.5v-96q0-7-4.5-11.5t-11.5-4.5zM656 32h-96q-7 0-11.5 4.5t-4.5 11.5 4.5 11.5 11.5 4.5h96q7 0 11.5-4.5t4.5-11.5-4.5-11.5-11.5-4.5zM656 704h-96q-7 0-11.5 4.5t-4.5 11.5 4.5 11.5 11.5 4.5h96q7 0 11.5-4.5t4.5-11.5-4.5-11.5-11.5-4.5zM638 416q13 0 22.5-9.5t9.5-22.5-9.5-22.5-22.5-9.5h-96v-96q0-13-9.5-22.5t-22.5-9.5-22.5 9.5-9.5 22.5v96h-96q-13 0-22.5 9.5t-9.5 22.5 9.5 22.5 22.5 9.5h96v96q0 13 9.5 22.5t22.5 9.5 22.5-9.5 9.5-22.5v-96h96zM464 704h-96q-7 0-11.5 4.5t-4.5 11.5 4.5 11.5 11.5 4.5h96q7 0 11.5-4.5t4.5-11.5-4.5-11.5-11.5-4.5zM272 32h-96q-7 0-11.5 4.5t-4.5 11.5v96q0 7 4.5 11.5t11.5 4.5 11.5-4.5 4.5-11.5v-80h80q7 0 11.5-4.5t4.5-11.5-4.5-11.5-11.5-4.5zM272 704h-80v-80q0-7-4.5-11.5t-11.5-4.5-11.5 4.5-4.5 11.5v96q0 7 4.5 11.5t11.5 4.5h96q7 0 11.5-4.5t4.5-11.5-4.5-11.5-11.5-4.5zM176 544q7 0 11.5-4.5t4.5-11.5v-96q0-7-4.5-11.5t-11.5-4.5-11.5 4.5-4.5 11.5v96q0 7 4.5 11.5t11.5 4.5zM176 352q7 0 11.5-4.5t4.5-11.5v-96q0-7-4.5-11.5t-11.5-4.5-11.5 4.5-4.5 11.5v96q0 7 4.5 11.5t11.5 4.5zM368 64h96q7 0 11.5-4.5t4.5-11.5-4.5-11.5-11.5-4.5h-96q-7 0-11.5 4.5t-4.5 11.5 4.5 11.5 11.5 4.5z" />
<glyph unicode="&#xe608;" glyph-name="mycode" d="M902 354h-780q-12 0-21 9t-9 21 9 21 21 9h780q12 0 21-9t9-21-9-21-21-9zM812-6h-180q-12 0-21 9t-9 21 9 21 21 9h180q12 0 21 9t9 21v150q0 12 9 21t21 9 21-9 9-21v-150q0-37-26.5-63.5t-63.5-26.5zM362-6h-150q-37 0-63.5 26.5t-26.5 63.5v150q0 12 9 21t21 9 21-9 9-21v-150q0-12 9-21t21-9h150q12 0 21-9t9-21-9-21-21-9zM152 504q-12 0-21 9t-9 21v150q0 37 26.5 63.5t63.5 26.5h150q12 0 21-9t9-21-9-21-21-9h-150q-12 0-21-9t-9-21v-150q0-12-9-21t-21-9zM872 504q-12 0-21 9t-9 21v150q0 12-9 21t-21 9h-180q-12 0-21 9t-9 21 9 21 21 9h180q37 0 63.5-26.5t26.5-63.5v-150q0-12-9-21t-21-9z" />
<glyph unicode="&#xe609;" glyph-name="card02" d="M952.5 569q-10.5 20-31.5 26l-562 170q-7 2-15 2-18 0-32.5-10.5t-19.5-27.5l-50-167h-123q-23 0-38.5-15.5t-15.5-38.5v-453q0-23 15.5-38.5t38.5-15.5h712q22 0 38 15.5t16 38.5v234l72 239q6 21-4.5 41zM119 541h712q13 0 22.5-9.5t9.5-23.5v-86h-777v86q0 14 9.5 23.5t23.5 9.5zM831 22h-712q-14 0-23.5 9.5t-9.5 23.5v324h777v-324q0-14-9.5-23.5t-22.5-9.5zM936 534l-51-171v145q0 23-16 38.5t-38 15.5h-567l49 161q3 10 11.5 16.5t19.5 6.5q4 0 9-2l562-169q12-4 18.5-16t2.5-25zM566 292h-410q-4 0-7.5-3.5t-3.5-7.5 3.5-7.5 7.5-3.5h410q4 0 7 3.5t3 7.5-3 7.5-7 3.5zM458 185h-302q-4 0-7.5-3.5t-3.5-8 3.5-7.5 7.5-3h302q4 0 7.5 3t3.5 7.5-3.5 8-7.5 3.5zM770 292h-97q-14 0-23.5-9.5t-9.5-23 9.5-23 23.5-9.5h97q13 0 22.5 9.5t9.5 23-9.5 23-22.5 9.5z" />
<glyph unicode="&#xe60a;" glyph-name="home02" d="M784 55h-550q-6 0-11 5t-5 11v300h-112q-11 0-15 10t4 17l403 403q5 6 14 5 7-2 11-8l94-94v30q0 7 4.5 11.5t11.5 4.5h94q7 0 11.5-4.5t4.5-11.5v-156l181-181q7-8 3-18t-14-10l-112 1v-299q0-6-5-11t-12-5v0 0zM250 87h518v299q0 6 5 11t11 5h90l-158 158q-5 4-5 11v147h-62v-53q0-10-10-14.5t-18 3.5l-112 113-364-364h89q7 0 11.5-5t4.5-11v-300z" />
<glyph unicode="&#xe60b;" glyph-name="code02" d="M424 781v0h-220q-34 0-58.5-24t-24.5-58v0-208q0-3 1-7 5-29 28-49t54-20h220q29 2 50.5 21.5t26.5 47.5q1 4 1 7v208q0 33-23 56.5t-55 25.5zM458 503q0-19-13-31.5t-31-12.5h-206q-18 0-30.5 12.5t-12.5 31.5v191q0 18 12.5 31t30.5 13h206q18 0 31-13t13-31v-191zM902 701q0 32-22 55t-54 25v0h-192q-33 0-57-23.5t-24-56.5v0-203q0-3 1-6 5-29 27.5-48.5t52.5-19.5h192q28 2 49 21t26 47q1 3 1 6v203zM859 509q0-17-12.5-29.5t-29.5-12.5h-178q-18 0-30.5 12.5t-12.5 29.5v187q0 18 12.5 30.5t30.5 12.5h178q17 0 29.5-12.5t12.5-30.5v-187zM416 356v0h-214q-34 0-57.5-23.5t-23.5-56.5v0-202q0-3 1-7 5-29 27.5-48t52.5-19h214q28 2 49 21t25 46q2 4 2 7v202q-1 32-23 55t-53 25zM449 85q0-18-12.5-30.5t-30.5-12.5h-200q-18 0-30.5 12.5t-12.5 30.5v186q0 18 12.5 30.5t30.5 12.5h200q18 0 30.5-12.5t12.5-30.5v-186zM721 143q-11 0-19-7.5t-8-18.5v-51q0-11 8-18.5t19-7.5 19 7.5 8 18.5v51q0 11-8 18.5t-19 7.5zM835 169q-11 0-19-7.5t-8-18.5v-77q0-11 8-18.5t19-7.5 18.5 7.5 7.5 18.5v77q0 11-7.5 18.5t-18.5 7.5zM835 323q-11 0-19-7.5t-8-18.5v-51q0-11 8-18.5t19-7.5 18.5 7.5 7.5 18.5v51q0 11-7.5 18.5t-18.5 7.5zM721 323q-11 0-19-7.5t-8-18.5v-103q0-10 8-17.5t19-7.5 19 7.5 8 17.5v103q0 11-8 18.5t-19 7.5zM606 194q-11 0-19-7.5t-8-17.5v-103q0-11 8-18.5t19-7.5 19 7.5 8 18.5v103q0 10-8 17.5t-19 7.5zM606 323q-11 0-19-7.5t-8-18.5v-26q0-10 8-17.5t19-7.5 19 7.5 8 17.5v26q0 11-8 18.5t-19 7.5z" />
<glyph unicode="&#xe60c;" glyph-name="heartpulse" d="M490.5-81q-5.5 0-9.5 3-16 8-39 22.5t-82 58.5-106 91q-6 6-6 14.5t6 15 15 6.5 15-6q91-90 207-159 116 69 207 159 6 6 15 6t15-6.5 6-15-6-14.5q-47-47-106-91t-82-58.5-39-22.5q-5-3-10.5-3zM144 256q-13 0-19 13-35 74-35 146 0 91 65 156t157 65q64 0 123-43 34-25 56-58 22 33 56 58 59 43 123 43 92 0 157-65t65-156q0-72-35-146-4-8-12-11t-16 0.5-11 12 1 16.5q30 65 30 128 0 74-52.5 126.5t-126.5 52.5q-51 0-98-35t-61-77q-5-15-20-15t-20 15q-14 42-61 77t-98 35q-75 0-127.5-52.5t-52.5-126.5q0-63 31-128 4-8 1-16.5t-11-12.5q-4-2-9-2v0zM534 88h-1q-23 0-32 32l-51 183-34-138q-8-32-31-34.5t-37 26.5l-26 51q-1 3-3 5 0-1-1-1-11-17-34-28.5t-46-11.5h-42q-9 0-15.5 6.5t-6.5 15 6.5 14.5 15.5 6h42q13 0 26.5 7t19.5 15q14 22 37 20 25-1 39-29l19-38 39 161q8 32 30.5 32.5t31.5-31.5l55-193 49 152q10 30 33.5 31t35.5-28l31-73q4-10 16-18t23-8h63q9 0 15-6t6-15-6-15-15-6h-63q-24 0-46.5 15t-31.5 37l-25 59-54-164q-10-31-32-31v0z" />
<glyph unicode="&#xe60d;" glyph-name="alarm" d="M890 146q-5 7-13.5 19.5t-28.5 47-36 68-28.5 76.5-12.5 77q0 118-45.5 189t-117.5 98v15q0 40-28 68t-68 28-68-28-28-68v-17q-19-13-12-35 4-12 16-18.5t24-2.5q27 9 57 9h22q86 0 135-63t49-175q0-122 110-294-167-76-305-76-137 0-305 77 110 171 110 293 0 94 35 154 6 11 3 24t-14.5 19.5-24.5 3-20-14.5q-43-75-43-186 0-34-12.5-77t-28.5-76-36-67.5-28.5-47.5-13.5-19q-8-12-5-26t16-21 35.5-18 82-33 115.5-34q16-50 52.5-80.5t81.5-30.5 81 30.5 53 80.5q56 12 115.5 34t82 32.5 35.5 17.5 16 21-5 26zM501 736q-2 0-21-2v2q0 13 9.5 22.5t22.5 9.5 22.5-9.5 9.5-22.5v-1q-11 1-21 1h-22zM512-32q-34 0-58 35 31-3 58-3t58 3q-24-35-58-35z" />
<glyph unicode="&#xe60e;" glyph-name="recharge" d="M512 778q-107 0-197.5-53t-143.5-143.5-53-197.5 53-197.5 143.5-143.5 197.5-53 197.5 53 143.5 143.5 53 197.5-53 197.5-143.5 143.5-197.5 53zM512 46.5q-92-0.5-169.5 45t-123 123-45.5 169.5 45.5 169.5 123 123 169.5 45.5 169.5-45.5 123-123 45.5-169.5-45.5-169.5-123-122.5-169.5-45.5zM625 384q12 0 20.5 8t8.5 20-8.5 20-20.5 8h-85v14l104 108q8 9 8 20.5t-8.5 19.5-20 8-19.5-9l-89-94-95 95q-8 8-19.5 8t-20-8.5-8.5-20 8-19.5l104-104v-18h-83q-12 0-20.5-8t-8.5-20 8.5-20 20.5-8h83v-56h-83q-12 0-20.5-8.5t-8.5-20 8.5-19.5 20.5-8h83v-84q0-12 8-20t20-8 20 8 8 20v84h85q12 0 20.5 8t8.5 19.5-8.5 20-20.5 8.5h-85v56h85z" />
<glyph unicode="&#xe60f;" glyph-name="rnb" d="M887 865h-141l-231-463-237 463h-141l301-494h-225v-58h257v-147h-257v-58h257v-226h90v226h257v58h-257v147h257v58h-225z" />
<glyph unicode="&#xe610;" glyph-name="messagerecord" d="M837 239q18 42 25 88 41 66 41 142 0 80-44.5 148t-121 107.5-166.5 39.5q-58 0-115-19-58-1-112-16 100 71 227 71 100 0 185-44t134.5-120.5 49.5-166.5q0-66-27.5-125t-75.5-105zM829 377q0-90-49-166.5t-134-121-185-44.5q-38 0-76 7l-127-86v134q-76 45-121 118t-45 159q0 90 49.5 166.5t134.5 120.5 185 44 185-44 134-120.5 49-166.5zM129 377q0-15 2-32 0-1 0.5-2.5t0.5-2.5q2-15 6-30 0-2 1-5 4-15 10-29l1-2q13-30 32-56 0-1 0.5-1.5l1.5-1.5q9-13 20-24 0-1 1-2l1-1q12-12 24-23h1q13-12 27-21v0 0q18-13 37-22v0 0-90h1l44 32 39 27q23-5 52-7v-1q17-1 30-1 90 0 166.5 39.5t120.5 107.5 44 148-44 148-120.5 107-166.5 39-166.5-39-121-107-44.5-148v0z" />
<glyph unicode="&#xe611;" glyph-name="phone" d="M680 768h-336q-33 0-56.5-23.5t-23.5-56.5v-608q0-33 23.5-56.5t56.5-23.5h336q33 0 56.5 23.5t23.5 56.5v608q0 33-23.5 56.5t-56.5 23.5zM728 80q0-19-14-33.5t-34-14.5h-336q-20 0-34 14.5t-14 33.5v48h432v-48zM728 160h-432v480h432v-480zM728 672h-432v16q0 20 14 34t34 14h336q20 0 34-14t14-34v-16zM520 48q13 0 22.5 9.5t9.5 23-9.5 22.5-22.5 9-22.5-9-9.5-22.5 9.5-23 22.5-9.5z" />
<glyph unicode="&#xe612;" glyph-name="servicetel" d="M190.5-65q-13.5 0-22.5 9.5t-9 22.5q0 53 59 89t167 51v10q-28 21-47.5 52.5t-29 59.5-15 68-6 61.5-0.5 57.5q0 104 58.5 163.5t161.5 59.5h7q104 0 162-59.5t58-163.5v-32q-1-13-10.5-22t-22.5-8.5-22.5 10-9 22.5 0.5 30q0 79-39 119t-117 40h-7q-156 0-156-159 0-46 2.5-78t10-68.5 25.5-64 45-44.5q15-10 15-27v-55q0-12-8-21.5t-21-10.5q-91-9-144-32.5t-53-47.5q0-13-9.5-22.5t-23-9.5zM833.5-65q-13.5 0-22.5 9.5t-9 22.5q0 24-53.5 47.5t-144.5 32.5q-12 1-20.5 10.5t-8.5 21.5v55q0 13 9.5 22.5t23 9.5 22.5-9.5 9-22.5v-27q109-15 168-51t59-89q0-13-9.5-22.5t-23-9.5zM612 223q-60 0-78 4-11 4-17.5 14.5t-4 22.5 12.5 19.5 22 6.5q70-8 139.5 2t83.5 41q6 12 18.5 16.5t24.5-1.5 16.5-18.5-1.5-24.5q-40-82-216-82zM896 256q-13 0-22.5 9.5t-9.5 22.5v112l-43 15q-21 8-21 30 0 121-84.5 206t-203.5 85-203.5-85-84.5-206q0-16-13-26l-19-13v-118q0-13-9.5-22.5t-22.5-9.5-22.5 9.5-9.5 22.5v134q0 17 13 26l19 14q5 93 52.5 170.5t127 122.5 172.5 45q139 0 240.5-96.5t110.5-235.5l44-15q21-8 21-31v-134q0-13-9.5-22.5t-22.5-9.5z" />
<glyph unicode="&#xe613;" glyph-name="praise" d="M779 386h-25q-21 0-36-15t-15-36v-25q0-21 15-36t36-15h25q21 0 36 15t15 36v25q0 21-15 36t-36 15zM817 310q0-16-11-27t-27-11h-25q-16 0-27 11t-11 27v25q0 16 11 27.5t27 11.5h25q16 0 27-11.5t11-27.5v-25zM173 717h500q11 0 26-11t23-24q1-8 6.5-13t13.5-5q9 0 14.5 6t5.5 14q0 4-2 9h2q-9 27-34 44.5t-55 17.5h-498q-36 0-59.5-25t-23.5-61v-329q0-39 26-62 7-6 15-6 9 0 14 5 7 8 6 17t-10 16q-6 4-9.5 18t-3.5 23v318q0 15 14 31.5t29 16.5zM397 386h-25q-21 0-36-15t-15-36v-25q0-21 15-36t36-15h25q22 0 36.5 15t14.5 36v25q0 22-14.5 36.5t-36.5 14.5zM436 310q0-16-11.5-27t-27.5-11h-25q-16 0-27 11t-11 27v25q0 16 11 27.5t27 11.5h25q16 0 27.5-11.5t11.5-27.5v-25zM852 603h-562q-35 0-53-24.5t-18-62.5v-394q0-35 25.5-57t63.5-22h64v-89q0-19 13-26h4q9 0 15 5l166 110h283q36 0 57.5 22t21.5 59v392q0 37-22.5 62t-57.5 25zM894 119q0-15-13-26.5t-29-11.5h-299q-9 0-15-5l-128-84v65q0 10-7.5 17t-17.5 7h-89q-15 0-27 13.5t-12 29.5v405q0 15 9 25t24 10h562q16 0 29-10.5t13-24.5v-410zM588 386h-25q-21 0-36-15t-15-36v-25q0-21 15-36t36-15h25q21 0 36 15t15 36v25q0 22-15 36.5t-36 14.5zM627 310q0-16-11.5-27t-27.5-11h-25q-16 0-27 11t-11 27v25q0 16 11 27.5t27 11.5h25q16 0 27.5-11.5t11.5-27.5v-25z" />
<glyph unicode="&#xe614;" glyph-name="back" d="M364 423q-20-18-20-44t21-44l309-271q7-6 15.5-5.5t14.5 7.5 5.5 15.5-7.5 14.5l-309 271q-14 12-1 24l310 281q7 6 7.5 15t-5.5 15.5-15 7-15-5.5z" />
<glyph unicode="&#xe615;" glyph-name="delete" d="M892 633q9 0 15 6.5t6 15.5-6 15.5-15 6.5l-775 1q-9 0-15.5-6.5t-6.5-15.5 6.5-15.5 15.5-6.5zM239-12v-22l559 6v595q0 9-6 15.5t-15 6.5-15.5-6.5-6.5-15.5v-573l21 21-516-5 22-22v585q0 9-6.5 15.5t-15.5 6.5-15-6.5-6-15.5v-585zM631 108q0-9 6.5-15.5t15.5-6.5 15 6.5 6 15.5v391q0 9-6 15.5t-15 6.5-15.5-6.5-6.5-15.5v-391zM371 108q0-9 6.5-15.5t15.5-6.5 15.5 6.5 6.5 15.5v391q0 9-6.5 15.5t-15.5 6.5-15.5-6.5-6.5-15.5v-391zM501 108q0-9 6.5-15.5t15.5-6.5 15 6.5 6 15.5v391q0 9-6 15.5t-15 6.5-15.5-6.5-6.5-15.5v-391zM413 710q0 9 6.5 15t15.5 6h168q9 0 15.5-6t6.5-15v-46h43v46q0 27-19 46t-46 19h-168q-27 0-46-19t-19-46v-40h43v40z" />
<glyph unicode="&#xe616;" glyph-name="evaluatebig" d="M481 724q8 17 13.5 17t12.5-17l88-205q3-7 10.5-10t15 0 10.5 10.5 0 14.5l-88 204q-17 41-48 41.5t-50-40.5l-92-201q-3-7 0-14.5t10-10.5 15-0.5 11 10.5zM848 473q19-2 20.5-7t-13.5-17l-170-146q-6-5-7-13t4.5-14 13.5-6.5 14 5.5l171 145q34 28 25 57.5t-54 33.5l-224 24q-8 1-14-4t-7-13 4-14 13-7zM726 49q4-19-0.5-22t-20.5 7l-194 114q-7 4-14.5 2t-12-8.5-2.5-14 9-12.5l194-114q38-23 63.5-5.5t15.5 61.5l-46 215q-1 8-8 12.5t-15 3-12-8.5-3-14l46-216zM296 35q-17-9-21-6t0 22l51 216q2 7-2 14t-12 8.5-15-2.5-9-12l-51-216q-10-43 15-61t64 4l195 110q7 4 9 11.5t-2 14.5-12 9-15-2l-195-110zM217 392q-37 33-68 61-6 5-14 4.5t-13.5-6.5-5-13.5 6.5-13.5q31-27 68-60l98-88q6-5 14-4.5t13.5 6 5.5 13.5-6 14v0h-1l-1 1h-1v1l-1 1h-1v1h-1l-1 1v1h-1v1h-1l-4 4h-1v1h-1v1h-1v1h-1v1h-1l-4 4h-1v1h-1v1h-1v1h-1v1h-1l-3 3h-1v1h-1v1h-1v1h-1v1h-1l-3 3h-1v1l-2 2h-1v1h-1l-1 1v1h-1l-4 4h-1v1l-1 1h-1l-1 1v1h-1l-4 4h-1v1l-1 1h-1l-5 5h-1v1l-2 2h-1l-2 2v1h-1l-4 4h-1l-2 2v1l-1 1h-1l-4 4h-1l-6 6h-1l-5 5zM256 484q11 1 24 3 28 3 59 6l18 2q5 1 7 1 8 1 13 7.5t4 14-7.5 12.5-14.5 4q-3 0-7-1l-18-2q-31-3-58-6-13-2-24-3-24-2-43-4-8 0-13.5-6.5t-5-14 7-13 14.5-4.5q19 2 44 4z" />
<glyph unicode="&#xe617;" glyph-name="order" d="M907 512q0 40-28 68.5t-68 28.5h-289l13-6-103 101h-296v-542q0-40 28-68.5t68-28.5h570q8 0 13.5 5.5t5.5 13.5-5.5 13.5-13.5 5.5h-570q-24 0-41 17.5t-17 41.5v523l-19-19h269l-14 5 104-101h297q24 0 41-17t17-41v-342q0-8 5.5-13.5t13.5-5.5 13.5 5.5 5.5 13.5v342zM901 404v39h-763v-39h763z" />
<glyph unicode="&#xe618;" glyph-name="help" d="M908 384q0 107-53 198.5t-144.5 144.5-198.5 53-198.5-53-144.5-144.5-53-198.5 53-198.5 144.5-144.5 198.5-53q138 0 246 86 6 5 7 13t-4 14.5-13 7.5-14-4q-97-78-222-78-97 0-179 48t-130 130-48 179 48 179 130 130 179 48 179-48 130-130 48-179q0-102-54-188-4-7-2-15t8.5-12 14.5-2.5 12 8.5q60 96 60 209zM528 245q11 0 19-7.5t8-18.5v-7q0-11-8-18.5t-19-7.5v0q-11 0-18.5 7.5t-7.5 18.5v7q0 11 7.5 18.5t18.5 7.5v0zM406 456q0-2 1-5t6.5-8 14.5-5 14.5 4.5 6.5 9.5l1 4q-2 88 82 84 55-6 57-63-3-25-41-65-50-51-50-91v-27q0-2 1-4.5t6-7 13.5-4.5 13.5 4 6 8l2 4v19q0 34 47 80 50 46 50 84-4 105-109 110-122 2-122-131z" />
<glyph unicode="&#xe619;" glyph-name="info" d="M908 384q0 107-53 198.5t-144.5 144.5-198.5 53-198.5-53-144.5-144.5-53-198.5 53-198.5 144.5-144.5 198.5-53q138 0 246 86 6 5 7 13t-4 14.5-13 7.5-14-4q-97-78-222-78-97 0-179 48t-130 130-48 179 48 179 130 130 179 48 179-48 130-130 48-179q0-102-54-188-4-7-2-15t8.5-12 14.5-2.5 12 8.5q60 96 60 209zM502 206q0-8 6-14t14-6 13.5 6 5.5 14v246q0 8-5.5 13.5t-13.5 5.5-14-5.5-6-13.5v-246zM502 534q0-8 6-14t14-6 13.5 6 5.5 14v33q0 8-5.5 14t-13.5 6-14-6-6-14v-33z" />
<glyph unicode="&#xe61a;" glyph-name="up" d="M510 317q12 14 25 0l270-310q6-6 15-7t15.5 5 7 15-5.5 15l-270 310q-18 20-44 20.5t-45-20.5l-280-309q-6-7-6-16t7-14.5 15.5-5.5 14.5 7z" />
<glyph unicode="&#xe61b;" glyph-name="down" d="M478-25q19-21 45-20.5t44 20.5l270 310q6 6 5.5 15t-7 15-15.5 5-15-7l-270-310q-13-14-25 0l-281 310q-6 7-14.5 7t-15.5-5.5-7-14.5 6-16z" />
<glyph unicode="&#xe61c;" glyph-name="my" d="M609 386q48 28 77 77t29 107q0 87-61.5 148.5t-149 61.5-149-61.5-61.5-148.5q0-60 30.5-109.5t80.5-76.5q-125-35-206-138t-81-234q0-9 1-23l39 2v21q0 137 94.5 237.5t231.5 110.5q10-1 21-1 13 0 25 2 141-8 238.5-109t97.5-240q0-7-1-21l40-1v22q0 134-83.5 238t-212.5 136zM504.5 401q-69.5 0-119 49.5t-49.5 119 49.5 119 119 49.5 119-49.5 49.5-119-49.5-119-119-49.5z" />
<glyph unicode="&#xe61d;" glyph-name="location" d="M511.5 418q40.5 0 69.5 27.5t29 66-29 66-69.5 27.5-69.5-27.5-29-66 29-66 69.5-27.5zM511.5 568q24.5 0 42-16.5t17.5-39.5-17.5-39.5-42-16.5-41.5 16.5-17 39.5 17 39.5 41.5 16.5zM786 538q-1-27-3-44l82 26v-410l-235-65-276 76-196-63v408l81 20q-2 16-2 35v2l-118-29v-486l39 12 197 64 275-77 275 77v486zM408 246l5-5q37-45 74-74l25-20 25 20q35 28 74 74l4 6q112 145 130 247 3 19 3 31 0 97-71 166-69 66-165 66t-165-66q-72-69-71-167 0-12 3-30 17-103 129-248zM511.5 719q81.5 0 139.5-56.5t57-137.5q0-9-2-25-16-93-124-232 0-1-1-2-15-19-32.5-36.5t-27.5-25.5l-9-8q-35 28-69 69-2 1-2 2-107 138-123 232l-3 26q0 80 57.5 137t139 57z" />
<glyph unicode="&#xe61e;" glyph-name="set02" d="M754 279l-5-10 67-98 2 24-107-105 23 3-107 63-9-3q-9-4-19-7l-10-4-24-112 19 15h-152l18-14-29 116-9 3q-8 3-16 7l-10 5-101-65 23-3-107 105 3-23 65 104-4 9-8 20-3 10-115 23 15-18v148l-14-19 118 28 4 9q4 10 9 19l5 10-63 95-3-24 107 106-23-3 103-63 9 4q8 3 15 6l10 3 28 113-18-14h152l-19 15 25-115 9-4q12-4 23-10l10-4 96 60-23 3 109-104-3 23-64-101 4-9q4-9 7-19l4-10 113-27-14 19v-148l15 18-119-24-4-9q-4-9-8-17zM779 288l4-18 125 25v179l-119 27-4-18 18 6q-4 11-9 22l-17-7 16-10 67 105-130 125-100-63 10-16 8 17q-13 6-27 11l-6-17 18 4-25 120h-182l-29-118 18-4-6 18q-9-3-18-7l8-17 9 16-107 65-128-127 65-99 16 11-17 8q-5-10-10-22l17-7-4 19-124-29v-179l120-24 4 19-18-7q4-11 9-22l17 8-16 10-68-109 129-126 105 67-10 16-8-17q9-4 19-8l7 18-19-5 30-121h182l25 117-19 4 6-18 22 8-7 17-10-16 111-66 129 126-69 102-16-10 17-9q5 10 9 19zM682 393q0 67-47 114t-113.5 47-113.5-47-47-113.5 47-113.5 113-47q34 0 65 14 7 3 10 10.5t0 14.5-10.5 10-14.5-1q-24-10-50-10-50 0-86 36t-36 86.5 36 86.5 86.5 36 86.5-36 36-87q0-13-3-26-2-8 2.5-14.5t12-8 14 2.5 8.5 12q4 17 4 34z" />
<glyph unicode="&#xe61f;" glyph-name="addnew" d="M85 255q7-68 36-132l-37-22q-34 74-41 154h42zM313-128q74-34 154-41v42q-68 7-132 36zM467 722v43q-80-7-154-41l22-37q64 29 132 35zM706 724q-73 34-153 41v-43q68-6 132-35zM43 340h42q7 69 36 133l-37 21q-34-74-41-154zM553-127v-42q79 7 153 41l-21 37q-64-29-132-36zM899 123l37-22q34 74 41 154h-43q-6-68-35-132zM164 49l-37-22q46-66 112-112l22 37q-56 40-97 97zM759-48l21-37q66 47 113 112l-37 22q-41-56-97-97zM977 340q-7 80-41 154l-37-21q29-64 35-133h43zM127 568l37-21q41 56 97 97l-22 37q-66-47-112-113zM780 681l-21-37q56-41 97-97l37 21q-47 66-113 113zM531 511h-42v-192h-192v-43h192v-192h42v192h192v43h-192v192z" />
<glyph unicode="&#xe620;" glyph-name="card03" horiz-adv-x="1000" d="M930 526h-727q-10 0-17.5-7t-7.5-18v-441q0-10 7.5-17.5t17.5-7.5h727q10 0 17.5 7.5t7.5 17.5v441q0 11-7.5 18t-17.5 7zM922 68h-711v256h711v-256zM922 424h-711v69h711v-69zM785 290h86v-86h-86v86zM741 759l59-200h34l-64 216q-5 18-24 18-4 0-7-1l-697-206q-10-3-14.5-12t-2.5-19l103-347h34l-103 349z" />
<glyph unicode="&#xe621;" glyph-name="successs" d="M512 5q-103 0-190 51t-138 138-51 190 51 190 138 138 190 51q89 0 168-40 9-4 12-13t-1.5-17.5-13.5-12-18 1.5q-69 34-147 34-90 0-166.5-44.5t-121-121-44.5-166.5 44.5-166.5 121-121 166.5-44.5 166.5 44.5 121 121 44.5 166.5q0 83-38 155-5 9-2 18t11.5 13.5 17.5 2 14-11.5q44-83 44-177 0-103-51-190t-138-138-190-51v0zM463 228q-10 0-17 8l-146 161q-7 7-6.5 16.5t8 16 17 6 15.5-7.5l131-144 339 297q7 6 16.5 5.5t16-8 5.5-17-8-15.5l-356-312q-6-6-15-6z" />
<glyph unicode="&#xe622;" glyph-name="project" d="M211 765h166q26 0 44-18t18-44v-185q0-26-18-44t-44-18h-166q-25 0-43.5 18t-18.5 44v185q0 25 18.5 43.5t43.5 18.5zM108 518q0-43 30-73t73-30h166q43 0 73.5 30t30.5 73v185q0 43-30.5 73t-73.5 30h-166q-43 0-73-30t-30-73v-185zM647 765h166q25 0 43.5-18t18.5-44v-185q0-26-18.5-44t-43.5-18h-166q-26 0-44 18t-18 44v185q0 25 18 43.5t44 18.5zM543 518q0-43 30.5-73t73.5-30h166q43 0 73 30t30 73v185q0 43-30 73t-73 30h-166q-43 0-73.5-30t-30.5-73v-185zM211 312h166q26 0 44-18t18-44v-185q0-25-18-43.5t-44-18.5h-166q-25 0-43.5 18t-18.5 44v185q0 26 18.5 44t43.5 18zM108 65q0-43 30-73t73-30h166q43 0 73.5 30t30.5 73v185q0 43-30.5 73t-73.5 30h-166q-43 0-73-30t-30-73v-185zM811 3h-164q-26 0-44 18t-18 44v185q0 26 18 44t44 18h166q25 0 43.5-18t18.5-44v-185q0-8 6-14.5t14.5-6.5 14.5 6.5 6 14.5v185q0 43-30 73t-73 30h-166q-43 0-73.5-30t-30.5-73v-185q0-43 30.5-73t73.5-30h165q9 0 15 6t6 14.5-6 14.5-14 6h-2z" />
<glyph unicode="&#xe623;" glyph-name="tel" d="M871 122q-19-28-51-61-45-47-70-47h-1q-54 2-118 32-117 55-259.5 197.5t-197.5 259.5q-30 64-32 118v0q-1 25 47 71 33 32 61 51 19 13 40 12 20-2 30-16 6-9 49-74.5t51-77.5q14-22-4-56-7-15-38-69 32-45 99-113 80-80 120-104 13-7 5.5-20t-20.5-5q-43 25-126 108-83 84-108 126-5 8 0 15 37 66 42 75 10 19 5 27-7 12-50.5 77.5t-48.5 72.5q-3 4-10.5 4t-18.5-6q-26-18-57-48-39-37-38-49v0q1-48 29-106 53-112 192-251t251-192q58-28 106-29v0q3 0 11 5 15 9 38 33 30 31 48 57 6 11 6 18.5t-4 10.5q-8 6-73.5 49.5t-76.5 49.5q-6 4-22-3-2-1-5-2-13-7-20 6t7 20l6 4q30 12 50 0 10-6 75.5-49.5t75.5-50.5q15-10 16.5-30.5t-11.5-39.5v0zM698 593.5q0-25.5-15.5-46t-40.5-26.5h-3q-12 0-15 11-1 6 2 11t9 7q15 4 24.5 16t9.5 27.5-9.5 28-24.5 16.5q-6 1-9 6.5t-1.5 11.5 6.5 9 11 1q25-6 40.5-26.5t15.5-46zM786 594q0-43-21.5-80t-59.5-57q-3-2-7-2-9 0-13 8-7 13 6 20 30 16 48 46t18 64.5-18 64.5-48 47q-13 7-6 20t20 6q38-21 59.5-57.5t21.5-79.5z" />
<glyph unicode="&#xe624;" glyph-name="calendar" d="M216 62q-25 0-42.5 17.5t-17.5 42.5v541l-20-20h673q24 0 41.5-18t17.5-42v-451q0-9 6-14.5t14-5.5 14 5.5 6 14.5v451q0 41-29 70.5t-70 29.5h-673q-8 0-14-6t-6-14v-541q0-42 29.5-71.5t70.5-29.5h583q8 0 14 6t6 14.5-6 14.5-14 6h-583zM334 583q0-9 6-14.5t14-5.5 14 5.5 6 14.5v150q0 8-6 14t-14 6-14-6-6-14v-150zM670 593q0-9 6-14.5t14-5.5 14 5.5 6 14.5v150q0 8-6 14t-14 6-14-6-6-14v-150zM374 462q8 0 13.5 6t5.5 14.5-5.5 14-13.5 5.5h-109q-8 0-14-5.5t-6-14 6-14.5 14-6h109zM591 462q8 0 14 6t6 14.5-6 14-14 5.5h-109q-8 0-13.5-5.5t-5.5-14 5.5-14.5 13.5-6h109zM789 462q8 0 14 6t6 14.5-6 14-14 5.5h-109q-8 0-14-5.5t-6-14 6-14.5 14-6h109zM374 342q8 0 13.5 6t5.5 14-5.5 14-13.5 6h-109q-8 0-14-6t-6-14 6-14 14-6h109zM591 342q8 0 14 6t6 14-6 14-14 6h-109q-8 0-13.5-6t-5.5-14 5.5-14 13.5-6h109zM789 342q8 0 14 6t6 14-6 14-14 6h-109q-8 0-14-6t-6-14 6-14 14-6h109zM374 222q8 0 13.5 6t5.5 14-5.5 14-13.5 6h-109q-8 0-14-6t-6-14 6-14 14-6h109zM591 222q8 0 14 6t6 14-6 14-14 6h-109q-8 0-13.5-6t-5.5-14 5.5-14 13.5-6h109zM789 222q8 0 14 6t6 14-6 14-14 6h-109q-8 0-14-6t-6-14 6-14 14-6h109z" />
<glyph unicode="&#xe625;" glyph-name="card" horiz-adv-x="1041" d="M148 5q-32 0-54 22.5t-22 53.5v520q0 32 22 54.5t54 22.5h728q31 0 53.5-22.5t22.5-54.5v-520q0-31-22.5-53.5t-53.5-22.5h-728zM121 107q0-33 10-43t43-10h676q33 0 43 10t10 43v340h-782v-340zM174 629q-33 0-43-10.5t-10-43.5v-79h782v79q0 33-10 43.5t-43 10.5h-676zM461 135v101h50v-101h-50zM332 135v101h49v-101h-49zM202 135v101h49v-101h-49z" />
<glyph unicode="&#xe626;" glyph-name="tbd" d="M404 303q9 12 23.5 33.5t58 80.5 83.5 110 90.5 106.5 88.5 86.5q49 40 95 53.5t77.5 2 49-44.5 13.5-81q-4-46-22-95t-42.5-87.5-41.5-61.5-29-36q-8-10-18.5-19t-14.5-12.5-3-4.5q14-10 22.5-39.5t5-70-24.5-72.5q-31-45-76-61.5t-108 2.5q-36 21-60 39.5t-60 52.5q-28 26-54.5 55.5t-39.5 46.5zM377 349.5q0 9.5 7 16t16 6.5 16-6.5 7-16-7-16-16-6.5-16 6.5-7 16zM389 304q-21 35-52 87t-97 150-94 120q-32 26-58 28.5t-39-22-6-73.5q10-73 37-138t58-98l18-19q-23-47-3-118 21-75 74-90 22-5 35.5 4t39.5 37q5 4 7 7 22 23 42 55t29 50.5 9 19.5zM397 293q-11-14-27.5-37t-43-72.5-25.5-71.5q2-35 18.5-53.5t53.5-36.5q23-11 40-9.5t27 5.5 10 5q5-6 15-14t39-23 57-16q46-3 51.5 27t-23.5 72q-16 30-64 86t-88 97.5-40 40.5v0zM397 283q19-40 32-92 15-56 15-121-22 32-38 108-6 33-8.5 59.5t-1.5 36.5z" />
<glyph unicode="&#xe627;" glyph-name="add" d="M329 427q0 18 13 30.5t31 12.5 30.5-12.5 12.5-30.5-12.5-31-30.5-13-31 13-13 31zM472 264l-63 30-106-102h418l-149 169zM728-100h52v31h-52v-31zM686 671v29h-53v-29h53zM865 671q14 0 14-19v-43h33v68q0 10-6.5 16.5t-16.5 6.5h-72v-29h48zM779 671v29h-49v-29h49zM490 700h-50v-29h50v29zM912-5h-33v-52q0-12-11-12h-51v-31h72q10 0 17 6v1l1 1 4 6q1 4 1 9v72zM394 700h-53v-29h53v29zM912 184h-33v-53h33v53zM912 281h-33v-52h33v52zM912 573h-33v-52h33v52zM879 423h33v54h-33v-54zM879 327h33v51h-33v-51zM912 88h-33v-55h33v55zM144 573h-32v-55h32v55zM588 700h-52v-29h52v29zM436-100h52v31h-52v-31zM338-69v-31h53v31h-53zM244 671h52v29h-52v-29zM245-69v-31h49v31h-49zM630-100h53v31h-53v-31zM534-100h50v31h-50v-31zM144 371h-32v-47h32v47zM144 278h-32v-50h32v50zM112 32h32v52h-32v-52zM112 677v-72h32v53q0 8 3.5 10.5t12.5 2.5h47v29h-72q-10 0-16.5-6.5t-6.5-16.5zM144 474h-32v-53h32v53zM144 177h-32v-48h32v48zM207-69h-53q-10 0-10 15v49h-32v-72q0-10 6.5-16.5t16.5-6.5v0h72v31z" />
<glyph unicode="&#xe628;" glyph-name="home" d="M708 51h-58q-10 0-17.5 7.5t-7.5 17.5v179h-109v-179q0-10-7.5-17.5t-17.5-7.5h-179q-33-1-57 21-24 23-24 64v217h-85q-17 0-24 15.5t6 27.5l323 323q7 7 18 7t18.5-7.5 7.5-18-8-18.5l-279-278h48q11 0 18.5-7.5t7.5-18.5v-242q0-19 8.5-27t19.5-7h155v179q0 11 7.5 18.5t18.5 7.5h159q11 0 18.5-7.5t7.5-18.5v-179h31q17-1 27 8 8 8 8 26v242q0 11 7.5 18.5t18.5 7.5h49l-228 227q-7 8-7 18.5t7.5 18 18 7.5 17.5-7l271-272q13-12 6-27.5t-24-15.5h-85v-217q0-41-25-64-24-21-60-21z" />
<glyph unicode="&#xe629;" glyph-name="carditemcode2" d="M647 335q-70 0-120-50t-50-120 50-119.5 120-49.5 119.5 49.5 49.5 119.5-49.5 120-119.5 50v0zM745 96q0-32-94-32-95 0-95 32v7q0 12 19 25t43 22q13 5 7 21-25 25-25 61 0 25 14.5 39.5t36 14.5 36-14.5 14.5-39.5q0-35-24-61v0q-6-18 4-21 26-8 45-21t19-26v-7zM438 374v230h-230v-230h42v-42h42v42h146zM250 416v146h146v-146h-146zM292 521h62v-63h-62v63zM564 604v-230h231v230h-231zM753 416h-147v146h147v-146zM648 521h63v-63h-63v63zM208 332h42v-42h-42v42zM292 332h41v-42h-41v42zM333 248h-125v-231h230v231h-63v42h-42v-42zM396 206v-147h-146v147h146zM292 164h62v-63h-62v63zM480 583h42v-62h-42v62zM480 479h42v-42h-42v42zM480 395h42v-63h-42v63zM375 332h105v-42h-105v42z" />
<glyph unicode="&#xe62a;" glyph-name="paydefault" d="M764 757q-114 77-252 77-186 0-318-132t-132-318 132-318 318-132 318 132 132 318q0 136-75 249l-32-20q69-104 69-229 0-112-55-207t-150-150-207-55-207 55-150 150-55 207 55 207 150 150.5 207 55.5q126 0 231-71zM703 626l-137-232h120v-41h-147v-65h147v-41h-147v-137h-54v137h-146v41h146v65h-146v41h119l-139 232h60l134-227 132 227h58z" />
<glyph unicode="&#xe62b;" glyph-name="read" d="M456 18q-2 0-3 1l-252 28q-34 0-58.5 24.5t-24.5 59.5v534q0 35 25 60t60 25q1 0 3-1l251-27q35-1 59-25.5t24-59.5v-534q0-35-24.5-60t-59.5-25zM201 693q-11 0-19-8t-8-20v-534q0-12 8.5-20t20.5-8h3l251-28q11 0 19 8t8 20v534q0 12-8.5 20t-19.5 8h-3zM597 22q-10 0-18 7t-10 18q-1 11 6.5 20t18.5 11l224 25h3q12 0 20.5 8t8.5 20v534q0 12-8 20t-19 8l-223-24q-11-2-20 5.5t-10.5 19 6 20.5 18.5 11l224 24q2 1 3 1 35 0 60-25t25-60v-534q0-35-24.5-59.5t-58.5-24.5l-222-25h-4z" />
<glyph unicode="&#xe62c;" glyph-name="projectadd02" d="M76 79q-1 0-1 1zM907 581v53q0 23-16 38.5t-38 15.5h-466q-3 2-7 7-5 6-14 20-9 15-14.5 22.5t-15.5 15-21 7.5h-198q-22 0-37.5-16t-15.5-38v-614q0-1 1-2v0 0-1q0-1 0.5-1t0.5-1v0q1-2 3-3 0-1 0.5-1t0.5-0.5 0.5-0.5 1-0.5 1-0.5 0.5-1h2q1-1 1.5-1h1.5t2-0.5 2-0.5v0h2q0 1 0.5 1h3.5v1h1l0.5 0.5t1.5 0.5v0q1 1 2 1 0 1 0.5 1t1 0.5 0.5 1v0.5q1 0 1 1v0q1 0 1 1l1 1v2h1v3l90 432v2q0 7 5.5 12.5t12.5 5.5h700q7 0 12-5t5-12l-89-482v-4q0-7-5.5-12t-12.5-5h-524q-7 0-12.5-5.5t-5.5-13 5.5-12.5 12.5-5h524q22 0 37.5 15t16.5 37v0l89 484v2q0 22-15.5 38t-37.5 16v0zM871 581h-664q-22 0-37.5-15.5t-16.5-36.5l-53-258v435q0 7 5 12.5t12 5.5h197q3-1 8-7l14-21q9-14 14.5-21.5t15.5-15 20-7.5h467q7 0 12.5-5t5.5-13v-53zM676 279.5q0-7.5-5.5-13t-12.5-5.5h-128v-127q0-8-5.5-13t-12.5-5-12.5 5-5.5 13v127h-128q-7 0-12.5 5.5t-5.5 13 5.5 12.5 12.5 5h128v128q0 8 5.5 13t12.5 5 12.5-5 5.5-13v-128h128q7 0 12.5-5t5.5-12.5z" />
<glyph unicode="&#xe62d;" glyph-name="projectadd" horiz-adv-x="1025" d="M836 627h-306q-14 0-24.5 9.5t-11.5 23.5v4q-3 27-23.5 46.5t-48.5 19.5h-234q-29 0-50.5-21.5t-21.5-52.5v-542q0-30 21.5-51.5t50.5-21.5h648q29 0 50.5 21.5t21.5 51.5v440q0 30-21.5 51.5t-50.5 21.5v0zM872 114q0-15-10.5-26t-25.5-11h-648q-14 0-25 11t-11 26v403h720v-403zM152 554v102q0 15 11 26t25 11h234q14 0 24-9.5t12-23.5v-4q3-28 23.5-47t48.5-19h306q15 0 25.5-10.5t10.5-25.5h-720zM404 279h90v-92q0-7 5.5-12.5t12.5-5.5 12.5 5.5 5.5 12.5v92h90q7 0 12.5 5.5t5.5 13-5.5 13-12.5 5.5h-90v91q0 8-5.5 13.5t-12.5 5.5-12.5-5.5-5.5-13.5v-91h-90q-7 0-12.5-5.5t-5.5-13 5.5-13 12.5-5.5v0z" />
<glyph unicode="&#xe62e;" glyph-name="csad" d="M533 334q80 0 136.5 57t56.5 138-56.5 138-136.5 57-136.5-57-56.5-138 56.5-138 136.5-57v0zM533 369q-65 0-111.5 47t-46.5 113 46.5 113 112 47 111.5-47 46-113-46-113-112-47v0zM915-38q0 111-53.5 204.5t-146.5 148-202.5 54.5-202.5-54.5-146.5-148-53.5-204.5h35q0 101 49 186.5t134 135.5 184.5 50 184.5-50 134-135.5 49-186.5h35zM283 334q29 0 50 21t21 51-21 51-50.5 21-50.5-21-21-51 21-51 51-21v0zM283 369q-15 0-26 11t-11 26 11 26 26 11 25.5-11 10.5-26-10.5-26-25.5-11v0zM774 377q4 1 15.5 5t17.5 6q1 0 2 1 13 4 28 10 7 2 13 4l12 4v177l-10 5q-4 2-9 5-11 5-21 10-1 0-2 1-12 6-18 10-3 2-5 3 2-2 4-6-37 85-112.5 139.5t-160.5 54.5q-120 0-205-86t-85-207q0-29 6-56l34 6q-5 25-5 50 0 107 75 182.5t180 75.5q74 0 141-48.5t99-123.5q3-6 8-9.5t28-15.5q1-1 2-1 10-5 21-11 6-3 9-4l-9 15v-153l11 16q-5-2-13-4-15-6-28-10-1-1-2-1-18-7-27-10-7-3-10-4l-4-2q-1-1-3-2-13-6-6-20 4-7 15.5-7.5t13.5 1.5z" />
<glyph unicode="&#xe62f;" glyph-name="laptopphone" d="M571 140h-316q-25 0-42 17.5t-17 42.5v316q0 25 17 42.5t42 17.5h514q25 0 42-17.5t17-42.5v-39q0-9-5.5-14.5t-14-5.5-14 5.5-5.5 14.5v39q0 8-6 14t-14 6h-514q-8 0-14-6t-6-14v-316q0-8 6-14t14-6h316q9 0 14.5-6t5.5-14-5.5-14-14.5-6zM571-18h-395q-25 0-42.5 17.5t-17.5 42.5v39q0 8 6 14t14 6h435q9 0 14.5-6t5.5-14-5.5-14-14.5-6h-415v-19q0-9 6-14.5t14-5.5h395q9 0 14.5-6t5.5-14-5.5-14-14.5-6v0zM848-18h-158q-25 0-42 17.5t-17 42.5v316q0 25 17 42t42 17h158q25 0 42.5-17t17.5-42v-316q0-25-17.5-42.5t-42.5-17.5zM690 378q-8 0-14-6t-6-14v-316q0-9 6-14.5t14-5.5h158q8 0 14 5.5t6 14.5v316q0 8-6 14t-14 6h-158zM769 61q-8 0-14 6t-6 14 6 14 14 6 14-6 6-14-6-14-14-6z" />
<glyph unicode="&#xe630;" glyph-name="punch" d="M568 502h-112q-12 0-20-8t-8-19.5 8-20 20-8.5h112q12 0 20 8.5t8 20-8 19.5-20 8zM568 390h-112q-12 0-20-8.5t-8-20 8-19.5 20-8h112q12 0 20 8t8 19.5-8 20-20 8.5zM287 165h450q12 0 20 8t8 20-8 20-20 8h-28v394q0 11-8.5 19.5t-19.5 8.5h-338q-11 0-19.5-8.5t-8.5-19.5v-394h-28q-12 0-20-8t-8-20 8-20 20-8zM371 587h282v-366h-282v366zM850 459q0 36-17 53.5t-39 17.5h-1q-11 0-19-8t-8-20q0-10 7-18t18-10q2-5 2-16l24-406h-610l24 407q0 10 3 15 11 2 18 10t7 18q0 12-8.5 20t-19.5 8q-24 0-40-20t-16-49l-29-476q0-30 18.5-51.5t44.5-21.5h613q23 0 39.5 19t16.5 56zM819-32h-609q-7 3-7 16v12h618v-11q0-10-2-17z" />
<glyph unicode="&#xe631;" glyph-name="addsmall" d="M863 413l-317 2v318q0 13-9.5 22.5t-22.5 9.5-22.5-9.5-9.5-22.5v-318l-322 1q-14 0-23-9.5t-9.5-22.5 9-22.5 22.5-9.5l323-1v-319q0-14 9.5-23t22.5-9 22.5 9 9.5 23v319l317-2q13 0 22.5 9.5t9.5 23-9 22.5-23 9z" />
<glyph unicode="&#xe632;" glyph-name="inbox" d="M915 368l-114 260q-9 22-32 36.5t-46 14.5h-422q-23 0-46-14.5t-32-36.5l-114-260q-19-43-19-89v-169q0-26 18.5-45t44.5-19h718q26 0 44.5 19t18.5 45v169q0 46-19 89zM261 611q5 10 17 18t23 8h422q11 0 23-8t17-18l114-260q1-4 3-10-4 1-9 1h-254q-8 0-14.5-6.5t-6.5-14.5v-21q0-35-24.5-60t-59.5-25-59.5 25-24.5 60v21q0 8-6.5 14.5t-14.5 6.5h-254q-5 0-9-1 2 6 3 10zM892 110q0-9-6.5-15t-14.5-6h-718q-8 0-14.5 6t-6.5 15v169q0 8 6.5 14.5t14.5 6.5h232q0-53 37.5-90t89.5-37 89.5 37 37.5 90h232q8 0 14.5-6.5t6.5-14.5v-169z" />
<glyph unicode="&#xe633;" glyph-name="browse" d="M512-38q-114 0-211.5 56.5t-154 154-56.5 211.5 56.5 211.5 154 154 211.5 56.5 211.5-56.5 154-154 56.5-211.5-56.5-211.5-154-154-211.5-56.5zM512 771q-105 0-194-52t-141-141-52-194 52-194 141-141 194-52 194 52 141 141 52 194-52 194-141 141-194 52zM310 164q-7 0-12 6-9 8-4 19l114 290q3 8 11 10l290 115q13 3 19-4 9-9 4-19l-115-290q-2-7-9-10t-13.5-0.5-10 9.5-0.5 13l100 253-244-96-97-245 180 71q6 2 13-1t9-10q3-6 0-13t-10-10l-216-86q-6-2-9-2zM482 384q0-12 9-21t21-9 21 9 9 21-9 21-21 9-21-9-9-21z" />
<glyph unicode="&#xe634;" glyph-name="conowmessage" d="M368 454h312v31h-312v-31zM511.5 741q-100.5 0-186-43.5t-135-117.5-49.5-161q0-77 39-144t106-112v-136l121 83q51-13 104-13 101 0 186 43t134.5 117 49.5 161.5-49.5 161.5-134.5 117.5-185.5 43.5zM511 129q-59 0-114 17l-29-24h0.5t0.5-1l-50-36-1 66v30q-67 40-106 102.5t-39 135.5q0 78 45.5 145t123.5 105.5 169.5 38.5 169.5-38.5 123-105.5 45-145.5-45-145-123-105.5-170-39zM416 338h218v28h-218v-28z" />
<glyph unicode="&#xe635;" glyph-name="mapbig" d="M455-68q20-22 47.5-22t46.5 22q4 5 14 15 17 20 36 42 60 72 110 141 54 76 91 142 72 129 72 215 0 102-49.5 189t-134.5 137.5-186 50.5-186-50.5-134.5-137.5-49.5-189q0-86 72-215 37-66 91-142 50-70 110-141 19-22 37-42 9-10 14-16zM488-37q-4 5-13 15-17 19-36 41-59 70-108 138-52 74-88 137-66 119-66 193 0 90 43.5 166.5t118.5 120.5 163 44 163-44 118.5-120.5 43.5-166.5q0-74-66-192-35-64-88-138-49-68-108-138-19-22-36-41-8-10-13-15-6-7-14-7t-13 6l-1 1zM702 426q13 35 13 72 0 85-59 145.5t-142.5 60.5-143-60.5-59.5-145.5 59.5-145 142.5-60q51 0 95 24 8 4 11 13t-1.5 17.5-13.5 11-17-1.5q-35-19-74-19-65 0-111 47t-46 113.5 46 113 111 46.5 111-46.5 46-113.5q0-29-10-56-3-9 1-17.5t12.5-12 17 0.5 11.5 13v0z" />
<glyph unicode="&#xe636;" glyph-name="tomb" d="M684 397v0q-32 0-53 25-58 2-70 28-15 33 46 109l3 4 3-4q14-16 41-43 19-19 28-29t19-26.5 13-33.5q3-11-4-19-8-11-26-11zM606 544q-49-64-37-90 10-22 64-24h2l2-1q18-23 47-23v0q14 0 20 7 4 5 2 12-3 16-12.5 31.5t-18.5 25.5-27 28q-20 20-30 31 0-2 2-7 4-18 9-50.5t1-36.5l-1-2h-3q-4 0-9 12-15 46-12 76 0 8 1 11zM613 525q0-22 8-51-3 27-8 51zM611 568v0q-2 0-5 1-5 2-8 7t-1 11 7.5 8.5 11 0.5 8.5-7.5 1-10.5q-4-10-14-10zM611 588q-4 0-6-4 0-2 1-4t3-3q6-2 8 3.5t-4 7.5h-2zM530 476v0h-6q-18 4-30.5 32t-5.5 72q-81 124-40 167 7 6 16 6 31 0 82-74.5t64-119.5l1-2-1-1q-48-80-80-80zM464 745q-6 0-10-4-9-10-10-26.5t4-33.5 14.5-37 17.5-34 16-27l1-1v-2q-7-43 4-67.5t25-27.5q28-6 76 73-15 45-63 116t-75 71zM754 447q-29 0-47.5 13t-51.5 49q-26 29-44 47l-2 2 2 3q55 81 103 137.5t96 80.5q16 8 32 8 21 0 36-12.5t19-33.5q8-36-20.5-87.5t-61.5-78.5q27-40 5-85-20-42-62-43h-4zM620 559q16-17 42-45 23-25 33.5-35t26.5-17 36-6q36 1 54 37 10 20 8.5 42t-14.5 38l-2 4 3 2q30 24 59.5 75t22.5 85q-4 18-16.5 28.5t-30.5 10.5q-14 0-28-7-46-23-93.5-78t-100.5-134zM827-34h-660v137h50v88h120v350h144v-5q0-5 1.5-15.5t9.5-28.5 21-24q4-2 9-2 9 0 19 7 4 4 6 4 8-1 9-9 0-1-1-3-4-20 4-32 11-15 43-18 12-2 21-2h2l1-2q9-14 28-20h3v-200h120v-88h50v-137zM175-25h644v120h-50v87h-120v202q-17 7-28 20-12 1-20 2-35 4-49 22-11 15-5 38v1l-1-1q-13-8-24-8-8 0-13 3-32 13-36 71h-128v-350h-120v-87h-50v-120z" />
<glyph unicode="&#xe637;" glyph-name="circleadd" d="M512 800q-172 0-294-122t-122-294 122-294 294-122 294 122 122 294-122 294-294 122zM512 0q-159 0-271.5 112.5t-112.5 271.5 112.5 271.5 271.5 112.5 271.5-112.5 112.5-271.5-112.5-271.5-271.5-112.5zM776 400h-248v248q0 8-8 8h-16q-8 0-8-8v-248h-248q-8 0-8-8v-16q0-8 8-8h248v-248q0-8 8-8h16q8 0 8 8v248h248q8 0 8 8v16q0 8-8 8z" />
<glyph unicode="&#xe638;" glyph-name="arrow" d="M596 370l-206 197q-6 8-5.5 18t8.5 16.5 18.5 6 16.5-8.5l206-197q6-8 5.5-18.5t-8.5-17-18.5-5.5-16.5 9zM390 200l206 198q6 7 16.5 8t18.5-5.5 8.5-16.5-5.5-18l-206-197q-6-8-16.5-9t-18.5 5.5-8.5 16.5 5.5 18z" />
<glyph unicode="&#xe639;" glyph-name="history" d="M539 739q-141 0-244.5-94.5t-117.5-233.5h-38l54-109 55 109h-34q13 124 106 208t219 84q89 0 164.5-44t119.5-119.5 44-164.5-44-164.5-119.5-119.5-164.5-44q-77 0-144.5 34t-113.5 93l-29-22q51-66 126-103.5t161-37.5q99 0 183 48.5t132.5 132.5 48.5 183-48.5 183-132.5 132.5-183 48.5zM539.5 630q-7.5 0-13-5.5t-5.5-12.5v-238q0-12 9-18l164-88q7-4 14-2t11 9.5 2 15.5-9 12l-154 82v227q0 7-5.5 12.5t-13 5.5z" />
<glyph unicode="&#xe63a;" glyph-name="successblock" d="M512 757q101 0 187-50t136-136 50-187-50-187-136-136-187-50-187 50-136 136-50 187 50 187 136 136 187 50zM738 513l-15 15q-6 6-14.5 6t-14.5-6l-235-234-87 87q-6 7-15 7t-15-7l-14-14q-6-6-6-14.5t6-14.5l117-118q6-6 14.5-6t14.5 6l264 264q6 6 6 14.5t-6 14.5z" />
<glyph unicode="&#xe63b;" glyph-name="unchecked" d="M512 752q100 0 184.5-49.5t134-134 49.5-184.5-49.5-184.5-134-134-184.5-49.5-184.5 49.5-134 134-49.5 184.5 49.5 184.5 134 134 184.5 49.5zM512 784q-109 0-201-53.5t-145.5-145.5-53.5-201 53.5-201 145.5-145.5 201-53.5 201 53.5 145.5 145.5 53.5 201-53.5 201-145.5 145.5-201 53.5v0z" />
<glyph unicode="&#xe63c;" glyph-name="set" d="M554 736l23-83q73-20 126-72l82 21 53-93-59-59q10-37 10-73t-10-74l3-2 57-59-54-93-80 20-4 3q-53-51-124-70v-5l-23-79h-107l-23 79v6q-69 21-120 71l-9-5-80-20-53 93 57 59 9 6q-10 36-10 70t9 69l-5 2-60 61 54 93 83-21 3-2q52 52 122 72v2l23 83h107zM577 766h-153l-6-23-19-68q-59-21-105-62l-93 24-76-133 69-70q-6-29-6-57t6-58l-69-72 76-132 96 24q45-39 101-58l26-93h152l7 22 20 68q58 20 105 60l92-23 76 132-64 66q7 32 7 64 0 31-7 63l64 64-77 133-87-23q-49 43-110 63zM504 512q56 0 95.5-39.5t39.5-95.5-39.5-95.5-95.5-39.5-95.5 39.5-39.5 95.5 39.5 95.5 95.5 39.5zM504 542q-68 0-116.5-48.5t-48.5-117 48.5-116.5 117-48 116.5 48 48 116.5-48 117-117 48.5v0z" />
<glyph unicode="&#xe63d;" glyph-name="unchecked-s" d="M512 640q106 0 181-75t75-181-75-181-181-75-181 75-75 181 75 181 181 75zM512 672q-119 0-203.5-84.5t-84.5-203.5 84.5-203.5 203.5-84.5 203.5 84.5 84.5 203.5-84.5 203.5-203.5 84.5v0z" />
<glyph unicode="&#xe63e;" glyph-name="code03" d="M342 835h-245q-9 0-15-6t-6-15v-245q0-9 6-15t15-6h245q8 0 14 6t6 15v245q0 9-6 15t-14 6zM321 589h-204v205h204v-205zM927 835h-245q-8 0-14-6t-6-15v-245q0-9 6-15t14-6h245q9 0 15 6t6 15v245q0 9-6 15t-15 6zM907 589h-204v205h204v-205zM927 246h-245q-8 0-14-6t-6-15v-265q0-9 6-15t14-6h245q9 0 15 6t6 15v265q0 9-6 15t-15 6zM907-20h-204v225h204v-225zM948 456.5q0-8.5-6-14.5t-15-6h-830q-9 0-15 6t-6 14.5 6 14.5 15 6h830q9 0 15-6t6-14.5zM482 811v-242q0-9-6-15t-14.5-6-14.5 6-6 15v242q0 8 6 14t14.5 6 14.5-6 6-14zM589 811v-242q0-9-6-15t-14.5-6-14.5 6-6 15v242q0 8 6 14t14.5 6 14.5-6 6-14zM426 225v-268q0-8-6-14t-14.5-6-14.5 6-6 14v268q0 9 6 15t14.5 6 14.5-6 6-15zM557 352v-395q0-8-6-14t-14.5-6-14.5 6-6 14v395q0 8 6 14t14.5 6 14.5-6 6-14zM166 352v-395q0-8-6-14t-14.5-6-14.5 6-6 14v395q0 8 6 14t14.5 6 14.5-6 6-14zM296 225v-268q0-8-6-14t-14.5-6-14.5 6-6 14v268q0 9 6 15t14.5 6 14.5-6 6-15zM948 351.5q0-8.5-6-14.5t-15-6h-245q-8 0-14 6t-6 14.5 6 14.5 14 6h245q9 0 15-6t6-14.5zM431 351.5q0-8.5-6-14.5t-15-6h-137q-8 0-14 6t-6 14.5 6 14.5 14 6h137q9 0 15-6t6-14.5z" />
<glyph unicode="&#xe63f;" glyph-name="supplies02" horiz-adv-x="1352" d="M1165 780h-248q-30 0-50-22l-33-33q-9-9 0-17.5t17-0.5l33 34q14 14 33 14h248q5 0 8.5-3.5t3.5-9.5v-248q0-19-14-33l-348-345q-9-9-18 0l-66 65q-9 9-17.5 0.5t0.5-17.5l65-66q11-11 27-11 15 0 26 11l348 345q22 21 22 51v248q0 16-11 27t-26 11v0zM1128 655.5q0 20.5-14.5 35t-34.5 14.5-34.5-14.5-14.5-35 14.5-35 34.5-14.5 34.5 14.5 14.5 35zM1054 656q0 10 7.5 17.5t17.5 7.5 17.5-7.5 7.5-17.5-7.5-17.5-17.5-7.5-17.5 7.5-7.5 17.5zM570 681q-30 0-50-22l-346-349q-11-11-10.5-26.5t10.5-26.5l258-258q11-11 27-11 15 0 26 11l348 345q22 21 22 51v249q0 15-11 26t-26 11h-248zM831 644v-249q0-18-15-33l-348-345q-10-9-18 0l-258 258q-9 9 0 18l345 349q14 14 33 14h248q5 0 9-3.5t4-8.5v0zM732 606q-20 0-34.5-14.5t-14.5-34.5 14.5-34.5 34.5-14.5 34.5 14.5 14.5 34.5-14.5 34.5-34.5 14.5zM732 532q-10 0-17.5 7.5t-7.5 17.5 7.5 17.5 17.5 7.5 17.5-7.5 7.5-17.5-7.5-17.5-17.5-7.5z" />
<glyph unicode="&#xe640;" glyph-name="friend" d="M859 282q-46 67-118 96 32 22 51 57 23 41 23 88 0 72-48.5 123t-117.5 51q-10 0-16.5-7t-6.5-17 6.5-16.5 16.5-6.5q49 0 84-37.5t35-90-35-89.5-84-37q-10 0-16.5-7t-6.5-17v0q0-10 6.5-17t16.5-7q88 0 150.5-66.5t62.5-160.5q0-10 7-17t17-7 16.5 7 6.5 17q0 89-50 161zM616 322q-37 27-80 42 45 27 71 73t26 99q0 83-59 142t-142 59-142-59-59-142q0-58 30-107 26-41 67-66-43-15-81-42-41-29-71-69-64-85-64-192 0-9 7-16t16.5-7 16.5 7 7 16q0 113 79.5 193t191.5 80q3 0 7 1h2q108-2 186-80 79-80 79-193 0-9 7-16t17-7 17 7 7 16q0 107-64 192-31 40-72 69zM432 690q64 0 109-45.5t45-109-45-109-109-45.5-109 45.5-45 109 45 109 109 45.5z" />
<glyph unicode="&#xe641;" glyph-name="supplies" d="M795 343l-328-306q-19-17-45-17t-44 18l-216 209q-18 17-18.5 42t17.5 43l395 405-14-6h271q25 0 43-18t18-43v-261q0-8 5.5-14t14-6 14.5 6 6 14v261q0 42-29.5 71.5t-71.5 29.5h-271q-8 0-14-6l-396-405q-29-30-28.5-71.5t30.5-70.5l216-209q30-29 72-29.5t72 28.5l329 306q6 6 6 14t-5.5 14-14 6.5-14.5-5.5v0zM703 469q37 0 63.5 26.5t26.5 64-26.5 64-64 26.5-64-26.5-26.5-64 26.5-64 64.5-26.5v0zM703 510q-21 0-35.5 14.5t-14.5 35.5 14.5 35.5 35.5 14.5 35.5-14.5 14.5-35.5-14.5-35.5-35.5-14.5v0z" />
<glyph unicode="&#xe642;" glyph-name="editor" d="M782-36h-540q-37 0-63.5 26.5t-26.5 63.5v600q0 37 26.5 63.5t63.5 26.5h420q12 0 21-9t9-21-9-21-21-9h-420q-12 0-21-9t-9-21v-600q0-12 9-21t21-9h540q12 0 21 9t9 21v480q0 12 9 21t21 9 21-9 9-21v-480q0-37-26.5-63.5t-63.5-26.5zM512 355q-13 0-21.5 9t-8.5 21.5 9 21.5l392 387q9 9 21 9t21-9 9-21.5-9-20.5l-392-388q-9-9-21-9z" />
<glyph unicode="&#xe643;" glyph-name="location2" d="M512 626q-8 0-14 6t-6 14v121q0 8 6 14t14 6 14-6 6-14v-121q0-8-6-14t-14-6v0zM512-19q-8 0-14 6t-6 14v121q0 8 6 14t14 6 14-6 6-14v-121q0-8-6-14t-14-6v0zM250 364h-121q-8 0-14 6t-6 14 6 14 14 6h121q8 0 14-6t6-14-6-14-14-6v0zM895 364h-121q-8 0-14 6t-6 14 6 14 14 6h121q8 0 14-6t6-14-6-14-14-6v0zM895 364q-9 0-14.5 6t-5.5 14q0 98-49 181.5t-132.5 132.5-181.5 49-181.5-49-132.5-132.5-49-181.5 49-181.5 132.5-132.5 181.5-49q101 0 187.5 52.5t133.5 141.5q4 8 12 10.5t15-1.5 9.5-12-0.5-15q-53-100-149-158t-208-58q-109 0-202 54t-147 147-54 202 54 202 147 147 202 54 202-54 147-147 54-202q0-8-6-14t-14-6v0z" />
<glyph unicode="&#xe644;" glyph-name="memorial" d="M475 99l9-1q15-2 28.5-2t28.5 2l8 1 120-191q6-10 17-10 15 0 19 15l18 64q2 9 4 15t5.5 10 5.5 6 7.5 3 7 1.5 8.5 0 9-0.5h7l69-11h3q12 0 17.5 10t-0.5 20l-113 181 6 8q30 40 46 87.5t16 97.5q0 128-90.5 218.5t-218.5 90.5q-19 0-37-2-82-10-148.5-60t-98.5-125q-33-79-22-162 11-80 60-145l6-8-113-181q-7-10-1-20 7-12 21-10l68 11h8q10 3 17.5 2.5t11.5-1.5 7-5.5 4-7.5 3-11.5 3-11.5l18-64q4-15 20-15 11 0 17 10l119 191zM346-32l-22 78q-4 15-20 15h-3l-85-13 106 168-10 11q-68 77-68 178 0 111 78.5 190t189.5 79q26 0 52-5 64-12 115.5-53t77.5-100q33-74 21-153-13-77-65-136l-10-11 106-168-86 13q-7 1-13.5-3t-8.5-12l-22-78-110 175-13-3q-22-3-44-3t-43 3l-14 3zM682 464q-4 12-16 13l-69 10q-25 4-36 27l-31 62q-5 11-17.5 11t-18.5-11l-30-62q-12-23-37-27l-68-10q-13-1-16.5-13t5.5-21l49-48q18-18 14-43l-12-68q-1-10 5-17t15-7q5 0 10 2l61 33q10 5 22 5t23-5l61-33q5-2 9-2 10 0 16 7t4 17l-11 68q-5 25 14 43l49 48q9 9 5 21zM574 398q-8-7-6-17l11-64-57 30q-10 5-19 0l-57-30 11 64q2 10-6 17l-46 45 64 10q10 1 15 11l28 58 29-58q5-10 15-11l64-10z" />
<glyph unicode="&#xe645;" glyph-name="orderman02" d="M833 346q0 6-3.5 9.5t-8.5 3.5h-334v334q0 5-3.5 8.5t-8.5 3.5q-97 0-179.5-48t-130.5-130-48-180q0-153 102.5-256t255.5-103q94 0 177 49.5t132 132.5 49 176zM141 347q0 135 94 232t228 101v-334q0-5 3.5-8.5t8.5-2.5h333q-3-85-49.5-159.5t-122-118.5-161.5-44q-142 0-238 96t-96 238v0zM549 409h346q5-1 9 3t4 9q0 97-48.5 179.5t-131 130.5-179.5 48q-5 0-8.5-3.5t-3.5-8.5v-346q0-6 3.5-9.5t8.5-2.5zM561 755q131-5 224-98t98-224h-322v322z" />
<glyph unicode="&#xe646;" glyph-name="calendarsmall" d="M768 679h-63v49h-49v-49h-287v49h-48v-49h-48q-57 0-101-43t-44-99v-367q0-55 43.5-92.5t101.5-37.5h495q56 0 92 37t36 93v367q0 58-36.5 100t-91.5 42zM849 170q0-36-22.5-59t-58.5-23h-495q-38 0-67 23.5t-29 58.5v367q0 37 29.5 65.5t66.5 28.5h48v-63h48v63h287v-63h49v63h63q35 0 58-28t23-66v-367zM273 488h96v-48h-96v48zM273 360h96v-48h-96v48zM273 232h96v-48h-96v48zM465 488h95v-48h-95v48zM465 360h95v-48h-95v48zM465 232h95v-48h-95v48zM656 488h97v-48h-97v48zM656 360h97v-48h-97v48z" />
<glyph unicode="&#xe647;" glyph-name="book" d="M335 712q91 2 135-43 13-12 20-28 4-6 4-10v6-440q0 6 10 10 9 4 13 1l-16-20 20 16q-13 18-45 33-58 29-148 29t-141-28q-30-17-40-37l23-11-19 17q5 6 17 1 11-4 11-11v440l-3-13q3 5 9 13 13 17 29 31 53 46 121 44v0zM335 764q-86 1-154-57-33-28-50-58l-3-5v-447q0-28 21.5-36.5t39.5 12.5l3 3 1 3q3 5 19 14 39 22 116 22 78 0 125-24 21-10 27-18l4-4q21-17 41-8t20 36v440l-1 5q-7 33-38 64-59 59-171 58v0zM0 506v-478q0-28 20.5-36.5t40.5 9.5l2 2q4 5 13 13 19 16 43 30 77 45 173 45 94 0 156-51 19-16 33-35 6-9 9-14 5-10 15-13t19.5 1.5 13 14.5-1.5 19q-16 34-55 66-76 63-189 63-110 0-199-52-45-26-68-53l19-17-17 19q4 4 14 0 10-5 10-11v478q0 11-7.5 18.5t-18 7.5-18-7.5-7.5-18.5v0 0zM697 764q-113 1-172-58-31-31-38-64l-1-5v-440q0-27 20.5-36t40.5 8l4 4q6 8 27 18 47 24 125 24 77 0 117-22 15-9 18-14l4-6q19-21 40-12.5t21 36.5v447l-3 5q-17 30-50 58-67 58-154 57h1zM697 712q67 2 120-44 16-14 29-31 7-8 10-13l-4 13v-440q0 7 11 11 12 5 17-1l-19-17 23 11q-10 20-40 37-51 28-141 28t-148-29q-32-15-45-33l21-16-17 20q4 3 14-1t10-10v440l-1-6q1 4 4 10 7 16 20 28 44 45 135 43h1zM973 506v-478q0 6 10 11 10 4 14 0l-17-19 19 17q-23 27-68 53-89 52-199 52-113 0-189-66-38-34-54-69-5-10-1-19.5t13.5-14 19.5-1 14 13.5l9 15q14 20 33 36 61 54 155 54 96 0 173-45 24-14 43-30 9-8 13-13l2-2q20-18 40.5-9.5t20.5 36.5v478q0 11-7.5 18.5t-18 7.5-18-7.5-7.5-18.5v0z" />
<glyph unicode="&#xe648;" glyph-name="code" d="M508 475q7 0 12 5t5 12v259q0 8-5 13t-12 5-12-5-5-13v-259q0-7 5-12t12-5zM854 180h-104q-14 0-24-10t-10-24v-104q0-14 10-24.5t24-10.5h104q14 0 24.5 10.5t10.5 24.5v104q0 14-10.5 24t-24.5 10zM854 76q0-14-10-24t-24-10h-35q-14 0-24.5 10t-10.5 24v35q0 14 10.5 24.5t24.5 10.5h35q14 0 24-10.5t10-24.5v-35zM176 475h197q20 0 34.5 14t14.5 35v196q0 20-14.5 34.5t-34.5 14.5h-197q-20 0-34.5-14.5t-14.5-34.5v-196q0-21 14.5-35t34.5-14zM162 697q0 15 11 26t26 11h150q16 0 27-11t11-26v-150q0-16-11-27t-27-11h-150q-15 0-26 11t-11 27v150zM373 301h-197q-20 0-34.5-14t-14.5-35v-196q0-20 14.5-34.5t34.5-14.5h197q20 0 34.5 14.5t14.5 34.5v196q0 21-14.5 35t-34.5 14zM387 79q0-15-11-26t-27-11h-150q-15 0-26 11t-11 26v150q0 16 11 27t26 11h150q16 0 27-11t11-27v-150zM840 769h-196q-21 0-35-14.5t-14-34.5v-196q0-21 14-35t35-14h196q20 0 34.5 14t14.5 35v196q0 20-14.5 34.5t-34.5 14.5zM854 547q0-16-11-27t-26-11h-150q-16 0-27 11t-11 27v150q0 15 11 26t27 11h150q15 0 26-11t11-26v-150zM508 301q-7 0-12-5t-5-12v-259q0-8 5-13t12-5 12 5 5 13v259q0 7-5 12t-12 5zM871 405h-726q-8 0-13-5t-5-12 5-12 13-5h726q8 0 13 5t5 12-5 12-13 5zM672 301h-52q-10 0-17.5-7.5t-7.5-17.5v-52q0-11 7.5-18.5t17.5-7.5h52q11 0 18.5 7.5t7.5 18.5v52q0 10-7.5 17.5t-18.5 7.5zM646.5 232q-7.5 0-12.5 5t-5 12.5 5 12.5 12.5 5 12.5-5 5-12.5-5-12.5-12.5-5zM612 146q-7 0-12-5t-5-13v-103q0-8 5-13t12-5 12 5 5 13v103q0 8-5 13t-12 5z" />
<glyph unicode="&#xe649;" glyph-name="tag" d="M384-81q-32 0-54 22l-261 261q-22 22-22 54t22 54l440 440q19 19 49 31.5t56 12.5h231q32 0 54.5-22.5t22.5-54.5v-231q0-26-12.5-56t-31.5-49l-440-440q-22-22-54-22v0zM614 742q-16 0-37-8.5t-32-19.5l-439-440q-8-7-8-18t8-18l260-261q7-7 18-7t18 7l440 440q11 11 20 32t9 37v231q0 10-7.5 17.5t-18.5 7.5h-231zM742.5 538q-31.5 0-54 22.5t-22.5 54 22.5 54 54 22.5 54-22.5 22.5-54-22.5-54-54-22.5zM742.5 640q-10.5 0-18-7.5t-7.5-18 7.5-18 18-7.5 18 7.5 7.5 18-7.5 18-18 7.5z" />
<glyph unicode="&#xe64a;" glyph-name="orderman" d="M728-3h-459q-43 0-74 30.5t-31 74.5v569q0 43 31 74t74 31h469q43 0 73.5-31t30.5-74v-322q0-6-4.5-11t-11-5-11 5-4.5 11v322q0 30-21.5 51.5t-51.5 21.5h-469q-30 0-51.5-21.5t-21.5-51.5v-569q0-30 21.5-51.5t51.5-21.5h459q52 0 89 37t37 89q0 7 4.5 11.5t11.5 4.5 11.5-4.5 4.5-11.5q0-65-46.5-111.5t-111.5-46.5v0zM289 552q0-17 12-29t29-12 29 12 12 29.5-12 29.5-29 12-29-12-12-30v0zM681 537h-219q-7 0-11.5 4.5t-4.5 11 4.5 11 11.5 4.5h219q6 0 11-4.5t5-11-5-11-11-4.5zM289 403q0-17 12-29t29-12 29 12 12 29-12 29-29 12-29-12-12-29v0zM681 387h-219q-7 0-11.5 4.5t-4.5 11.5 4.5 11.5 11.5 4.5h219q6 0 11-4.5t5-11.5-5-11.5-11-4.5zM289 253q0-17 12-29t29-12 29 12 12 29-12 29-29 12-29-12-12-29v0zM681 237h-219q-7 0-11.5 4.5t-4.5 11 4.5 11.5 11.5 5h219q6 0 11-5t5-11.5-5-11-11-4.5z" />
<glyph unicode="&#xe64b;" glyph-name="search" d="M458.5 674q-99.5 0-170-70.5t-70.5-170 70.5-169.5 170-70 170 70 70.5 169.5-70.5 170-170 70.5zM458.5 240q-80.5 0-137 57t-56.5 137 56.5 136.5 137 56.5 137-56.5 56.5-136.5-56.5-137-137-57zM793 163l-83 75q-12 11-28.5 10.5t-27.5-13-10-28.5 13-28l82-75q12-10 27-10 17 0 29 13 11 12 10.5 28.5t-12.5 27.5z" />
<glyph unicode="&#xe64c;" glyph-name="idukou01" d="M156 376q78 116 129 157 38 30 64.5 20.5t23.5-47.5q-1-22-13-47t-21-37.5-16-20.5q-4-3-7.5-6.5l-6.5-6.5q9-7 11-27.5t-10-40.5q-25-38-69-23-22 13-45 35t-40 44zM146 393.5q0-8.5 8.5-8.5t8.5 8.5-8.5 8.5-8.5-8.5zM150 377q-67 115-91 134-18 15-30.5 8.5t-8.5-33.5q9-60 36-89l7-7q-9-18-1-45 8-28 27-33 8-2 13.5 1t15.5 14q1 2 2 3 8 8 15.5 20t11.5 19zM153 373q-4-6-10-14.5t-16-27-10-26.5q1-14 7-21t20-13q9-4 15.5-4t9.5 2l4 2q18-19 42-20 17-1 19 10.5t-9 26.5q-6 12-24 33t-33 36.5l-15 15.5zM153 369q7-15 12-35 3-9 4-20t2-18v-7q-8 12-14 40-3 13-4 23t0 13v4zM520 444l-2-9v-40l49 1 14 13 16-16q2-1-1-2l-78-1v-78q-3-15-18-22-2-1-4 3l2 58v38h-53q-14-1-21-3l-7 7 81 2 1 31q0 4-1 11 0 9-1 12-4-1-14-2-13-1-37-3h-3q0 1 1 3 64 8 102 31l15-16q3-2-1-4-20-3-53-7l11-4 1-1q1 0 1-2zM656 478l17-9q2-1 0-1l-3-7v-33h6l9 9 11-10q0-1-1-3h-25v-22q19-8 22-14 0-6-7-12-5-2-6 3-3 10-9 19l-1-52 2-34q0-9-12-21-5-3-6 2l2 54v35q-15-22-42-54h-2q-1 1-1 3 26 35 44 92h-4q-12 0-22-1l-6 5 33 1v23q0 6-1 17v9q0 1 2 1zM737 476l16-10q2-1 0-2l-5-5q-12-11-27-24l39 2 8 10 18-10q2-2 0-4l-4-6-1-64 1-33q0-18-15-30-3-2-6 1-1 15-4 22l-46-2v-7q-2-14-10-22-5-3-5 1l1 54v59l-1 36q0 2 1 2h3l12-9h4q12 22 21 41zM712 431l-1-44 43 2q2 0 2-3 0-1-3-1l-42-2v-59l47 3q2 0 2 4l2 102zM821 425q22-10 22-21 0-9-9-12-7 0-8 6-1 15-8 25 0 3 3 2zM881 463q0 2 1 1l19-10h27l2 24 23-4q2 0 0-3-3-3-4-17h21l11 12 14-12q1-3-1-3l-96-2-1-1-1-25h19l-1 17q0 2 2 1l14-4q1-1 1-3l-1-10h20v21q0 1 1 1l16-6q1 0 1-2l-1-13h7l9 9 13-11q1-1-1-1l-29-1-1-19 3-4q2-2-1-3-11 1-38 1l-1-8q0-3-3-2h-1q-7 5-7 7l-2 27q-3 0-8-1-5 0-7-1l-4 2v-24q1-45-14-66-15-23-59-42-2 0-2 1t2 2q37 20 48 40 11 21 11 71v33q0 6-1 18v10zM871 440l-23-96q-3-8 2-20 3-5 0-10-6-3-14-4-5-1-4 4v8q1 8 1 11 0 8-8 11 0 1 1 2 7-1 9 5l35 89q1 2 1 0zM832 467q25-4 28-15 0-9-7-14-6-1-9 3-5 18-13 24zM999 308q1 0 1-1t-1-1q-10-3-22-14-30 15-44 33-23-18-56-36-2-1-2 1 31 20 53 44-9 12-17 34l2 1q8-17 20-28 16 18 25 36l-50-2q-1-1-2 1 1 3 2 3l50 2 8 8 17-12q2-2-1-3l-7-6q-14-19-32-35 19-12 56-25zM951 401l-1 19h-20l-1-20z" />
<glyph unicode="&#xe64d;" glyph-name="iconfontadd" d="M341 700h53v-29h-53v29zM536 700h52v-29h-52v29zM440 700h50v-29h-50v29zM112 573h32v-55h-32v55zM112 371h32v-47h-32v47zM112 474h32v-53h-32v53zM633 700h53v-29h-53v29zM879 378h33v-50h-33v50zM112 278h32v-50h-32v50zM879 573h33v-52h-33v52zM865 671q14 0 14-19v-43h33v69q0 9-6.5 15.5t-15.5 6.5h-73v-29h48zM879 281h33v-52h-33v52zM730 700h49v-29h-49v29zM879 88h33v-55h-33v55zM879 184h33v-52h-33v52zM879 477h33v-54h-33v54zM338-69h53v-31h-53v31zM630-69h53v-31h-53v31zM436-69h52v-31h-52v31zM534-69h50v-31h-50v31zM728-69h52v-31h-52v31zM912-5h-33v-52q0-12-11-12h-51v-31h72q10 0 17 6v1l1 1q2 3 3 6 2 4 2 9v72zM245-69h49v-31h-49v31zM144-54v49h-32v-72q0-10 6.5-16.5t15.5-6.5v0h73v31h-53q-10 0-10 15zM112 84h32v-52h-32v52zM244 700h52v-29h-52v29zM112 177h32v-48h-32v48zM112 678v-73h32v53q0 8 3.5 10.5t11.5 2.5h48v29h-73q-9 0-15.5-6.5t-6.5-15.5zM698 410h-98l-12 23q-5 10-10 15.5t-11 5.5h-111q-7 0-10.5-4t-9.5-17l-12-23h-98q-9 0-15-6t-6-15v-222q0-9 6-15t15-6h372q9 0 15 6t6 15v222q0 9-6 15t-15 6zM693 177q0-5-10-5h-342q-10 0-10 10v193q0 4 2.5 7t5.5 3h96q8 0 17.5 21.5t13.5 21.5h92q4 0 13.5-21.5t17.5-21.5h93q11 0 11-10v-198zM512 344q-27 0-46.5-19.5t-19.5-46.5 19.5-46.5 46.5-19.5 46.5 19.5 19.5 46.5-19.5 46.5-46.5 19.5zM512 234q-18 0-31 13t-13 31 13 31 31 13 31-13 13-31-13-31-31-13zM361 366h44v-22h-44v22z" />
<glyph unicode="&#xe64e;" glyph-name="bianji" d="M650 32h-352q-48 0-82.5 34.5t-34.5 83.5v390q0 49 34.5 83.5t82.5 34.5h352q8 0 14-6t6-14-6-14-14-6h-352q-32 0-55-22.5t-23-55.5v-390q0-33 23-56t55-23h352q32 0 55 23t23 56v390q0 8 6 14t14 6 13.5-6 5.5-14v-390q0-49-34.5-83.5t-82.5-34.5zM574 448q-8 0-13.5 5.5t-5.5 13.5 5 14l250 249q5 6 13.5 6t14-6 5.5-14-6-14l-249-249q-6-5-14-5zM469 448h-180q-9 0-14.5 5.5t-5.5 13.5 5.5 14 14.5 6h180q8 0 14-6t6-14-6-13.5-14-5.5zM660 284h-371q-9 0-14.5 5.5t-5.5 13.5 5.5 14 14.5 6h371q8 0 13.5-6t5.5-14-5.5-13.5-13.5-5.5z" />
<glyph unicode="&#xe64f;" glyph-name="idukou02" d="M455 538q13 19 35 50t74.5 95.5 86.5 92.5q58 45 98.5 31t35.5-72q-2-33-20-71.5t-32-57-25-30.5l-10.5-10.5t-8-7.5-1.5-3q13-9 15.5-40.5t-14.5-62.5q-17-26-43-35.5t-61 1.5q-34 19-69 53-16 15-31 31.5t-23 25.5zM440 564.5q0-5.5 3.5-9.5t9-4 9.5 4 4 9.5-4 9-9.5 3.5-9-3.5-3.5-9zM446 539q-102 174-138 203-28 23-46.5 13.5t-12.5-51.5 21.5-79 32.5-56l10-11q-13-27-1-67 12-43 42-51 9-2 17 1.5t12 7.5l18 18q28 30 45 72zM451 532q-6-8-15.5-21t-24.5-41-15-41q1-20 10.5-30.5t30.5-21.5q13-5 23-5t15 3l6 3q28-28 64-30 26-2 29 15t-13 41q-9 17-36.5 49t-50.5 56l-23 23zM451 527q11-24 19-53 3-13 5-30.5t2-27.5l1-11q-13 18-22 61-4 20-5 35t0 20v6zM232 218l-2-14v-61l73 1 21 20 25-23q3-2-1-4l-118-1-2-65 2-54q-5-22-28-33-3-2-6 5l3 87v59l-81-1q-21-2-32-4l-11 11 124 2 1 47q0 7-1 18 0 12-1 17-8-1-22-2-9-1-57-6-3 0-3 1-1 1 1 4 97 13 154 48l24-25q3-3-3-6-29-4-80-11l18-6 1-2q1 1 1-2zM438 269l26-13q3-3 0-3l-4-9v-50h9l13 12 17-15q1-1-1-3h-38v-34q28-12 33-22 1-8-10-17-8-4-9 3-5 17-14 30l-2-79 3-52q0-14-18-31-7-5-8 2l2 82v54q-22-34-64-82-1-1-2 0-3 1-2 4 40 53 67 140h-7q-18 0-33-2l-9 8 50 2v34q0 10-1 27v12q0 3 2 2zM562 266l25-15q2-1-2-3l-7-8q-19-18-41-36l60 2 12 16 27-16q3-2 0-5l-7-9-1-97 1-51q0-27-22-45-5-3-9 2-1 22-7 33l-69-4v-10q-3-21-15-33-7-5-8 1l2 82v91l-1 54q0 2 1 3 1 0 4-1l19-13h6q18 33 32 62zM524 198l-1-67 65 3q2 0 2-4 0-2-3-2l-64-3v-89l71 4q3 0 3 7l3 154zM689 189q34-16 34-32-1-14-14-18-11-1-12 9-1 23-12 38 0 4 4 3zM780 246q0 4 2 3l29-17h41l3 38 34-7q4 0 1-4-6-4-7-26h32l17 18 21-19q2-3-1-3l-146-4-1-1-1-38h28l-1 25q0 4 2 2l22-7q1-1 1-3l-1-15h30l-1 31q0 2 3 2l23-9q1-1 1-3l-1-20h11l14 14 19-17q2-2-1-2l-44-1-1-29 3-6q4-4-1-5-15 2-57 2l-1-13q-1-4-5-3l-2 1q-9 7-9 11l-4 40q-5 0-12-2-8 0-12-1l-4 4v-37q1-69-23-101-23-35-89-63-2 0-2 1 0 2 2 4 56 29 72 61 18 31 17 107v50q0 9-1 27v15zM766 211l-36-146q-5-11 4-30 3-7-2-14-8-5-20-7-8-1-7 6 0 5 1 13 1 11 1 16 0 12-11 16-2 3 1 4 10-2 14 7l52 135q3 4 3 0zM706 252q38-6 42-22 1-14-11-21-8-3-13 4-8 27-20 37 1 2 2 2zM959 11q2 0 2-2 0-1-2-1-15-5-33-21-45 23-67 50-35-27-85-55-2 0-2.5 0.5t0.5 1.5q46 30 79 66-13 19-25 52l2 1q12-25 31-42 24 27 38 55l-76-4q-2-1-3 3 1 3 3 3l76 4 12 12 26-18q3-4-1-5l-12-9q-21-28-47-53 28-19 84-38zM887 152l-2 30-30-1-2-30z" />
<glyph unicode="&#xe650;" glyph-name="wodexiangmu" d="M544 596q-8 0-14 5.5t-6 13.5q0 32-23 55t-55 23h-168q-32 0-55-23t-23-55q0-8-5.5-13.5t-13.5-5.5-14 5.5-6 13.5q0 48 34.5 82.5t82.5 34.5h168q49 0 83-34.5t34-82.5q0-8-5.5-13.5t-13.5-5.5zM746 36h-468q-48 0-82.5 34.5t-34.5 82.5v462q0 8 6 14t14 6h565q48 0 82.5-34.5t34.5-82.5v-365q0-48-34.5-82.5t-82.5-34.5zM200 596v-443q0-32 23-55t55-23h468q32 0 55 23t23 55v365q0 32-23 55t-55 23h-546zM324 445h-46q-8 0-13.5 5.5t-5.5 13.5 5.5 14 13.5 6h46q9 0 14.5-6t5.5-14-5.5-13.5-14.5-5.5zM741 445h-334q-8 0-13.5 5.5t-5.5 13.5 5.5 14 13.5 6h334q8 0 13.5-6t5.5-14-5.5-13.5-13.5-5.5zM324 316h-46q-8 0-13.5 5.5t-5.5 13.5 5.5 14 13.5 6h46q9 0 14.5-6t5.5-14-5.5-13.5-14.5-5.5zM741 316h-334q-8 0-13.5 5.5t-5.5 13.5 5.5 14 13.5 6h334q8 0 13.5-6t5.5-14-5.5-13.5-13.5-5.5zM324 187h-46q-8 0-13.5 5.5t-5.5 14 5.5 14 13.5 5.5h46q9 0 14.5-5.5t5.5-14-5.5-14-14.5-5.5zM741 187h-334q-8 0-13.5 5.5t-5.5 14 5.5 14 13.5 5.5h334q8 0 13.5-5.5t5.5-14-5.5-14-13.5-5.5z" />
<glyph unicode="&#xe651;" glyph-name="yuyuejilu" d="M667.5 31q-70.5 0-120 50t-49.5 120 49.5 120 120 50 120-50 49.5-120-49.5-120-120-50zM667.5 331q-53.5 0-92-38t-38.5-92 38.5-92 92-38 92 38 38.5 92-38.5 92-92 38zM667.5 181q-8.5 0-14 6t-5.5 14v88q0 8 5.5 14t14 6 14-6 5.5-14v-88q0-8-5.5-14t-14-6zM730 119q-8 0-14 6l-62 62q-6 6-6 14t5.5 14 14 6 14.5-6l62-62q6-6 6-14.5t-6-14-14-5.5zM528 127h-238q-42 0-72.5 30.5t-30.5 73.5v402q0 43 30.5 73.5t72.5 30.5h17q8 0 14-6t6-14-6-14-14-6h-17q-26 0-45-18.5t-19-45.5v-402q0-27 19-46t45-19h238q8 0 14-5.5t6-14-6-14-14-5.5zM710 325q-8 0-14 6t-6 14v288q0 27-19 45.5t-45 18.5h-17q-8 0-14 6t-6 14 6 14 14 6h17q43 0 73.5-30.5t30.5-73.5v-288q0-8-6-14t-14-6zM538 697h-160q-8 0-13.5 6t-5.5 14 5.5 14 13.5 6h160q8 0 14-6t6-14-6-14-14-6zM628 522h-340q-8 0-13.5 5.5t-5.5 14 5.5 14 13.5 5.5h340q8 0 14-5.5t6-14-6-14-14-5.5zM628 412h-340q-8 0-13.5 6t-5.5 14 5.5 14 13.5 6h340q8 0 14-6t6-14-6-14-14-6zM579 302h-291q-8 0-13.5 6t-5.5 14 5.5 14 13.5 6h291q9 0 14.5-6t5.5-14-5.5-14-14.5-6z" />
<glyph unicode="&#xe652;" glyph-name="idukou03" d="M443 324q-4-20 6-70 5-22 11-39.5t10-24.5l4-7q-1 46-10 80-4 15-9 30t-9 23zM823 848h-608q-67 0-113.5-47t-46.5-113v-608q0-66 46.5-113t113.5-47h608q66 0 113 47t47 113v608q0 66-47 113t-113 47zM445 382q6 0 10.5-4.5t4.5-10.5-4.5-10.5-10.5-4.5-10.5 4.5-4.5 10.5 4.5 10.5 10.5 4.5zM331 224q-35 9-49 58-13 47 2 78l-11 13q-21 21-38.5 64t-24.5 91 14.5 59.5 53.5-15.5q18-15 58-73.5t70.5-109.5l30.5-51q-20-48-52-83-2-2-4-5-18-18-27-24t-23-2zM551 117q-19 1-37 10t-27 17l-9 8q-3-1-7-3t-17.5-3.5-26.5 6.5q-24 11-35 23.5t-12 35.5q-1 15 14.5 44.5t32 52.5 16.5 22q103-103 126-147 19-28 15.5-48t-33.5-18zM828 564q-3-38-23.5-82.5t-36.5-66-28-35.5q-6-6-12.5-12t-9.5-8.5-2-2.5q15-12 18.5-48t-16.5-72q-20-30-50-40.5t-71 1.5q-38 22-79 61-19 17-36.5 36.5t-25.5 30.5l-8 10q15 23 40 58.5t85.5 110 100.5 106.5q43 35 80.5 39.5t57.5-19.5 16-67z" />
<glyph unicode="&#xe653;" glyph-name="text01" d="M118 667l-1-1-3-6q-3-5-5-8-1-2-2-5l-1-0.5t-1-1.5q-3 1-3 3t1 2 1-1q3 2 4 7 1 1 3 4 4 8 6 11l2 6q1 5 2 6v1q1 1 1 5v2q0 3 2 3 1 0 2-1v-2q0-4-4-13-2-5-3-8 7-4 16-11 4-2 9-6 3-2 4-3 3-3 7-4v0q0 1 1 1 2-2 3-4 0-2-1-2h-1q-8 6-17 11-2 1-7 5-3 2-5 4-1 0-2 1-6 5-8 5zM188 648.5q0 1.5 2 1.5l7 2h2l12 2 1 1q-1 1 0 4v2q-7 0-13-1l-1.5-1t-2.5-1q-3 0-3 2t2 2l14 2h5q1 6 0 12-1 0-3-1h-3q-7 0-10 11v1q-1 1-2 3 0 1 2 1t3-5q3-9 7-9 3 0 6 1 1 1 1 3t-1 5h-1v1q-2 1-2 2 0 2 2 1h1q5-4 4-11 1 1 2 1t6 1q5 2 6 2 0 1 1 1h2l1-1-1-1q-1-2-3-3h-4q-7-1-10-3v-2q-1-5-1-8v-1l7 2q0-1 1-0.5t2 0.5 1-1q-2-4-7-5-1 0-1 1h-1q-2 0-3-1v0-6h4l2 1h9q7 0 7-1 0-2-2-2-1 0-3 1h-1q-7-1-8-1h-1q-5 0-7-1h-2l-11-3q-1 1-5-1-3-1-4-1h-2q-1-1-2-1-1 1-1 2.5zM197 679v0-4q-1 0-1 1 0 2 1 3zM277 651q1 8 0 17l-1 3v2q-1 6-5 5h-2q-2-1-3-1t-1 1 1 2h1v1h5q5 0 7-13 1-4 2-5v1l2 4q2 2 2 3v-1t-2-8l-2-9v-1l-2-2h-1zM272 697q0 1 2 1h2q1 0 1-1 2 0 2-1 4-1 6-3h1q2-1 2-2t-1-1v0q-1 1-3 2-3 2-6 2l-1 1h-3q-2 1-2 2zM303 648l-2-2q-1-2-2-2-2 0-2 2 0 1 1 3 0 1 1 1t2 1l1 2t1 3 1 3v1q0 1 0.5 3t1.5 3v2q-3-1-6-3l-3-3q-5-3-7-3-1 0-1 1t3 3 3 3v6t1 2v1.5t1 1.5v1q0 1-1 2v5q0 5-2 6v0 0l-2-2q-2-2-2-3-1-2-2-2t-1 2q0 1 1 2l3 3 1 2q0 3 1 3h1q2 1 3 6h2q2 0 1-2 0-1-2-4-2-1-2-2t1-1q2 0 5 1l1 1h2v1q3 1 5 0 1 0 1-1v0q-1-5-1-9v-2q-1-5 0-7v0q1 0 1 1l11 2q1 0 1 1t-2 2q-1 1-1 2t1 1h1l4-4v-1q0 1 1 1l10 2h1v-1q-1-3-5-4l-1 1h-1q-3 0-4-1 1-3 1-4t1-1v-3q1-3 1-4v0-3q0-1 1-2v0-1l-1-1v-9q-1-4-4-4-5 0-8 7v2q-2 7-2 8-1 1-1 2 1 1 3 1h1q1 0 3.5-1t2.5-2q0 1 1 0h1v8q-1 0-2 3 0 3-1 3l-11-3-3-1-1-37q-1-2-2-2-3 0-3 10 0 3-1 3zM299 689q0-3 1-3h3q2 1 3 0 0 1 1 2v6l-6-3q-1 0-2-1v-1zM305 676q0-1-2-1v0l-1-1h-1l-1-2h-1v-4h1l7 4v3q0 8-2 8-5 0-5-1v-5h3q2 0 2-1zM304 652q0-3 2-8l0.5 3.5t0.5 4.5v8q-1-3-3-8zM318 662l2-8q2-2 5-3h2v6q1 4-1 5-3 0-4 1h-4v-1zM391 628v0q1 11 1 19v8q-8-3-8-10v-6q0-2-2-2-3 0-5 13 0 4-1 5l-3-3q-5-7-7-6h-2v4q1-1 2-1 2 0 6 5 0 1 2 3l1 2v1h1v2l1 1q3 3 3 5-1 0-4-1-6-2-8-2t-2 2q0 1 2 1l12 3q5 1 5 5h-1q-3-1-4-2l-1-1q0-1-1-1-2 0-2 2v2q0 1-1 4-1 1-1 1.5t-1 2.5q-1 5-1 7v4h2.5t0.5-0.5v-5.5q0-1 1-1v-1q1 0 3 2h1l4 2q10 5 17 4h2q3 0 3-3 0-2-1-3l-7-6q0-2-1-2.5t-1-1.5q-2 0-4-1t-3-3q4 0 10 3 0 1 0.5 1.5t1.5 0.5q3 0 3-2l-1-1v-1h-2q-2-1-3-1v0l-1-1q1-1 5-3 7-3 12-6 1-1 4-3l2-2q0-2-2-2-3 0-3 1v0l1 1q-1 1-4 3-6 5-14 7v1q-3 1-6 1h-1q-3 0-5-3h-1v-1q-1-1-5-7 0-1-1-1v-3q0-6 3-14v3l-1 2q1 3 4 6l6 3v9t1 1 2-1v0q0-3 1-7 1 0 3 0.5t3 0.5q8 1 9-3v-2q-2-11-11-13l-2 1h-1q-1-1-1-5-1-12-3-12-1 0-1 2zM369 702q0 1 3 1h3q0 1-1 2t-1 2q0 2 1 2 2 0 4-4 1-2 2-2h4q4 1 6 1v0q2 7 3 7h2v-1l-2-6 11 2 1 1h1t1-1q0-3-10-4-4-1-5-1l-6-7-2-1q0-1-1-1l-1 1q-3 7-5 7h-7q-1 0-1 2zM378 680v-3h1q3 1 5 2 1 0 4 1 1 1 3 1 1 1 3 2t2.5 1.5l1.5 1.5q0 1 1 1 4 4 4 5v1h-3q-4 0-8-2-2-1-7-3h-1l-6-2-1-1q-1 0-1-1h2l12 4q2 1 4 1t2-2l-1-1q-4 0-13-4l-4-2zM384 695q2 1 4 5-1 1-2 1v0l-2-1h-2q0-3 2-5zM395 653v-1q0-5 1-6 0-1 1-2v0q3 2 4 2 6 5 6 9 0 3-5 3v0q-1 0-4-1h-1q-2 0-2-1v-3zM462 650q-2 0-5-1h-7q-1 1-2 1-2 1-2 2t1 1h10q13 8 26 22 1 1 2 3v0q-2-1-5-2-5-2-8-3h-1q-7-2-10-2h-1l-2 1h-1q0 2 2 2h6q5 1 16 5 3 2 4 2 1-1 2 0 2 1 3 1 2 0 2-1t-1-1v-1q-7-9-21-21-1-1-4-2l-3-3q3-1 8-1 10-2 21-2h6q2 1 5 1h2q-1-3-4-4h-8q-6 0-18 1-4 1-6 1h-3l-3 1h-1zM465 694q0 2 1 2t5-3.5 5-3.5l5-3v-1h-3l-13 8v1zM544 655q-1-1-3-2h-1q-1-1-2-3 0-2-1-2h-1q-2 3-1 10v3q0 9-3 18 0 1-1 4-1 4-1 5v0h1q0 1 1 0 1 0 1-2 1-2 2-3 0 1 2 1l3 1h1q4 1 6 1 3 1 3-2 2-7 2-21 2 1 3 3h2l1 1v-1l-3-3q-2-1-4-5v-12h-1v-2q-2 0-5 8 0 1-0.5 2zM542 671q1 1 4-1h2v9q0 4-2 4-7-1-10-4v0-4q0-3 1-4h5zM537 666v-3q1-3 1-4v-1l1-2 4 1v1q-4 6-6 8v0 0zM538 667q0-1 6-8 4 1 5 3v4q-1 2-2 2h-7.5t-1-0.5zM546 655q0-1 2-3v6zM564 657v0q1-1 2-3v0q5-12 12-13 1 0 1 4 1 1 1 4v10q0 2-1 3-8 6-13 6-2 1-2-2h-1v3q0 2 3 2 4 0 9-3l2-1q1-1 2-1t0 0v1q0 10-3 17 0 1-1 1v0l-3-1h-4t-3-1q-1-1-2-1l-1-1q-3 1-3 3 0 1 2 1h1q2 1 6 2 6 0 7 1h1q0 1-1 4t-1 4 2 1q2-1 3-4 1 0 0-1v-3q-1-1 1-1 4 0 11 1l3 1h1q3 1 5 1t2-1q-1-3-9-4h-2q-10 0-11-1 0-7 1-9l2-12v-1q1 0 1-1v-1q-1 0-1-1v0-11q-1-11-5-11-3 0-4 2-2 1-3 2-7 9-7 15zM626 641q1 1 2 5 1 1 1 2l2 3q0 2 1 2 0 3 1 5 2 7 2 10 0 1-2 1-3 0-7-4-4-3-6-3t-2 1.5 5 4.5q9 5 9 9t-5 4h-2l-5-2h-1q-1 0-1 2v0q13 9 16 18v1h3q0-5-3-7-1-1-1-2l-8-8q10 1 10-5 0-2-2-5v-1q4-1 4-3l1-1v-2l-1-2v-3q-1-2-1-3t-1-4l-1-2-4-11q0-1-2-3-1 0-2 3zM669 658h1q0-1 1-1t2 4q1 2 1 3 0 2 1 5 1 4 1 6 0 4-4 4-15-4-18-14v-3l1-2v-1q-1-1-1-2-1 0-1-1-1 1-1 3l-1 1q0 12-3 20v1q-1 1-1 2 0 2 1 2 2-1 3-5l1-1h1q5 5 6 7l1 2 1 1 3 4v1q0 1-2 1h-1q-8 0-14-4v-1l-1-1q-3 0-3 3v1q3 1 4 2 7 2 8 2l2 1h3q7 0 7-4t-9-13q-2-2-2-3-1 0-1-1-2-1-2-2v-3h1q4 4 9 7 1 0 2 1h1q2 1 5 1h1q7 0 7-7-1-14-7-19h-1q-2 0-2 3zM665 649v0h-4q-1-1-4-6l-6-5q-2-2-4-2-4 1-4 3v1q1 0 2-1l1-1q2 0 3 1t2 1q0 1 2 3l2 2q4 5 4 7l2 10 1 2v3l-1 2 1 1v1q0 4 2 4v0q1 0 1-1v-7q-1-4-1-5v-5q0-1-1-3 0-1-0.5-2l-0.5-1q0-1 3 0h1l1-1q2-1 3-1l8-7v-1l5-4v-1q-1-2-2-2t-5 5q-2 3-4 4-1 2-7 6zM710 637v1q1 3 1 10v6q0 1 1 3 1 9 1 13 0 3-2 3-1 0-3-1.5t-3.5-1.5-1.5 2q0 1 2 2l2 1 1 1q2 2 2 4v1l-2 1h-2q-1 0-4-1-2-1-4-1-1 0-1 2 0 1 3 3 2 0 2 0.5t3 2.5 3 3q1 0 6 5 1 0 1 1h1t2-1v-1q-2-2-7-6-3-2-4-4v0q6-1 6-4 0-2-1-4 5-1 5-8 0-2-1-5v-1q-1-8-1-14v-3q2 3 3 8 1 1 1 3 1 1 1 2v-3l-2-7q1-2-2-8-1-3-2-4v0h-1q0-2-1-2-2 0-2 2zM744 636q-2 3-6 12v0q1-1 5-6 7-9 9-9v0 3q0 2 1 3v20l-1 1v1l-12-4v-2l0.5-0.5t1.5-0.5q4-5 4-8 0-1-1-1t-2 4l-6 5q-1 1-1 2l-7-3h-1q-1 0-1 1 0 3 2 3h1q1 0 2 1t2 1v-1q1 0 2 1l10 3q1 1 3 1 1 1 2 1-1 4-3 5-3 0-7-1-4-2-6-2-3 0-3 2t2 2l15 9 2 1 2 2h-2q-2 0-5-1h-1.5t-1.5-1-2-1q-1 2-2 2v3h1q0 1-1 2v2q-1 0 0 1v1q-1 1-1 3-1 0-2 3l-1 3q-1 0-1-1v0q-1 0-1 2v3q0 1 1 1h2l3 1q4 1 5 1l1 1h4q4 0 6-1 1 0 4-1 3 0 3-1 2 0 4-1 0-1 1-2v-1l-1-4q-5-4-6-5l-2-1q-2-2-2.5-2t-1.5-1q-1 0-1-1v0h2l2 1q2-1 2-2 0-4-10-8-3-2-8-6h1q2 0 4 1v1q1 1 2 1h1q0-1 1-1 2 0 5 1t4 1q2 0 2-1 0-2-5-4v0q7-1 11-1h5q2 0 2-2-1-2-5-2h-4l-9-3v-24q0-11-4-11-1 0-1 2l-5 5q-1 2-2 2zM739 698l1-3q2 2 3 2 2 0 6-1t6-1q6 0 8 5v0q-1 2-12 4v0h-6q-6-1-6-3v-1l1-1zM742 686h1t1 2h1l-1 1v2q-1 2-4 3v0q0-2 1-5 1-2 1-3zM745 692q1-3 4-4l3 1 1 1q1 0 2 1l1 1v1h-11v-1zM745 688v-2q1 0 1 1zM754 668q0-3 1.5-3t4.5 1q1 1 2 1-2 1-8 1zM844 633q-6 7-6 10v1q1-2 2-2 0-2 3-4 2-1 2-2h1q1 0 1 4v1q-1 7-1 17v33q0 8-6 8v-1q-10-2-19-2h-6q-8 0-12-2v-2l1-1q1-7 1-12v-4q0-1-1-5-1-6-1-7v-4q-1-3-1-4v-1q-1-9-3-10h-1q-2 0-2 2 0 1 0.5 1h1.5q2 4 1 7l2 14v1l1 1v16l-1 2q0 2-2 2.5t-2 2.5v0q5 6 15 6 3 0 6.5-0.5t5.5-0.5q3 0 10 2h4q1 0 2 1 5 2 8-1v0-1q1-1 1-5v-10q1-4 1-6-1-24 0-38 0-1-0.5-3t-0.5-3-2-2q-1 0-2 1t-1 0zM802 641l1 1q2 1 7 2h3q6 1 16 3 7 2 9 2 3 1 3-2-3 0-10-2h-3q-2-1-8-2-9-2-12-3-3 0-5-1v0zM814 651q0 1 1 1v1q0 1-1 1-1 1-1 2-2 7-3 10l-1 2q-2 2-2 4 1 1 2 0 1 0 2-2 1-1 1-2 1 0 1 1l1 1q1 0 4 1l4 1q4 2 13 3 2 1 3 1 2 0 2-1-1-6-6-13l-1-1q-2-3-2-4v0q1-1 2-1 5-1 5-2t-2-1h-1l-11 3q-1 1-1 0h-1q-2 0-5-6h-1q-1 0-2 1zM814 676l-1 1q1 2 1 3v0 4l-1 3q-1 2-1 5v1q0 1 1 1 2 0 2-5l1-1q1 0 1-3.5t1-3.5q3 1 7 6v0q-2 0-2 1v-1h-5t-1 2q1 1 5 2l1-1h2q2 0 3-0.5l1-0.5-2-4q0-1 1-1 2 0 2-2 1 0 0-1-5 0-12-4v-0.5t-0.5-0.5h-3.5zM813 666q1 0 1-3l1-2v-3q1-2 2-2v0q1 1 1 2 3 7 3 12v-1q-1 0-3-1-3-1-4-1h-1v-1zM822 659v0q2-1 3-1h1q0 1 2 2v-1q2 1 6 9 1 2 2 5v0q-4 0-10-2-1 0-2-1 1 0 1-1 0-2-1-6-2-3-2-4zM901 662q-4-2-9-7v0l-11-11q-1-2-5-5v0q-2 0-2 2 1 2 17 16l3 3 3 2q0 1 1 1 2 1 2.5 2t0.5 2q0 4 3 4l1-1q1 1 3 2v-1l-3-4q0-1-1-1v-8l1-5t1-6v-3q1 0 2 5 0 4 2 4v-6l-1-2q-1-7-3-7-3 1-4 16-1 2-1 8zM875 670q1 2 6 2h2q5 0 8-1v0q1 0 1.5-0.5t0.5-1.5h-16zM881 685v4q1 0 1-1 15-3 16-7 0-1-1-1l-1 1q-2 2-3.5 2t-4.5 1q-4 1-7 1zM930 648v1l2-3 1-3q2-5 3-5t2 3l1 2q2 5 2 10v1q-2 0-6 2t-8 2q-1 1-1 2v0q1 1 2 3 1 1 1 2 3 3 3 5v1h-2q-6 0-11-3-1-3-1-6v-1l4-3q1-2 2-2h1q1 0 1-2t-2-2-4 3q-2 2-3 2t-2-2.5-2-2.5-1 1q-1 0-1 2t1 4v1q1 1 2 1 1 1 1 4h-1q-2-2-4-2-1-2-1-3-1 0-2 3 0 1 2 2l1 1 6 3v5q-1 1-1 2v1q-1 0-3-1-1-1-3-1-3 0-3 3 0 2 5 2 4 0 5 1 5 5 7 10-5 1-9 1-3 0-3-1 2-4 3-7 2 0 2.5-0.5l0.5-0.5q-1-1-2-1-3 0-6 7 0 1-1 1 0 1-1 1-2 0-2 2v0q0 1 1 2 0 1-1 1v1q0 2 1 2t3-3q1-1 1-2 2 1 5 0h6q3 0 3 1l1 7q0 1 2 1v-9q1 0 2 1h3q1 1 1 0 0-2-5-3-1 0-1.5-0.5t-2.5-4.5q-1-1-1-2-2-1-2-2h-1v-2q1 1 3 1h1.5t2.5 1 3 1h1q0-4-8-5-5-1-6-1 2-1 2-7v0 0q2 0 4 1 1 0 7 1h1q1 0 2 1-1 3 2 3 1 0 1-4l3-1 5-2v-1q1-1 1-2v-3q0-8-3-21-1-4-3-6-1-2-2-2l-1-1-2 2q-3 4-4 12zM931 661l7-3q3-1 4-2v7l1 3v1q-1 2-7 3v0l-3-6q-2-2-2-3z" />
<glyph unicode="&#xe654;" glyph-name="552cc20c7f521" d="M722 849q29 0 49.5-20t20.5-49v-342l7 16-397-403 17 7h-281q-29 0-49.5 20.5t-20.5 49.5v745l-23-24h677zM21 896v-768q0-48 34.5-82t82.5-34h290l7 7 404 409v352q0 48-34 82t-83 34h-701zM776 307l-17-16 110-110 17-16 103 103-17 16-110 110-16-17zM846 344l93-93v33l-70-70h33l-93 93v-33l70 70h-33zM519 51l-5-5-2-7-23-116-7-34 35 7 116 23 7 1 5 5 274 273-17 16-110 110-16-17zM776 274l93-93v33l-257-256 12 7-117-24 28-27 23 116-6-12 257 256h-33zM427 298q13 0 22-9t9-22v-9q0-13-9-22.5t-22-9.5v0q-14 0-23 9.5t-9 22.5v9q0 13 9 22t23 9v0zM278 552q1-2 2-5.5t8-10 17.5-6.5 17 5.5 8.5 11.5l1 5q-2 54 23 79t76 23q67-8 70-76-5-30-51-79-60-61-60-109v-33q0-2 1-5.5t7.5-9 16.5-5.5q4 0 8 1.5t6.5 3 4.5 3.5 3 4l2 4t1 3v24q0 40 58 96 61 56 61 102-5 127-133 132-148 2-148-158z" />
<glyph unicode="&#xe655;" glyph-name="message02" d="M623 431.5q0-18.5 13-32t31.5-13.5 32 13.5 13.5 32-13.5 31.5-32 13-31.5-13-13-31.5zM915 678q0 28-20 48t-48 20h-674q-28 0-47.5-20t-19.5-48v-494q0-28 19.5-47.5t47.5-19.5h247l90-91 90 91h247q28 0 48 19.5t20 47.5v81q-1 8-7.5 14.5t-15.5 6.5-15-6.5-7-14.5v0-58q0-19-13-32t-32-13h-247l-68-68-67 68h-247q-19 0-32 13t-13 32v449q0 19 13 32t32 13h629q19 0 32-13t13-32v-216q0-9 6.5-15.5t16-6.5 16 6.5 6.5 15.5q0 1-0.5 1.5l-0.5 0.5h1v236zM308 431.5q0-18.5 13-32t32-13.5 32 13.5 13 32-13 31.5-32 13-32-13-13-31.5zM465 431.5q0-18.5 13.5-32t32-13.5 31.5 13.5 13 32-13 31.5-31.5 13-32-13-13.5-31.5z" />
<glyph unicode="&#xe656;" glyph-name="552cd511d86c8" d="M726 781v0q-7 7-16.5 7t-16-6.5-6.5-16 7-16.5v0l155-155h-171q-69-9-120-31t-85-55-56.5-82-34-105.5-17.5-133.5q0-9 6.5-15.5t16-6.5 16 6.5 6.5 15.5v0q6 71 15 120t27.5 94 47 73.5 73 48 105.5 25.5h171l-155-155q-6-7-6-15 0-10 6.5-16.5t15.5-6.5 16 6v0l207 208v5zM875 316q-9 0-15-6.5t-6-14.5v0 0-222q0-17-12.5-29.5t-30.5-12.5h-639q-18 0-30.5 12.5t-12.5 29.5v551q0 18 12.5 30.5t30.5 12.5h299q9 0 15 6.5t6 15-6 15-15 6.5h-304q-33 0-57-24t-24-57v-560q0-34 24-57.5t57-23.5h648q34 0 57.5 23.5t23.5 57.5v226q0 8-6 14.5t-15 6.5z" />
<glyph unicode="&#xe657;" glyph-name="552dbf766256b" d="M266 363q-32 0-54.5 22.5t-22.5 54.5 22.5 54.5 54.5 22.5 54.5-22.5 22.5-54.5-22.5-54.5-54.5-22.5zM266 480q-16 0-28-12t-12-28 12-27.5 28-11.5 28 11.5 12 27.5-12 28-28 12zM522 363q-32 0-54.5 22.5t-22.5 54.5 22.5 54.5 54.5 22.5 54.5-22.5 22.5-54.5-22.5-54.5-54.5-22.5zM521.5 480q-16.5 0-28-12t-11.5-28 11.5-27.5 28-11.5 28 11.5 11.5 27.5-11.5 28-28 12zM772 363q-32 0-54.5 22.5t-22.5 54.5 22.5 54.5 54.5 22.5 54.5-22.5 22.5-54.5-22.5-54.5-54.5-22.5zM772.5 480q-16.5 0-28-12t-11.5-28 11.5-27.5 28-11.5 28 11.5 11.5 27.5-11.5 28-28 12zM287 12q-5 0-10 3-6 4-7.5 11.5t2.5 13.5q26 40 98 54 33 6 63 5h432q26 0 45 18.5t19 45.5v526q0 27-19 46t-45 19h-692q-26 0-45-19t-19-46v-526q0-25 16.5-43t41.5-21h58q8 0 13.5-5.5t5.5-13.5-5.5-13-13.5-5h-62q-38 4-65 33-26 29-26 68v526q0 42 29.5 72t71.5 30h692q42 0 71.5-30t29.5-72v-526q0-42-29.5-71.5t-71.5-29.5h-433q-26 0-56-5-56-10-73-37-5-8-16-8v0z" />
<glyph unicode="&#xe658;" glyph-name="message" d="M281.5 345q-29.5 0-51 21t-21.5 50.5 21.5 51 51 21.5 50.5-21.5 21-51-21-50.5-50.5-21zM281.5 454q-15.5 0-26.5-11t-11-26.5 11-26.5 26.5-11 26.5 11 11 26.5-11 26.5-26.5 11zM521 345q-30 0-51 21t-21 50.5 21 51 51 21.5 51-21.5 21-51-21-50.5-51-21zM521.5 454q-15.5 0-26.5-11t-11-26.5 11-26.5 26.5-11 26 11 10.5 26.5-10.5 26.5-26 11zM756 345q-30 0-51 21t-21 50.5 21 51 51 21.5 51-21.5 21-51-21-50.5-51-21zM756 454q-15 0-26-11t-11-26.5 11-26.5 26-11 26 11 11 26.5-11 26.5-26 11zM301 15q-5 0-9 3-6 4-7.5 11t2.5 13q24 37 92 50 31 5 59 5h405q25 0 42.5 17.5t17.5 42.5v493q0 25-17.5 42.5t-42.5 17.5h-649q-24 0-42-17.5t-18-42.5v-493q0-24 15.5-41t38.5-19h55q7 0 12.5-5.5t5.5-12.5-5.5-12-12.5-5h-58q-36 4-60.5 31t-24.5 64v493q0 40 27.5 67.5t66.5 27.5h649q39 0 67-27.5t28-67.5v-493q0-40-28-67.5t-67-27.5h-406q-24 0-53-5-52-9-68-34-5-8-15-8v0z" />
<glyph unicode="&#xe659;" glyph-name="zhifubao" horiz-adv-x="2900" d="M330 246.5q-61-6.5-94-34.5-22-19-30.5-43.5t-2-48.5 24-44.5 51.5-33 77-12.5q64 0 127 38t116 106q-85 41-146.5 60t-122.5 12.5zM889 165q138-46 170-49v0 498q0 64-45.5 109t-108.5 45h-655q-64 0-109-45t-45-109v-652q0-64 45-109t109-45h655q63 0 108.5 45t45.5 109v6q-251 104-377 165-65-79-144.5-123t-163.5-44q-69 0-119 28t-70.5 69.5-15.5 90.5 39 90q35 42 106 59 99 25 334-52 34 62 54 132h-376v38h194v68h-235v38h235v97q0 2 0.5 5t4.5 7.5 12 4.5h94v-114h233v-38h-233v-68h190q-27-110-80-202 20-8 52.5-20t55.5-20 40-14v0zM2429 618h276v-55h98v65q0 11-7.5 18.5t-17.5 7.5h-160v51h-103v-51h-184v-91h98v55zM1833 701l-101-239h77v-284h85v377h-31l64 146h-94zM2814 191l-31 104q-3 12-15 12h-82l24-80h-96v155h189v37h-189v73h189v37h-472v-37h189v-73h-189v-37h189v-155h-189v-37h483v1zM2049 505q-5 11-17 11h-73l57-180h86zM2235 696h-88v-92h-217v-37h217v-330q-1-13-14-14h-45v-38h114q13 0 23 10t10 24v348h36v37h-36v92zM1686 529h-169v60h196v38h-196v77h-88q-7 0-12-5.5t-5-12.5v-59h-194v-38h194v-60h-164v-38h327q-1-3-2.5-8t-9.5-21.5-19-33-31.5-39.5-45.5-45q-36 27-62.5 54.5t-35.5 41.5l-9 14h-88q48-84 140-150-83-55-198-89v-45q15 3 39.5 9t92 31 122.5 58q56-33 118.5-57.5t97.5-32.5l35-8v43q-110 39-194 92 127 94 161 224zM1408-74l15-44h41l-81 219h-31l-80-219h41l15 44h80zM1369 44l30-91h-62zM1593 101v-219h133v29h-93v190h-40zM1870 101h40v-219h-40v219zM2155 101h-85v-219h39v84h46q32 0 52 18.5t20 48.5-20 49-52 19v0zM2153-4h-44v75h44q15 0 24.5-11.5t9.5-26-9-26-25-11.5zM2458-74l15-44h41l-81 219h-31l-81-219h41l16 44h80zM2419 44l30-91h-62zM2733 101l-43-94-43 94h-43l66-129v-90h39v90h1l66 129h-43z" />
<glyph unicode="&#xe65a;" glyph-name="weixinzhifu" horiz-adv-x="1572" d="M268 389q-3-1-6-1-8 0-12 7l-1 2-38 83v3q0 7 7 7 2 0 4-2l44-32q6-3 12-3 3 0 7 1l209 94q-28 33-72.5 53t-96.5 20q-86 0-146.5-50.5t-60.5-122.5q0-79 71-131 6-4 6-11 0-2-1-4-1-6-3.5-14.5t-4-14.5l-1.5-6q-1-4-1-5 0-7 7-7 2 0 4 1l45 26q6 4 11 4 3 0 6-1 33-10 68-10 86 0 146.5 50.5t60.5 122.5q0 42-23 80zM921 429h116v-10h-116v10zM921 396h116v-10h-116v10zM924 294h110v63h-110v-63zM1024 304h-89v43h89v-43zM896 490q-16-55-45-97v0l6-10q10 15 21 34v-123h10v145q10 21 17 45zM980 463l8 4q-1 2-5 11.5t-6 11.5l-9-5q5-11 9-20l1-2h-69v-11h140v11h-69zM717 487h10v-53h21v37h9v-46h-71v46h10v-37h21v53zM689 403h63v-10h-63v10zM761 346l-16-14v40h-53v-15q2-33-16-47l5-10q23 19 22 52v10h32v-23q0-11-3-15l6-11q8 7 28 25zM671 489q-15-31-37-51l6-11q25 25 40 56zM670 435q-15-36-38-63l5-10q10 11 19 23v-91h10v108q7 12 13 28zM834 441v10h-46q8 26 10 38h-10q-11-48-31-81l6-11q3 5 5 10 3 5 5 9 5-44 17-69-12-20-35-42l6-10q25 24 34 41 11-19 33-41l6 10q-23 22-33 41 18 33 22 95h11zM796 358q-11 27-16 73l4 10h29q-3-52-17-83zM1395 345q-13 24-34 56l9 5q22-33 34-55zM1262 295l3 10q-50 7-86 28 41 28 60 71l-7 4h-59v39h86v10h-86v37h-10v-37h-85v-10h85v-39h-58v-11q18-38 54-63-35-20-86-30l3-10q55 11 93 33 38-24 93-32v0zM1117 397h106q-17-34-54-58-34 24-52 58zM1339 492q-21-55-56-91l4-11h1q13 12 26 32v-128h10v144q15 25 25 51zM1446 444v47h-10v-47h-91v-11h91v-123q0-6-7-7h-4t-6.5-0.5-8.5-0.5v-9q19 0 26 2 10 2 10 16v122h30v11h-30z" />
<glyph unicode="&#xe65b;" glyph-name="zhifubao02" d="M1024 195v504q0 81-58 138.5t-139 57.5h-630q-81 0-139-57.5t-58-138.5v-630q0-82 58-139.5t139-57.5h630q72 0 126.5 46t67.5 116q-283 122-397 176-71-86-147.5-129.5t-177.5-43.5q-105 0-169 56.5t-55 137.5q2 24 9.5 46t26.5 47 46.5 42 74.5 26 107 3q23-2 43-4.5t40-6.5 32.5-7 33.5-9.5 30.5-9.5 35-11.5 35.5-11.5q35 64 57 139h-398v40h197v70h-240v44h240v102q0 2 1 4.5t6 7 13 4.5h98v-118h256v-44h-256v-70h209q-29-116-85-213 27-10 111-36.5t155-48.5l71-21zM284 104q-36 0-65 7.5t-46.5 19-30.5 26-17.5 29.5-7 28.5 0.5 23.5q7 34 42.5 62.5t92.5 28.5q131 0 284-75-55-72-120-111t-133-39v0z" />
<glyph unicode="&#xe65c;" glyph-name="weixincopy" d="M317 577q-16 0-28-9.5t-12-24 12-24 28-9.5q15 0 24 9.5t9 24.5-9 24-24 9v0zM590 384q-10 0-18.5-8.5t-8.5-18.5 8.5-18 18.5-8q15 0 24 8t9 18.5-9 18.5-24 8v0zM959 695q0 57-40 97t-96 40h-623q-57 0-97-40t-40-97v-623q0-56 40-96t97-40h623q56 0 96 40t40 96v623zM404 237q-26 0-94 14l-93-47 27 80q-107 74-107 180 0 94 78 160t189 66q98 0 174.5-53t93.5-134q-14 2-25 2-95 0-161-62t-66-149q0-28 8-56-13-1-24-1v0zM796 144l20-67-73 40q-53-13-80-13-94 0-160 56.5t-66 136.5 66 136.5 160 56.5q91 0 159-57t68-136q0-83-94-153v0zM737 384q-10 0-18.5-8.5t-8.5-18.5 8.5-18 18.5-8q14 0 23.5 8t9.5 18.5-9.5 18.5-23.5 8v0zM503 510q15 0 24.5 9.5t9.5 24.5-9 24-25 9q-15 0-27.5-9.5t-12.5-24 12.5-24 27.5-9.5v0z" />
<glyph unicode="&#xe65d;" glyph-name="cancel" horiz-adv-x="1025" d="M473 173q-16 0-27 11l-152 152q-11 11-11 26.5t11 26.5 26 11 26-11l127-127 323 323q10 11 25.5 11t26.5-11 11-26-11-26l-349-349q-11-11-26-11v0zM512-12q-107 0-198.5 53t-144.5 144.5-53 198.5 53 198.5 144.5 144.5 198.5 53q119 0 218-66 10-6 12-17.5t-4.5-21.5-18-12-20.5 4q-85 56-187 56-92 0-170-45.5t-123.5-123.5-45.5-170 45.5-170 123.5-123.5 170-45.5 170 45.5 123.5 123.5 45.5 170q0 18-2 35-1 12 6.5 21t19 10.5 20.5-6 10-19.5q3-20 3-41 0-107-53-198.5t-144.5-144.5-198.5-53v0 0z" />
<glyph unicode="&#xe65e;" glyph-name="orderreceiving" horiz-adv-x="1056" d="M536.5 780q-107.5 0-198.5-53t-144-144.5-53-198.5 53-198 144-144.5 198.5-53.5 198.5 53.5 144 144.5 53 198-53 198.5-144 144.5-198.5 53zM536.5 22q-98.5 0-182 48.5t-132 132-48.5 181.5 48.5 181.5 132 132 182 48.5 182-48.5 132-132 48.5-181.5-48.5-181.5-132-132-182-48.5zM600 371q43-17 72-52 16 15 22 21-27 33-64 52 44 40 44 100 0 56-40 96t-96.5 40-96.5-40-40-96q0-59 42-99-48-24-79-70t-35-101v0q0-7 4.5-11.5t11-4.5 11 4.5 4.5 11.5v1q5 51 35.5 91t77.5 58q30-17 64-17 34 1 63 16v0 0zM428 492q0 45 32 77t77.5 32 77.5-32 32-77q0-43-29.5-74.5t-71.5-34.5h-21q-41 5-69 36t-28 73v0 0zM804 349l-204-204q-10-11-21 0l-111 110q-10 11 0 21 11 11 22 0l100-100 193 194q10 11 21 0 11-10 0-21v0 0 0 0zM724 222q0-6 4.5-10.5t11-4.5 11 4.5 4.5 11-4.5 11-11 4.5-11.5-5q-4-5-4-11z" />
<glyph unicode="&#xe65f;" glyph-name="recover" d="M519 768q-105 0-194-51.5t-140.5-141-51.5-194.5 51.5-194 140.5-140.5 194-51.5 194 51.5 141 140.5 52 194-52 194.5-141 141-194 51.5zM519.5 33q-94.5 0-175 47t-127 127-46.5 174.5 46.5 174.5 127 126.5 175 46.5 174.5-46.5 126.5-126.5 46.5-174.5-46.5-174.5-126.5-127-174.5-47zM733 189q-5-11-10 0-1 3-2.5 7t-7.5 17-13 25-18.5 28-24 29-29.5 24.5-36 17.5-43 6-49-8v-60q0-2-0.5-4t-2.5-7-5-7.5-10-1.5-16 7l-155 134q-1 1-3 2.5t-6 6-5 9 2.5 11.5 13.5 14l157 134q1 1 2.5 2t6 2.5 8 1 7.5-4.5 5-11l1-66 49-8q136-31 177-136 26-69 7-164z" />
<glyph unicode="&#xe660;" glyph-name="batch" d="M139 573l362-175q5-2 11.5-2t11.5 2l356 176q15 7 15 24.5t-15 25.5l-359 174q-11 6-23 0l-359-176q-16-7-15.5-24.5t15.5-24.5v0zM194 598l316 155 315-154-313-155zM890 206l-137 67-52-27 126-61-315-156-320 154 129 64-53 26-131-65q-16-8-15.5-25.5t15.5-24.5l364-175q5-3 11-3 7 0 12 3l358 178q15 7 15 24 0 12-8 20zM137 367l364-175q5-2 11-2t12 3l358 177q15 8 15 25 0 13-10 21v1l-86 42-7 3-41 20-52-26 126-62-315-156-320 154 129 64-52 26-132-65q-15-7-15-24.5t15-25.5z" />
<glyph unicode="&#xe661;" glyph-name="alter" d="M512 736q72 0 137-28 63-26 112-75t75-112q28-66 28-137 0-72-28-137-26-63-75-112t-112-75q-65-28-136.5-28t-137.5 28q-63 26-112 75t-75 112q-28 65-28 136.5t28 137.5q26 63 75 111.5t112 75.5q65 28 137 28zM512 768q-159 0-271.5-112.5t-112.5-271.5 112.5-271.5 271.5-112.5 271.5 112.5 112.5 271.5-112.5 271.5-271.5 112.5v0zM736 557h-131v34q0 14-11 24.5t-26 10.5h-111q-15 0-26-10.5t-11-24.5v-34h-132q-7 0-12-5t-5-12 5-12.5 12-5.5h40v-343q0-14 10.5-24t25.5-10h297q15 0 26 10t11 24v343h38q7 0 12 5.5t5 12.5-5 12-12 5zM457 591h111v-34h-111v34zM661 179h-297v343h297v-343zM437.5 236q7.5 0 12.5 5t5 13v200q0 7-5 12t-12 5-12.5-5-5.5-12v-200q0-8 5-13t12.5-5zM512 236q7 0 12 5t5 13v200q0 7-5 12t-12 5-12-5-5-12v-200q0-8 5-13t12-5zM586 236q7 0 12.5 5t5.5 13v200q0 7-5.5 12t-12.5 5-12-5-5-12v-200q0-8 5-13t12-5z" />
<glyph unicode="&#xe662;" glyph-name="modify" d="M805 615q1 12-6 25-5 9-12 17-14 13-31 16-4 1-7 1h-2q-7 0-14-2t-15-8l-14-14q-8-7-15-14l78-80q4 3 8 8l20 20q5 6 8 13.5t3 14.5q0 1-1 3zM460 395q-6-6-9-11t-5-11q-2-4-5.5-14t-7-23-6.5-24-4-18q-2-11 2-15.5t15-3.5q5 1 16 4 12 3 24 7 11 4 23 8 11 5 17 8 6 2 11.5 6.5t9.5 8.5l3 3-79 80-2.5-2.5zM577 517l-64-67q-5-4-19-19t-18-19l79-80q6 6 18 19 7 7 48 49l33 35 87 93-78 79zM871 468q-10-2-16-7t-5-10l2-6q16-91-15.5-177t-101.5-145-162.5-75.5-178.5 15-145.5 101-76 161 15 177.5 101.5 145 162 76q28 3 55.5 2.5t48.5-2.5l20-3q10-1 16 4.5t4 15.5l-1 4q-2 10-10 17.5t-18 9.5q-73 8-123-1-105-19-185-86.5t-116-165-17-202 86.5-184 166-115 203.5-17 185 86 116 165 17 202.5l-1 6q-1 5-9 7.5t-18 0.5v0z" />
<glyph unicode="&#xe663;" glyph-name="payment" d="M812 384v275q1 34-19.5 54.5t-55.5 20.5h-50v50h50q52 0 88.5-36.5t36.5-89.5v-305q-23 18-50 31v0zM462 34h-200q-46-1-73.5 26.5t-26.5 73.5v525q-1 34 19.5 54.5t55.5 20.5h50l1 50h-51q-52 0-88.5-36.5t-36.5-89.5v-527q0-60 43-103.5t103-43.5h235q-18 23-31 50v0 0zM462 784h-100v50h250v-50h-100v-25h-50v25zM387 709h200v50h-200v-50zM699.5-41q77.5 0 132.5 55t55 132.5-55 132.5-132.5 55-132.5-55-55-132.5 55-132.5 132.5-55zM519 259q29 46 76.5 73t104.5 27q88 0 150-62t62-150.5-62-150.5-150.5-62-150.5 62-62 150q0 33 9 63h-184v50h207zM687 109v-25h-50v-25h50v-50h25v50h50v25h-50v25h50v25h-32l62 100h-25l-60-100h-9l-61 100h-25l62-100h-37v-25h50zM662 359v50h-350v-50h350zM662 509v50h-350v-50h350z" />
<glyph unicode="&#xe664;" glyph-name="up02" horiz-adv-x="1821" d="M910 664q8 0 16-3l410-181q15-7 20.5-22t-1-29.5-21-20-29.5 0.5l-395 174-395-174q-14-6-29-0.5t-21.5 20-0.5 29.5 20 21l411 182q7 3 15 3v0zM910 362q8 0 16-3l410-181q15-7 20.5-21.5t-1-29.5-21-20.5-29.5 0.5l-395 175-395-175q-14-6-29 0t-21.5 20.5-0.5 29 20 21.5l411 181q7 3 15 3v0z" />
<glyph unicode="&#xe665;" glyph-name="subscription" d="M373 498q-8 0-13.5 5t-5.5 12.5 5 12.5l226 206q5 5 13 5t14-5l185-170q6-5 6-12t-6-12l-39-37q-6-5-14-5t-13.5 5-5.5 12.5 6 12.5l26 24-159 146-212-195q-6-5-13-5v0zM294 498q-5 0-9 3-7 3-9 10t2 13l131 207q4 6 11.5 8t14.5-2l110-58q7-3 9-10t-2-13-11.5-8-14.5 2l-94 49-122-192q-5-9-16-9v0zM803 51h-565q-38 0-66 25t-28 61v310q0 35 28 60.5t66 25.5h565q39 0 66.5-25.5t27.5-60.5v-310q0-36-27.5-61t-66.5-25v0zM238 498q-23 0-39.5-15t-16.5-36v-310q0-21 16.5-36.5t39.5-15.5h565q23 0 40 15.5t17 36.5v310q0 21-17 36t-40 15h-565zM747 223q-31 0-53.5 20t-22.5 48.5 22.5 49 53.5 20.5 53-20.5 22-49-22-48.5-53-20v0zM747 326q-16 0-27-10t-11-24 11-24.5 26.5-10.5 26.5 10.5 11 24.5-11 24-26 10v0z" />
<glyph unicode="&#xe666;" glyph-name="fillbrowse" d="M515 809q-115 0-212.5-56.5t-154-154-56.5-212.5 56.5-212.5 154-154 212.5-56.5 212.5 56.5 154.5 154 57 212.5-57 212.5-154.5 154-212.5 56.5zM735 583l-115-291q-2-7-9-10t-13.5-0.5-10 9.5-0.5 13l100 254-245-97-97-245 180 70q7 3 13.5 0t9.5-10 0-14-11-9l-216-86q-6-2-9-2-7 0-13 5-8 9-3 19l114 291q3 8 11 11l291 115q13 3 19-4 9-9 4-19v0zM544 385.5q0-12.5-8.5-21.5t-21-9-21 9-8.5 21.5 8.5 21 21 8.5 21-8.5 8.5-21z" />
<glyph unicode="&#xe667;" glyph-name="crp" d="M512 778q-107 0-197.5-53t-143-143.5-52.5-197.5 52.5-197.5 143-143 197.5-52.5 197.5 52.5 143 143 52.5 197.5-52.5 197.5-143 143.5-197.5 53zM758 313l-227-227q-8-8-19-8t-20 8l-226 227q-55 55-55 132.5t55 132.5q32 32 75 46 28 9 49 9 11 0 24-2 12-1 18.5-10.5t5.5-20.5q-2-10-9.5-17t-18.5-7h-3q-10 2-20 2-38 0-82-39-39-34-39-94 0-54 39-93l207-207 207 207q39 39 39 93.5t-39 93.5-94 39-94-39l-112-113q-8-8-20-8t-19 8q-8 8-8 19.5t8 19.5l112 113q55 55 133 55t133-55 55-132.5-55-132.5z" />
<glyph unicode="&#xe668;" glyph-name="noorder02" d="M512-66q-92 0-175 35-81 35-143 97t-97 143q-35 83-35 175t35 175q35 81 97 143t143 97q83 35 175 35t175-35q81-35 143-97t97-143q35-83 35-175t-35-175q-35-81-97-143t-143-97q-83-35-175-35zM512 825q-90 0-172-35-79-33-140-94t-94-140q-35-82-35-172t35-172q33-79 94-140t140-94q82-35 172-35t172 35q79 33 140 94t94 140q35 82 35 172t-35 172q-33 79-94 140t-140 94q-82 35-172 35zM405 782q9 2 17 4l-2 9q-8-2-17-5zM395 788q-24-7-47-17-75-31-133-90-33-32-57-70l7-4q24 37 56 68 57 57 131 89 22 9 46 16zM632 545h-45v-8h45q11 0 18.5-7.5t7.5-18.5v-261q0-11-7.5-18.5t-18.5-7.5h-240q-11 0-18.5 7.5t-7.5 18.5v261q0 11 7.5 18.5t18.5 7.5h45v8h-45q-14 0-24-10t-10-24v-261q0-14 10-24t24-10h240q14 0 24 10t10 24v261q0 14-10 24t-24 10zM451 552h122v-21h-122v21zM423 448h178v-8h-178v8zM423 390h178v-7h-178v7zM423 333h178v-8h-178v8z" />
<glyph unicode="&#xe669;" glyph-name="close2" horiz-adv-x="1026" d="M648 541q6 6 14.5 6t14-6 5.5-14.5-6-14.5l-133-129 133-129q6-6 6-14.5t-5.5-14.5-14-6-14.5 5l-134 130-134-130q-6-5-14.5-5t-14.5 6-5.5 14.5 6.5 14.5l133 129-133 129q-6 6-6.5 14.5t5.5 14.5 14.5 6 14.5-6l134-130zM327 36q-8 4-10.5 12t1.5 15.5 12 10 16-1.5q39-21 81.5-31.5t86.5-10.5q72 0 136.5 27t113.5 76 76.5 113.5 27.5 136.5-27.5 136.5-76.5 113.5-113.5 76-136.5 27-136.5-27-113.5-76-76.5-113.5-27.5-136.5q0-63 22-122t62-107q6-6 5.5-14.5t-7-14-15-5-14.5 7.5q-45 53-69.5 119t-24.5 136q0 80 30.5 152t85.5 126.5 127 85 152 30.5 152-30.5 127-85 85.5-126.5 30.5-152-30.5-152-85.5-126.5-127-85-152-30.5q-49 0-96.5 12t-90.5 35v0 0z" />
<glyph unicode="&#xe66a;" glyph-name="msg" d="M624 468h-224q-12 0-20.5 8.5t-8.5 20 8.5 20 20.5 8.5h224q12 0 20.5-8.5t8.5-20-8.5-20-20.5-8.5zM571 356h-171q-12 0-20.5 8t-8.5 20 8.5 20 20.5 8h171q12 0 20-8t8-20-8-20-20-8zM908 440q0 92-53 169.5t-143.5 123-197.5 45.5-197.5-45.5-143.5-123-53-169.5q0-77 40-146t112-118q10-7 21.5-4.5t18 12 4 21-11.5 18.5q-61 41-94.5 98t-33.5 119q0 77 45.5 141.5t123 102.5 169 38 169.5-38 123-102.5 45-141-45-141.5-123-102.5-169-37.5q-1 0-3-0.5l-2-0.5q-10 2-19-3t-12-15q-8-22-83-65 15 52 3 70-9 14-26 14-12 0-20-8.5t-8-19.5q0-8 3-14-5-29-29-88-7-18 7-31 8-8 19-8 6 0 12 3 126 56 165 110 105 2 194 47t141 122.5 52 167.5z" />
<glyph unicode="&#xe66b;" glyph-name="gift" horiz-adv-x="1140" d="M996 504q0 29-20 49t-49 20h-54q36 36 36 86t-35.5 85.5-85.5 35.5q-85 0-140-131-24 10-52 10t-51-10q-55 131-140 131-42 0-75-26t-43-66q17-3 34-8 7 28 30.5 46.5t53.5 18.5q64 0 111-117-5-8-6-17 4 1 5 1-2-1-5-3l-1-1q0-16 17-30v0q-50-16-147 38-50 27-95.5 37t-72.5 7-51-14.5-29.5-17l-10.5-10.5q-4-5-3.5-12t6-11.5 13-4 11.5 6.5q3 3 8.5 7.5t24 12.5 41 9.5 60.5-8 81-32.5q83-46 140-46 10 0 22 2l1-3h54v-138h-348v103q0 15 10.5 25t24.5 10h115q-20 9-36 18t-34 16h-45q-29 0-49.5-20t-20.5-49v-137h53v-310q0-28 20-48.5t49-20.5h557q29 0 49 20.5t20 48.5v310h53zM579 23h-261q-14 0-24.5 10t-10.5 24v310h296v-344zM683 607q0 11-7 21 48 117 111 117 36 0 61.5-25t25.5-60.5-25.5-60.5-61.5-25h-126q22 14 22 34v-1zM596 590q-10 0-19 2-3 5-8 7-8 4-16-1-9 4-9 9 0 8 15.5 13t37 5 37-5 15.5-12.5-15.5-12.5-37.5-5v0zM909 57q0-14-10-24t-24-10h-261v344h295v-310zM962 401h-348v138h313q14 0 24.5-10t10.5-25v-103z" />
<glyph unicode="&#xe66c;" glyph-name="redact01" d="M368 254q10-10 24.5-10t24.5 10l232 232-49 48-232-232q-10-10-10-24t10-24zM660 471l-232-232q-6-5-6-12.5t5.5-13 13-5.5 13.5 5l232 232q0 1 1 2l-25 26q-2-1-2-2zM353 314l232 232q1 0 2 2l-26 25-2-1-232-232q-5-6-5-13.5t5.5-13 13-5.5 12.5 6zM401 220q-20 0-34.5 6.5t-20 16-7.5 19-2 15.5l1 7q-14 0-23.5 5t-11.5 10l-2 6-32-154 159 37q-13 3-20 11t-7 15v6zM672 614q-14 14-35 14t-35-14l-25-25 127-127 25 25q14 14 14 35t-14 35zM864 747.5q-72 71.5-164.5 110t-193.5 38.5-193.5-38.5-164.5-109.5q-97-97-131.5-227.5t0-261 131.5-227.5q72-72 164.5-110.5t193.5-38.5 193.5 38.5 164.5 110 110 164 38 194-38 194-110 164zM828.5 67q-64.5-65-148-99.5t-174.5-34.5-174.5 34.5-148.5 99.5q-65 66-99.5 151t-34.5 171.5 34.5 172 99.5 150.5 148.5 99.5 175 34.5 174.5-34.5 147.5-99 99-148 34.5-175-34.5-174.5-99-148z" />
<glyph unicode="&#xe66d;" glyph-name="umsg01" d="M512 896q-104 0-199-40.5t-163.5-109-109-163.5-40.5-199 40.5-199 109-163.5 163.5-109 199-40.5 199 40.5 163.5 109 109 163.5 40.5 199-40.5 199-109 163.5-163.5 109-199 40.5zM512-89q-96 0-183.5 37.5t-151 101-101 151-37.5 183.5 37.5 183.5 101 151 151 101 183.5 37.5 183.5-37.5 151-101 101-151 37.5-183.5-37.5-183.5-101-151-151-101-183.5-37.5zM726 585h-428q-18 0-31.5-13t-13.5-32v-316q0-18 13.5-31.5t31.5-13.5h79v-65q-2-11 6-19 6-5 14-6h2q12 0 19 9l110 81h198q18 0 31.5 13.5t13.5 31.5v316q0 19-13.5 32t-31.5 13zM730 243v0q0-10-7-16.5t-16-6.5h-180q-11 2-18-6l-91-69v53q0 22-19 22h-82q-9 0-16 6.5t-7 16.5v278q0 10 7 16.5t16 6.5h390q9 0 16-6.5t7-16.5v-278z" />
<glyph unicode="&#xe66e;" glyph-name="umsg03" horiz-adv-x="1025" d="M511 894q-104 0-198.5-40.5t-163-109-109-163-40.5-198.5 40.5-198.5 109-163 163-109 198.5-40.5 198.5 40.5 163 109 109 163 40.5 198.5-40.5 198.5-109 163-163 109-198.5 40.5zM446 254h-64q-18 0-30.5 12.5t-12.5 30.5v172q0 18 12.5 30.5t30.5 12.5h64v-258zM683 168q0-18-12.5-30.5t-30.5-12.5l-151 100v315l151 101q18 0 30.5-13t12.5-30v-430z" />
<glyph unicode="&#xe66f;" glyph-name="umsg02" horiz-adv-x="1364" d="M1172 58q-12 0-19 10-4 8-2 16.5t10 13.5q75 44 119 119 46 77 46 167t-45 167q-43 75-117 119-8 4-10 13t2.5 16.5 13 9.5 16.5-2q83-50 132-135 51-87 51-188 0-102-52-189-49-85-134-135-5-2-11-2v0 0 0zM1059 197q-13 0-19 11-5 7-2.5 15.5t10.5 13.5q38 23 61 61 23 40 23 86t-23 85q-22 39-60 61-8 5-10 13.5t2.5 16.5 13 10 16.5-3q48-28 75-76 29-50 29-107 0-58-29-108-28-48-77-76-5-3-10-3v0 0zM891-96q-40 0-83 30l-41 29q-8 5-9.5 14t3.5 16 14 9 16-3l42-29q13-10 33.5-18t34.5-4q5 2 7.5 4.5t5 12.5 2.5 28v781q-1 17-4 27t-6 12.5-9 5.5q-13 6-32-2t-31-18l-257-193q-26-21-62.5-32t-53.5-12-29 0q-41 0-72-27.5t-36-68.5l-1-15v-135l1-14q5-41 36-68.5t72-27.5h2q33 0 69-11.5t49-18.5 21-13q5-3 12.5-8.5t26.5-22 36-35 37-47 34-58.5q4-8 0.5-16.5t-11.5-12-16-0.5-12 11q-12 26-30 51.5t-33.5 42-32.5 32-23.5 20.5-10.5 8q-7 4-18.5 10t-41.5 15.5-57 9.5h-1q-57 0-100.5 38t-50.5 96v0l-1 17v139l1 18q7 57 50.5 95.5t100.5 38.5h1q74 0 117 35h1l256 193q15 11 33 20 43 19 75 5 20-9 30-25 12-19 14-57v-784q0-20-2.5-34t-13-29-28.5-21q-11-4-24-4v0 0 0z" />
<glyph unicode="&#xe670;" glyph-name="discount" d="M833 25h-642q-29 0-49.5 21t-20.5 50v154q0 18 10.5 32.5t27.5 20.5q32 9 52 36 21 28 21 62t-21 62q-20 26-52 36-17 6-27.5 20.5t-10.5 32.5v154q0 29 20.5 50t49.5 21h642q29 0 49.5-21t20.5-50v-154q0-18-10.5-32.5t-27.5-20.5q-32-9-52-36-21-28-21-62t21-62q20-27 52-36 17-6 27.5-20.5t10.5-32.5v-154q0-29-20.5-50t-49.5-21v0zM191 740q-14 0-23.5-10t-9.5-24v-154q0-14 12-17 44-14 71-50 28-37 28-84t-28-84q-27-36-71-50-12-3-12-17v-154q0-14 9.5-24t23.5-10h642q14 0 23.5 10t9.5 24v154q0 14-12 17-44 14-71 50-28 37-28 84t28 84q27 36 71 49 12 4 12 18v154q0 14-9.5 24t-23.5 10h-642zM651 339h-122v72h122q7 0 12.5 5.5t5.5 13-5.5 13-12.5 5.5h-93l105 104q5 5 5 13t-5.5 13-13 5-13.5-5l-124-124-124 124q-5 5-13 5t-13.5-5-5.5-13 6-13l104-104h-93q-7 0-12.5-5.5t-5.5-13 5.5-13 12.5-5.5h119v-72h-119q-7 0-12.5-5.5t-5.5-13 5.5-13 12.5-5.5h119v-100q0-7 5.5-12.5t13-5.5 13 5.5 5.5 12.5v100h122q7 0 12.5 5.5t5.5 13-5.5 13-12.5 5.5z" />
<glyph unicode="&#xe671;" glyph-name="ico_star" d="M889.6 467.2c-6.4 19.2-25.6 32-44.8 32l-211.2 12.8-76.8 204.8c-12.8 38.4-76.8 38.4-89.6 0l-76.8-204.8-211.2-6.4c-19.2 0-38.4-12.8-44.8-32-6.4-25.6 0-44.8 12.8-57.6l172.8-134.4-57.6-211.2c-6.4-19.2 0-38.4 19.2-51.2s38.4-12.8 57.6 0l172.8 121.6 179.2-121.6c6.4-6.4 19.2-6.4 25.6-6.4 12.8 0 19.2 0 25.6 6.4 19.2 12.8 25.6 32 19.2 51.2l-57.6 211.2 172.8 134.4c12.8 12.8 19.2 32 12.8 51.2z" />
<glyph unicode="&#xe672;" glyph-name="coupons02" d="M509 883q-102 0-195-40t-160-107-107-160-40-195 40-195 107-160 160-106.5 195-39.5 195 39.5 160 106.5 106.5 160 39.5 195-39.5 195-106.5 160-160 107-195 40zM509-96q-97 0-185.5 38t-152.5 101.5-101.5 152-37.5 185.5 37.5 185.5 101.5 152.5 152.5 101.5 185.5 37.5 185.5-37.5 152-101.5 101.5-152.5 38-185.5-38-185.5-101.5-152-152-101.5-185.5-38zM404 532q0-9-9-9h-4q-8 0-8 9v67q0 9 8 9h4q9 0 9-9v-67zM404 163q0-9-9-9h-4q-8 0-8 9v68q0 8 8 8h4q9 0 9-8v-68zM404 286q0-9-9-9h-4q-8 0-8 9v67q0 9 8 9h4q9 0 9-9v-67zM404 409q0-9-9-9h-4q-8 0-8 9v67q0 9 8 9h4q9 0 9-9v-67zM817 296v-102q0-6-5-11t-11-5h-584q-7 0-12 5t-5 11v103q-8-2-16-2h-6v-105q0-15 10.5-25.5t25.5-10.5h589q15 0 25.5 10.5t10.5 25.5v106q-7-1-12-1t-10 1zM803 608h-589q-15 0-25.5-10.5t-10.5-25.5v-91h6q8 0 16-1v88q0 6 5 11t12 5h584q6 0 11-5t5-11v-87h10t12-1v92q0 15-10.5 25.5t-25.5 10.5zM186 481h-8v-19h8q31 0 52.5-21.5t21.5-52-21.5-52.5-52.5-22q-4 0-8 1v-20h8q39 0 66 27.5t27 66-27 65.5-66 27zM839 315q-6-1-12-1-31 0-52.5 22t-21.5 52.5 21.5 52 52.5 21.5q5 0 12-1v19q-7 1-12 1-39 0-66-27t-27-65.5 27-66 66-27.5q5 0 12 1v19z" />
<glyph unicode="&#xe673;" glyph-name="coupons01" d="M512-48q-88 0-168 34-78 33-137.5 92.5t-92.5 137.5q-34 80-34 168t34 168q33 78 92.5 137.5t137.5 92.5q80 34 168 34t168-34q78-33 137.5-92.5t92.5-137.5q34-80 34-168t-34-168q-33-78-92.5-137.5t-137.5-92.5q-80-34-168-34zM512 809q-115 0-213-57t-155-155-57-213 57-213 155-155 213-57 213 57 155 155 57 213-57 213-155 155-213 57zM249 647q-23-22-41-47l2-2q73 103 192 140v2q-18-6-35-13-67-28-118-80zM210 595l-5 4 1 2q18 26 41 48 52 52 119 80 17 8 35 13l2 1 3-7h-3q-119-37-191-139zM419 743.5q0-4.5 4-4.5t4 4.5-4 4.5-4-4.5zM482.5 312q-1.5 0-3.5 1-3 3 0 6l90 89q1 1 2.5 1t3-1 1.5-3-2-3l-89-89q-1-1-2.5-1zM434.5 359q-1.5 0-2.5 2-3 2 0 5l89 89q1 2 2.5 2t3.5-2q3-2 0-5l-90-89q-1-2-2.5-2zM715 440l-34 35-2 2q-3-1-4-2-14-13-34-13-21 0-35 14.5t-14 34.5 15 35q3 3 0 6l-34 35q-8 8-21 8t-21-8l-222-217q-9-8-9-20.5t9-21.5l34-35q1-1 3-1t3 1q14 13 34 13 21 0 35-14t14-34.5-15-34.5q-3-3 0-6l34-35q9-9 21-9 13 0 21 8l222 217q9 9 9 21.5t-9 20.5zM709 404l-221-217q-7-6-16-6v0q-9 0-15 7l-31 31 5 8q9 14 9 30 0 24-16 41-17 17-41 17-16 0-30-8l-8-5-30 32q-7 6-6 15v0q0 9 6 15l221 217q7 6 16 6t15-6l31-32-5-8q-9-13-9-30 0-23 16-40 17-18 41-18 16 0 30 8l8 5 30-31q7-7 6.5-16t-6.5-15z" />
<glyph unicode="&#xe674;" glyph-name="loginclose" d="M903 623l-20 20-239-239-239 239-20-20 239-239-239-239 20-20 239 239 239-239 20 20-239 239z" />
<glyph unicode="&#xe675;" glyph-name="couponsup" horiz-adv-x="1025" d="M657 499q6-7 6.5-16.5t-6.5-16.5l-197-197q-7-7-16.5-7t-16.5 7v0q-7 7-7 16.5t7 16.5l197 197q7 7 16.5 6.5t16.5-6.5v0zM853 269q-7-6-16.5-6.5t-16.5 6.5l-197 197q-7 7-7 16.5t7 16.5v0q7 6 16.5 6.5t16.5-6.5l197-197q7-7 7-16.5t-7-16.5v0zM640 755q-101 0-186.5-49.5t-135-135-49.5-186.5 49.5-186.5 135-135 186.5-49.5 186.5 49.5 135 135 49.5 186.5-49.5 186.5-135 135-186.5 49.5zM640 48q-91 0-168.5 45t-122.5 122.5-45 168.5 45 168.5 122.5 122.5 168.5 45 168.5-45 122.5-122.5 45-168.5-45-168.5-122.5-122.5-168.5-45z" />
<glyph unicode="&#xe676;" glyph-name="subtract" d="M514 759q-103 0-190-50.5t-137.5-137.5-50.5-190 50.5-190 137.5-137.5 190-50.5 190 50.5 137.5 137.5 50.5 190-50.5 190-137.5 137.5-190 50.5v0zM514 42q-92 0-170 45.5t-123.5 123.5-45.5 170 45.5 170 123.5 123.5 170 45.5 170-45.5 123.5-123.5 45.5-170-45.5-170-123.5-123.5-170-45.5v0zM537 404h-144q-7 0-12-7.5t-5-15 5-15 12-7.5h144v45zM537 359h99q6 0 11.5 7.5t5.5 15-5.5 15-11.5 7.5v0h-99v-45z" />
<glyph unicode="&#xe677;" glyph-name="couponsdown" d="M620 261q6-6 14-6v0q8 0 13 6l172 172q6 5 6 13t-5.5 13.5-13.5 5.5-13-6l-159-158-148 158q-6 5-13.5 5.5t-13-5-6-13 4.5-13.5zM639 17q100 0 185 49t134 134 49 185-49 185-134 134-185 49-185-49-134-134-49-185 49-185 134-134 185-49zM639 716q90 0 166-44.5t120.5-120.5 44.5-166-44.5-166-120.5-120.5-166-44.5-166 44.5-120.5 120.5-44.5 166 44.5 166 120.5 120.5 166 44.5z" />
<glyph unicode="&#xe678;" glyph-name="add05" d="M511.5 758q-101.5 0-188-50t-136.5-136.5-50-188 50-188 136.5-137 188-50.5 188 50.5 137 137 50.5 188-50.5 188-137 136.5-188 50zM512 48q-91 0-168.5 45t-122.5 122-45 168 45 168.5 122.5 122.5 168.5 45 168-45 122-122.5 45-168.5-45-168-122-122-168-45zM653 410h-115v115q0 8-8.5 14t-17.5 6-17.5-6-8.5-14v-115h-116q-8 0-14-8.5t-6-17.5 6-17.5 14-8.5h116v-116q0-8 8.5-14t17.5-6 17.5 6 8.5 14v116h115q8 0 14 8.5t6 17.5-6 17.5-14 8.5z" />
<glyph unicode="&#xe679;" glyph-name="protocol" d="M509 7q-18 0-33.5 11t-40.5 35l-296 300q-3 4-15 18.5t-16 20.5-13.5 19.5-13.5 23-9.5 23.5-7.5 29.5-2 32.5q0 100 68.5 168.5t167.5 68.5q75 0 139-44 25-17 7-38-7-8-19-7t-23 8q-46 33-104 33-83 0-137-56t-54-133q0-40 12-66t44-65l299-312q21-21 47-21 18 0 39 21 243 225 310 309 59 73 59 139 0 75-58.5 133t-133.5 58q-31 0-68.5-12t-64.5-38l-120-120q-28-29-45-17-9 8-8 19.5t10 20.5q94 99 128 128 75 64 164 64 99 0 170-70.5t71-170.5q0-42-25.5-92.5t-46.5-72.5q-62-66-157.5-161.5t-151.5-143.5q-5-4-15.5-13.5t-15-13-12-8.5-14.5-6.5-15-1.5v0 0z" />
<glyph unicode="&#xe67a;" glyph-name="gouwuche" d="M891 685q26 0 40-7.5t20-18.5q5-10 5-23t-3-21l-11-37q-6-19-20-61-12-37-21-67-11-34-16-51-12-40-30-56-18-15-45-15h-477l14-90h458q43 0 43-41 0-19-8-34-9-14-34-14h-476q-18 0-31 9-12 8-20 23-8 14-13 31-5 16-8 32-1 8-5 29l-10 57-13 77-15 85q-15 92-39 224h-68q-13 0-22.5 7.5t-15.5 18-8 22.5-2 22q0 20 12.5 33t32.5 13h92q18 0 29-6t17-15q7-9 10-19l4-17q2-9 4-22l3-30q2-10 6-38h621zM738.5 120q17.5 0 33.5-7t27-20q11-12 18-29t7-36-7-36q-7-16-18-29-11-12-27-19.5t-33.5-7.5-33 7.5-26.5 19.5q-12 13-18 29-7 17-7 36t7 36q6 17 18 29.5t27 19.5 32.5 7zM361 122q17 0 32.5-7t27-19.5 18-29.5 6.5-36-6.5-36-18-29-27.5-20q-15-7-32-7-18 0-33.5 7.5t-26.5 19.5q-12 13-18 29-7 17-7 36t7 36q6 17 18 29 11 13 26 20 16 7 34 7z" />
<glyph unicode="&#xe67b;" glyph-name="fillprotocol" d="M721 764q-70 0-127-39t-82-103q-26 64-83 103t-127 39q-93 0-159.5-66t-66.5-159q0-102 83-177l353-345 215 207q55 51 96 93l41 39q38 35 60.5 83t22.5 100q0 93-66 159t-160 66z" />
<glyph unicode="&#xe67c;" glyph-name="6yiwancheng" d="M364 408l91-170q4 7 9.5 20t25.5 51 42 74.5 56.5 85.5 70.5 89 83 79 95 62q-2-17-6.5-58t-5.5-62.5 4-55.5 19-65q-48-10-127.5-83t-149-158.5-104.5-148.5q-72 85-150.5 147.5t-139.5 82.5z" />
<glyph unicode="&#xe67d;" glyph-name="daijieshou" d="M639 588h-323q-6 0-10.5-4t-4.5-11 4.5-11 10.5-4h323q7 0 11.5 4t4.5 11-4.5 11-11.5 4zM639 474h-323q-6 0-10.5-4.5t-4.5-11 4.5-11 10.5-4.5h323q7 0 11.5 4.5t4.5 11-4.5 11-11.5 4.5zM248 30q-19 0-33.5 14.5t-14.5 34.5v602q0 19 14.5 33.5t33.5 14.5h486q20 0 34-14.5t14-33.5v-290q11 0 33-5v295q0 34-24 57.5t-57 23.5h-486q-34 0-57.5-24t-23.5-57v-602q0-35 24-58.5t57-23.5h299q-13 22-17 33h-282zM846 37l-55 55q29 43 29 90 0 64-46 110t-110.5 46-110-46-45.5-110 45.5-110 110.5-46q60 0 105 42l53-53q4-5 10.5-5t11.5 5q6 3 6.5 10t-4.5 12v0zM664 59q-51 0-87 36t-36 87 36 87 87 36 87-36 36-87-36-87-87-36z" />
<glyph unicode="&#xe67e;" glyph-name="dengdai" horiz-adv-x="1177" d="M832 80h-8q-31 0-31 17 0 11 7.5 17.5t19.5 6.5h8q45 0 85 34t62 84 22 99q0 79-60 141.5t-137 64.5h-20l-5 20q-22 73-77 115.5t-135 42.5q-102 0-169.5-73t-67.5-178v0l2-26-25-4q-45-8-79.5-58t-34.5-105q0-59 47-106t101-47h25q27 0 27-20.5t-27-20.5h-25q-76 0-131 57.5t-55 140.5q0 68 37 123t95 74q7 121 84.5 200.5t195.5 79.5q91 0 154-45t92-127q95-10 160-81t65-168q0-61-27.5-120.5t-75-98.5-99.5-39v0 0zM476 163v1q1 47 35 79.5t81 32.5q38 0 69-22l-18-17v-1q-3-3-3-8t3.5-9 9.5-4h60q5 0 9 4t4 9v60q0 6-4 9.5t-9 3.5q-9 0-12-8l-16-15q-41 32-93 32-58 0-101-40t-48-98q-1-2-1-4v-5q0-7 5-11.5t12-4.5 12 4.5 5 11.5v0zM743 161v2l-1 1q-2 14-16 14t-17-14v0-5q0-48-34-82.5t-83-34.5q-37 0-68 23l17 17q4 3 4 8.5t-3.5 9.5-9.5 4h-60q-5 0-9-4t-4-9v-60q0-6 4-9.5t9-3.5h4q5 2 7 6l17 17q41-32 92-32 63 0 107 44t44 106v0 2z" />
<glyph unicode="&#xe67f;" glyph-name="fillproject" d="M377 806h-166q-43 0-73-30t-30-73v-185q0-43 30-73t73-30h166q43 0 73.5 30t30.5 73v185q0 43-30.5 73t-73.5 30zM813 806h-166q-43 0-73.5-30t-30.5-73v-185q0-43 30.5-73t73.5-30h166q43 0 73 30t30 73v185q0 43-30 73t-73 30zM377 353h-166q-43 0-73-30t-30-73v-185q0-43 30-73t73-30h166q43 0 73.5 30t30.5 73v185q0 43-30.5 73t-73.5 30zM813 353h-166q-43 0-73.5-30t-30.5-73v-185q0-43 30.5-73t73.5-30h165q9 0 15 6t6 14.5-6 14.5-14 6h-166q-26 0-44 18t-18 44v185q0 26 18 44t44 18h166q25 0 43.5-18t18.5-44v-185q0-8 6-14.5t14.5-6.5 14.5 6.5 6 14.5v185q0 43-30 73t-73 30z" />
<glyph unicode="&#xe680;" glyph-name="fillmy" d="M609 386q48 27 77 76t29 107q0 87-61.5 149t-148.5 62-149-62-62-149q0-59 30.5-109t81.5-77q-126-34-206.5-137t-80.5-234v-24l40 2q-1 15-1 22 0 137 94.5 237t231.5 110q11-1 21-1 13 0 26 2 140-7 237.5-108t97.5-240q0-7-1-22h40v22q0 133-83.5 237.5t-212.5 136.5z" />
</font>
</defs>
</svg>
